<svg width="441" height="446" viewBox="0 0 441 446" fill="none" xmlns="http://www.w3.org/2000/svg">
<g filter="url(#filter0_f_473_256)">
<g clip-path="url(#clip0_473_256)">
<path d="M74.9532 91.2938C104.824 91.2938 129.038 82.1395 129.038 70.8473V57.3638H20.8683V70.8473C20.8683 82.1395 45.0829 91.2938 74.9532 91.2938Z" fill="url(#paint0_radial_473_256)"/>
<g filter="url(#filter1_ddd_473_256)">
<path d="M74.9532 77.81C104.823 77.81 129.038 68.6556 129.038 57.363C129.038 46.0704 104.823 36.916 74.9532 36.916C45.0829 36.916 20.8683 46.0704 20.8683 57.363C20.8683 68.6556 45.0829 77.81 74.9532 77.81Z" fill="url(#paint1_linear_473_256)"/>
</g>
<path opacity="0.5" d="M119.981 57.3627C119.981 59.5434 118.809 61.6783 116.566 63.6771C114.323 65.6753 111.05 67.4968 106.964 69.0368C98.7949 72.1148 87.4777 74.0285 74.9532 74.0285C62.4286 74.0285 51.1114 72.1148 42.9426 69.0368C38.8563 67.4968 35.5832 65.6753 33.3401 63.6771C31.0966 61.6783 29.9255 59.5434 29.9255 57.3627C29.9255 55.1814 31.0966 53.0465 33.3401 51.0478C35.5832 49.0495 38.8563 47.228 42.9426 45.688C51.1114 42.61 62.4286 40.6968 74.9532 40.6968C87.4777 40.6968 98.7949 42.6105 106.964 45.689C111.05 47.2285 114.323 49.05 116.566 51.0482C118.809 53.0475 119.981 55.1819 119.981 57.3631V57.3627Z" stroke="url(#paint2_linear_473_256)" stroke-width="0.965802"/>
<g style="mix-blend-mode:soft-light">
<path fill-rule="evenodd" clip-rule="evenodd" d="M81.9904 48.1374C81.8132 48.0321 81.693 48.0181 81.6727 48.0162C81.6524 48.0143 81.5298 48.0032 81.2366 48.0611C80.9358 48.121 80.5451 48.2364 80.0757 48.4281C79.1394 48.8115 78.0678 49.4258 76.9393 50.2438C74.6919 51.8736 72.3402 54.2239 70.4385 56.9059C68.5373 59.5884 67.4662 62.0686 67.2571 63.9046C67.1524 64.8265 67.2682 65.5609 67.572 66.0699C67.7246 66.3249 67.9105 66.4987 68.0921 66.6069C68.2693 66.7127 68.3895 66.7267 68.4098 66.7286C68.4301 66.7305 68.5528 66.7416 68.8454 66.6837C69.1463 66.6238 69.5374 66.5084 70.0068 66.3162C70.9431 65.9333 72.0147 65.319 73.1427 64.501C75.3902 62.8712 77.7424 60.5209 79.6435 57.8384C81.5447 55.1564 82.6163 52.6762 82.8254 50.8402C82.9302 49.9179 82.8143 49.1838 82.5101 48.6749C82.3579 48.4199 82.172 48.2461 81.9904 48.1374ZM80.8015 57.9557C84.6353 52.5473 85.1646 47.9008 81.9827 47.5782C78.8014 47.2561 73.1142 51.3796 69.2805 56.7891C65.4467 62.1975 64.918 66.844 68.0993 67.1666C71.2807 67.4887 76.9678 63.3652 80.8015 57.9557Z" fill="white"/>
<path fill-rule="evenodd" clip-rule="evenodd" d="M99.684 55.0313C99.8375 54.9202 99.809 54.8743 99.8037 54.8671C99.7984 54.8594 99.7617 54.814 99.4821 54.7469C99.1953 54.6783 98.7346 54.6083 98.0595 54.5503C96.7127 54.4354 94.7685 54.3919 92.3289 54.4315C87.4695 54.5102 80.9059 54.9154 73.8063 55.6339C66.7071 56.352 60.4869 57.2406 56.1736 58.09C54.0083 58.5164 52.3828 58.9211 51.3688 59.275C50.8607 59.4522 50.5551 59.6 50.3976 59.7135C50.2441 59.8246 50.2726 59.8704 50.2779 59.8777C50.2832 59.8854 50.3199 59.9308 50.5995 59.9974C50.8863 60.0665 51.3475 60.1365 52.0221 60.194C53.3694 60.3089 55.3131 60.3529 57.7527 60.3133C62.6121 60.2341 69.1757 59.8294 76.2753 59.1108C83.3745 58.3928 89.5947 57.5037 93.908 56.6548C96.0733 56.2284 97.6983 55.8237 98.7128 55.4698C99.2209 55.2925 99.5265 55.1448 99.684 55.0313ZM76.5854 59.5488C90.901 58.1001 101.815 55.9512 100.962 54.7493C100.108 53.5473 87.8118 53.7472 73.4962 55.196C59.1806 56.6447 48.2671 58.7931 49.1199 59.995C49.9732 61.1974 62.2698 60.9975 76.5854 59.5488Z" fill="white"/>
<path fill-rule="evenodd" clip-rule="evenodd" d="M92.7258 64.2702C93.0556 64.2649 93.1469 64.2325 93.1614 64.2272C93.1758 64.2214 93.2618 64.1867 93.2753 64.0616C93.2893 63.9336 93.2198 63.7477 93.0141 63.4976C92.6041 62.9992 91.7325 62.341 90.4219 61.5621C87.8113 60.0105 83.6019 58.064 78.4068 56.099C73.2113 54.1336 68.0655 52.5415 63.9637 51.554C61.9041 51.0585 60.1643 50.7287 58.8464 50.5737C58.1863 50.4959 57.6947 50.4694 57.3557 50.4747C57.0259 50.4795 56.9346 50.5124 56.9201 50.5181C56.9056 50.523 56.8197 50.5577 56.8062 50.6828C56.7922 50.8113 56.8617 50.9972 57.0674 51.2468C57.4774 51.7457 58.349 52.4039 59.6596 53.1828C62.2702 54.7344 66.4796 56.6809 71.6747 58.6459C76.8702 60.6113 82.016 62.2034 86.1178 63.1904C88.1773 63.6864 89.9172 64.0162 91.2351 64.1712C91.8952 64.249 92.3868 64.2755 92.7258 64.2702ZM70.8267 58.9665C81.3028 62.9292 91.6822 65.4277 94.0093 64.5474C96.3369 63.6671 89.7308 59.7411 79.2548 55.7784C68.7787 51.8157 58.3993 49.3172 56.0722 50.1975C53.7446 51.0778 60.3507 55.0038 70.8267 58.9665Z" fill="white"/>
<path fill-rule="evenodd" clip-rule="evenodd" d="M60.4265 52.9522C61.4329 53.0536 62.0298 53.4448 61.7603 53.8258C61.4904 54.2063 60.456 54.4318 59.4501 54.3299C58.4437 54.2285 57.8469 53.8374 58.1163 53.4564C58.3863 53.0758 59.4206 52.8503 60.4265 52.9522ZM91.0526 53.5254C92.0594 53.6273 92.6568 54.0185 92.3868 54.3995C92.1174 54.7795 91.0825 55.0055 90.0762 54.9036C89.0693 54.8017 88.472 54.4106 88.7419 54.0296C89.0114 53.649 90.0462 53.4235 91.0526 53.5254ZM67.3209 62.7131C68.3278 62.815 68.9251 63.2061 68.6556 63.5867C68.3862 63.9667 67.3513 64.1927 66.345 64.0903C65.3381 63.9884 64.7408 63.5978 65.0102 63.2172C65.2797 62.8367 66.3145 62.6112 67.3209 62.7131ZM75.7697 56.1901C77.4744 56.3629 78.4856 57.0255 78.0287 57.6692C77.5724 58.3139 75.8204 58.6958 74.1163 58.5234C72.4121 58.3506 71.4005 57.6885 71.8573 57.0443C72.3141 56.4001 74.0656 56.0177 75.7697 56.1901Z" fill="white"/>
</g>
</g>
</g>
<g filter="url(#filter2_f_473_256)">
<g clip-path="url(#clip1_473_256)">
<path d="M130.659 138.73C146.161 109.576 149.792 81.1916 138.771 75.3315L125.61 68.334L69.4746 173.91L82.6349 180.908C93.6563 186.768 115.158 167.885 130.659 138.73Z" fill="url(#paint3_radial_473_256)"/>
<g filter="url(#filter3_ddd_473_256)">
<path d="M117.499 131.733C133 102.579 136.632 74.1943 125.61 68.3339C114.588 62.4735 93.0867 81.3567 77.5853 110.511C62.0838 139.665 58.4523 168.05 69.4741 173.91C80.4958 179.77 101.997 160.887 117.499 131.733Z" fill="url(#paint4_linear_473_256)"/>
</g>
<path opacity="0.5" d="M120.909 77.1734C123.038 78.3052 124.513 80.5565 125.3 83.7836C126.086 87.0099 126.165 91.1498 125.548 95.9368C124.313 105.507 120.308 117.546 113.808 129.77C107.308 141.995 99.567 152.047 92.3235 158.423C88.6999 161.612 85.2234 163.861 82.109 165.014C78.9939 166.166 76.3025 166.201 74.174 165.069C72.045 163.937 70.569 161.686 69.7825 158.459C68.9963 155.233 68.9171 151.093 69.5346 146.306C70.7697 136.735 74.7755 124.697 81.2753 112.472C87.775 100.248 95.5161 90.1955 102.76 83.8202C106.383 80.6313 109.859 78.382 112.974 77.2297C116.089 76.0775 118.781 76.0417 120.91 77.1737L120.909 77.1734Z" stroke="url(#paint5_linear_473_256)" stroke-width="1.06761"/>
<g style="mix-blend-mode:soft-light">
<path fill-rule="evenodd" clip-rule="evenodd" d="M92.1895 109.465C91.9948 109.583 91.9187 109.693 91.9063 109.712C91.8939 109.731 91.8194 109.845 91.7239 110.161C91.6262 110.486 91.5361 110.927 91.4796 111.485C91.3679 112.598 91.4114 113.962 91.6241 115.488C92.0485 118.528 93.122 122.043 94.7528 125.291C96.3844 128.538 98.2492 130.871 99.9327 132.028C100.778 132.608 101.555 132.876 102.209 132.844C102.538 132.827 102.804 132.736 103.003 132.615C103.199 132.497 103.275 132.387 103.287 132.368C103.3 132.349 103.374 132.235 103.469 131.92C103.567 131.595 103.657 131.153 103.713 130.595C103.826 129.483 103.782 128.118 103.569 126.593C103.145 123.553 102.072 120.038 100.44 116.79C98.8089 113.543 96.9443 111.21 95.2608 110.053C94.415 109.472 93.6384 109.204 92.9838 109.237C92.656 109.253 92.3898 109.344 92.1895 109.465ZM101.155 115.721C97.8662 109.172 93.6058 106.244 91.6397 109.182C89.6744 112.12 90.7476 119.811 94.0378 126.36C97.327 132.909 101.588 135.836 103.554 132.898C105.519 129.961 104.446 122.27 101.155 115.721Z" fill="white"/>
<path fill-rule="evenodd" clip-rule="evenodd" d="M108.1 95.7738C108.072 95.5663 108.012 95.5703 108.002 95.5717C107.992 95.5729 107.929 95.5852 107.718 95.8232C107.502 96.0676 107.195 96.4809 106.788 97.1098C105.977 98.3646 104.925 100.24 103.698 102.641C101.253 107.425 98.2421 114.042 95.259 121.344C92.2757 128.645 89.9149 135.178 88.5055 139.828C87.798 142.163 87.3494 143.959 87.1686 145.133C87.0779 145.721 87.0635 146.096 87.0926 146.308C87.1213 146.516 87.1809 146.512 87.1907 146.51C87.201 146.509 87.2643 146.497 87.4745 146.259C87.6907 146.014 87.9984 145.601 88.4046 144.972C89.216 143.717 90.2675 141.842 91.495 139.441C93.9395 134.657 96.9508 128.041 99.9339 120.738C102.917 113.437 105.278 106.904 106.687 102.254C107.395 99.9192 107.843 98.1232 108.024 96.9492C108.115 96.3614 108.129 95.9864 108.1 95.7738ZM100.522 120.663C106.538 105.939 110.104 94.1718 108.488 94.3804C106.872 94.5894 100.686 106.695 94.6706 121.419C88.6554 136.143 85.0886 147.91 86.7043 147.701C88.3207 147.493 94.507 135.387 100.522 120.663Z" fill="white"/>
<path fill-rule="evenodd" clip-rule="evenodd" d="M113.507 107.359C113.673 107.035 113.688 106.929 113.691 106.912C113.693 106.895 113.703 106.793 113.588 106.715C113.471 106.635 113.253 106.606 112.902 106.677C112.203 106.819 111.108 107.328 109.668 108.203C106.799 109.945 102.714 113.044 98.1005 117.094C93.4859 121.145 89.2615 125.342 86.169 128.833C84.6166 130.586 83.3918 132.113 82.5566 133.318C82.1381 133.922 81.8571 134.388 81.6863 134.722C81.5199 135.046 81.5046 135.153 81.5027 135.17C81.4999 135.186 81.4892 135.288 81.6043 135.366C81.7224 135.447 81.9399 135.475 82.2904 135.404C82.99 135.263 84.0848 134.754 85.5251 133.879C88.3943 132.136 92.4787 129.038 97.0925 124.987C101.707 120.936 105.932 116.74 109.024 113.249C110.576 111.496 111.801 109.969 112.636 108.763C113.055 108.159 113.336 107.693 113.507 107.359ZM96.9654 125.981C106.27 117.813 114.095 108.979 114.443 106.25C114.792 103.522 107.532 107.932 98.2276 116.1C88.9233 124.269 81.0981 133.103 80.7497 135.831C80.401 138.56 87.6611 134.149 96.9654 125.981Z" fill="white"/>
<path fill-rule="evenodd" clip-rule="evenodd" d="M85.6983 133.011C86.3195 132.082 87.011 131.702 87.2431 132.163C87.4744 132.624 87.1577 133.75 86.5362 134.679C85.915 135.609 85.2235 135.988 84.9914 135.528C84.7601 135.067 85.0768 133.94 85.6983 133.011ZM102.151 103.417C102.773 102.487 103.465 102.107 103.697 102.568C103.928 103.028 103.612 104.156 102.99 105.085C102.368 106.015 101.676 106.395 101.444 105.934C101.213 105.473 101.53 104.346 102.151 103.417ZM98.803 131.348C99.425 130.418 100.117 130.038 100.348 130.498C100.579 130.958 100.263 132.086 99.6407 133.015C99.0188 133.945 98.3275 134.325 98.0959 133.865C97.8643 133.404 98.1813 132.277 98.803 131.348ZM96.821 119.716C97.8744 118.142 99.0458 117.499 99.437 118.279C99.8294 119.059 99.293 120.967 98.2403 122.541C97.1872 124.114 96.016 124.758 95.6243 123.978C95.2327 123.198 95.7683 121.29 96.821 119.716Z" fill="white"/>
</g>
</g>
</g>
<g filter="url(#filter4_f_473_256)">
<g clip-path="url(#clip2_473_256)">
<path d="M92.4997 210.333C115.437 234.085 141.31 246.31 150.289 237.639L161.011 227.285L77.9489 141.272L67.2272 151.626C58.248 160.297 69.5628 186.581 92.4997 210.333Z" fill="url(#paint6_radial_473_256)"/>
<g filter="url(#filter5_ddd_473_256)">
<path d="M103.221 199.979C126.158 223.731 152.032 235.956 161.011 227.285C169.99 218.613 158.676 192.329 135.739 168.577C112.802 144.825 86.9287 132.6 77.9492 141.272C68.9698 149.943 80.2845 176.227 103.221 199.979Z" fill="url(#paint7_linear_473_256)"/>
</g>
<path opacity="0.5" d="M154.056 220.082C152.322 221.757 149.725 222.465 146.413 222.215C143.102 221.966 139.14 220.762 134.778 218.696C126.058 214.564 115.846 207.034 106.228 197.075C96.611 187.116 89.4424 176.647 85.6173 167.788C83.704 163.357 82.6391 159.355 82.5056 156.037C82.3721 152.718 83.1705 150.148 84.9046 148.473C86.6391 146.798 89.2359 146.09 92.548 146.339C95.8593 146.588 99.8211 147.792 104.183 149.859C112.904 153.991 123.115 161.521 132.733 171.48C142.35 181.439 149.519 191.908 153.343 200.767C155.257 205.198 156.322 209.2 156.455 212.518C156.588 215.837 155.791 218.408 154.056 220.083L154.056 220.082Z" stroke="url(#paint8_linear_473_256)" stroke-width="1.06761"/>
<g style="mix-blend-mode:soft-light">
<path fill-rule="evenodd" clip-rule="evenodd" d="M132.22 182.789C132.168 182.568 132.086 182.461 132.072 182.444C132.058 182.426 131.973 182.32 131.702 182.131C131.423 181.938 131.032 181.716 130.519 181.49C129.495 181.04 128.183 180.66 126.666 180.39C123.645 179.855 119.97 179.789 116.377 180.337C112.784 180.885 109.99 181.938 108.369 183.181C107.556 183.806 107.061 184.462 106.889 185.094C106.803 185.412 106.808 185.693 106.861 185.92C106.913 186.142 106.995 186.249 107.009 186.266C107.023 186.284 107.108 186.39 107.379 186.578C107.657 186.772 108.05 186.994 108.563 187.22C109.586 187.67 110.898 188.05 112.414 188.319C115.436 188.855 119.111 188.921 122.704 188.372C126.297 187.825 129.092 186.772 130.712 185.529C131.526 184.904 132.021 184.248 132.192 183.615C132.278 183.299 132.273 183.017 132.22 182.789ZM123.5 189.383C130.744 188.279 134.846 185.132 132.659 182.354C130.472 179.577 122.826 178.221 115.581 179.326C108.336 180.431 104.236 183.578 106.422 186.356C108.609 189.133 116.255 190.489 123.5 189.383Z" fill="white"/>
<path fill-rule="evenodd" clip-rule="evenodd" d="M140.325 202.153C140.531 202.189 140.546 202.132 140.547 202.122C140.549 202.112 140.557 202.048 140.396 201.774C140.23 201.493 139.932 201.073 139.46 200.492C138.517 199.332 137.059 197.753 135.154 195.844C131.36 192.04 125.998 187.132 119.975 182.038C113.952 176.945 108.469 172.681 104.482 169.903C102.48 168.509 100.91 167.527 99.85 166.993C99.3189 166.725 98.9667 166.595 98.7556 166.557C98.5494 166.52 98.5348 166.578 98.5331 166.588C98.531 166.598 98.5231 166.662 98.6848 166.936C98.8502 167.217 99.1486 167.637 99.6209 168.218C100.564 169.377 102.022 170.957 103.927 172.866C107.721 176.669 113.083 181.578 119.106 186.671C125.128 191.765 130.611 196.029 134.599 198.806C136.6 200.201 138.17 201.182 139.23 201.717C139.762 201.985 140.114 202.115 140.325 202.153ZM118.996 187.254C131.14 197.525 141.229 204.553 141.53 202.952C141.831 201.351 132.229 191.726 120.085 181.455C107.94 171.185 97.8514 164.156 97.5506 165.757C97.2497 167.359 106.851 176.983 118.996 187.254Z" fill="white"/>
<path fill-rule="evenodd" clip-rule="evenodd" d="M127.635 203.714C127.893 203.972 127.989 204.02 128.004 204.027C128.02 204.034 128.113 204.076 128.223 203.991C128.336 203.904 128.43 203.706 128.471 203.35C128.553 202.641 128.407 201.443 128.02 199.802C127.249 196.535 125.564 191.693 123.137 186.053C120.711 180.413 118.025 175.099 115.661 171.079C114.473 169.061 113.4 167.424 112.511 166.257C112.066 165.672 111.71 165.261 111.445 164.995C111.188 164.737 111.092 164.69 111.076 164.683C111.061 164.675 110.967 164.633 110.858 164.718C110.745 164.806 110.65 165.004 110.61 165.359C110.528 166.068 110.674 167.267 111.061 168.907C111.832 172.174 113.516 177.016 115.943 182.656C118.37 188.296 121.055 193.611 123.42 197.63C124.607 199.649 125.681 201.286 126.569 202.453C127.014 203.037 127.371 203.448 127.635 203.714ZM115.037 182.228C119.93 193.601 125.914 203.773 128.401 204.947C130.888 206.122 128.937 197.855 124.044 186.482C119.15 175.108 113.167 164.936 110.68 163.762C108.192 162.587 110.143 170.855 115.037 182.228Z" fill="white"/>
<path fill-rule="evenodd" clip-rule="evenodd" d="M111.833 169.34C112.525 170.218 112.672 170.993 112.162 171.071C111.652 171.149 110.679 170.499 109.987 169.621C109.295 168.743 109.148 167.968 109.658 167.89C110.168 167.812 111.141 168.462 111.833 169.34ZM134.894 194.133C135.586 195.012 135.734 195.787 135.224 195.865C134.715 195.943 133.74 195.293 133.049 194.415C132.356 193.536 132.209 192.761 132.719 192.683C133.228 192.605 134.202 193.254 134.894 194.133ZM109.365 182.317C110.057 183.196 110.205 183.971 109.696 184.049C109.186 184.127 108.212 183.478 107.521 182.599C106.829 181.72 106.681 180.945 107.19 180.867C107.7 180.789 108.674 181.439 109.365 182.317ZM121.04 184.027C122.211 185.515 122.461 186.828 121.598 186.959C120.735 187.091 119.086 185.991 117.915 184.504C116.744 183.016 116.493 181.703 117.356 181.571C118.219 181.44 119.868 182.539 121.04 184.027Z" fill="white"/>
</g>
</g>
</g>
<g clip-path="url(#clip3_473_256)">
<path d="M188.847 301.315C244.483 284.305 284.372 253.465 277.942 232.432L270.264 207.318L68.787 268.916L76.4652 294.03C82.8956 315.063 133.211 318.324 188.847 301.315Z" fill="url(#paint9_radial_473_256)"/>
<g filter="url(#filter6_ddd_473_256)">
<path d="M181.169 276.201C236.805 259.191 276.694 228.351 270.263 207.317C263.833 186.284 213.518 183.022 157.881 200.032C102.245 217.041 62.3561 247.882 68.7867 268.915C75.2173 289.949 125.532 293.21 181.169 276.201Z" fill="url(#paint10_linear_473_256)"/>
</g>
<path opacity="0.5" d="M253.393 212.474C254.635 216.536 253.668 221.179 250.628 226.18C247.588 231.179 242.529 236.436 235.795 241.631C222.333 252.016 202.343 262.025 179.015 269.157C155.687 276.289 133.518 279.169 116.55 278.088C108.062 277.546 100.928 276.017 95.6122 273.573C90.2952 271.128 86.8983 267.818 85.6565 263.756C84.4143 259.693 85.3798 255.05 88.4204 250.05C91.4605 245.05 96.5197 239.794 103.254 234.598C116.716 224.214 136.706 214.205 160.034 207.073C183.362 199.941 205.532 197.061 222.5 198.143C230.987 198.684 238.12 200.213 243.436 202.657C248.754 205.104 252.151 208.412 253.393 212.475L253.393 212.474Z" stroke="url(#paint11_linear_473_256)" stroke-width="1.88109"/>
<g style="mix-blend-mode:soft-light">
<path fill-rule="evenodd" clip-rule="evenodd" d="M177.379 216.925C176.989 216.83 176.757 216.872 176.718 216.88C176.679 216.888 176.444 216.937 175.931 217.212C175.405 217.495 174.743 217.932 173.978 218.557C172.452 219.804 170.806 221.558 169.17 223.725C165.912 228.04 162.87 233.757 160.856 239.835C158.842 245.915 158.259 251.144 158.915 254.683C159.245 256.46 159.879 257.762 160.735 258.537C161.164 258.925 161.61 259.143 162.009 259.241C162.4 259.337 162.632 259.294 162.671 259.286C162.709 259.278 162.944 259.229 163.456 258.955C163.983 258.672 164.645 258.234 165.41 257.609C166.936 256.362 168.582 254.608 170.218 252.442C173.475 248.127 176.518 242.41 178.532 236.33C180.546 230.252 181.129 225.023 180.473 221.484C180.143 219.706 179.509 218.405 178.653 217.63C178.224 217.242 177.779 217.024 177.379 216.925ZM180.756 235.89C184.816 223.633 183.156 214.677 177.046 215.888C170.937 217.1 162.692 228.018 158.632 240.277C154.571 252.534 156.232 261.49 162.342 260.279C168.451 259.067 176.695 248.148 180.756 235.89Z" fill="white"/>
<path fill-rule="evenodd" clip-rule="evenodd" d="M214.261 219.69C214.483 219.395 214.404 219.326 214.39 219.316C214.376 219.304 214.282 219.241 213.723 219.275C213.149 219.31 212.251 219.442 210.961 219.719C208.387 220.272 204.741 221.298 200.219 222.761C191.213 225.675 179.219 230.167 166.404 235.548C153.59 240.928 142.51 246.126 134.96 250.164C131.17 252.191 128.373 253.87 126.685 255.107C125.84 255.727 125.355 256.176 125.126 256.477C124.904 256.771 124.983 256.84 124.997 256.851C125.011 256.862 125.105 256.926 125.664 256.891C126.238 256.856 127.136 256.724 128.426 256.447C131.001 255.894 134.646 254.869 139.167 253.406C148.173 250.491 160.168 246 172.983 240.618C185.797 235.238 196.876 230.04 204.427 226.003C208.217 223.975 211.013 222.296 212.701 221.059C213.547 220.44 214.032 219.991 214.261 219.69ZM173.81 241.258C199.649 230.407 218.753 220.19 216.48 218.437C214.206 216.684 191.416 224.059 165.577 234.909C139.738 245.759 120.634 255.976 122.907 257.729C125.181 259.483 147.97 252.108 173.81 241.258Z" fill="white"/>
<path fill-rule="evenodd" clip-rule="evenodd" d="M206.562 240.86C207.173 240.663 207.324 240.55 207.348 240.532C207.372 240.513 207.512 240.399 207.466 240.159C207.42 239.912 207.184 239.606 206.659 239.257C205.611 238.562 203.613 237.833 200.728 237.128C194.982 235.725 186.033 234.496 175.238 233.795C164.442 233.093 153.95 233.057 145.748 233.554C141.63 233.804 138.201 234.18 135.658 234.642C134.385 234.873 133.454 235.103 132.825 235.306C132.214 235.503 132.063 235.616 132.039 235.635C132.015 235.653 131.874 235.766 131.92 236.007C131.967 236.254 132.203 236.561 132.728 236.909C133.776 237.604 135.774 238.334 138.659 239.039C144.405 240.442 153.354 241.67 164.149 242.372C174.945 243.074 185.437 243.109 193.639 242.612C197.757 242.363 201.186 241.986 203.729 241.525C205.002 241.294 205.933 241.063 206.562 240.86ZM162.752 243.452C184.521 244.867 205.277 243.61 209.11 240.646C212.944 237.68 198.404 234.13 176.635 232.715C154.866 231.299 134.11 232.556 130.277 235.521C126.443 238.486 140.983 242.037 162.752 243.452Z" fill="white"/>
<path fill-rule="evenodd" clip-rule="evenodd" d="M139.956 238.173C141.888 237.788 143.223 238.177 142.938 239.04C142.652 239.903 140.853 240.912 138.922 241.295C136.99 241.679 135.655 241.29 135.94 240.427C136.226 239.565 138.024 238.556 139.956 238.173ZM197.326 221.8C199.26 221.417 200.595 221.805 200.309 222.668C200.024 223.53 198.225 224.54 196.292 224.923C194.359 225.307 193.024 224.918 193.31 224.055C193.595 223.193 195.394 222.184 197.326 221.8ZM158.356 252.427C160.289 252.044 161.624 252.432 161.339 253.294C161.054 254.156 159.255 255.166 157.322 255.548C155.389 255.932 154.054 255.544 154.339 254.682C154.624 253.82 156.423 252.811 158.356 252.427ZM170.378 235.466C173.651 234.818 175.912 235.476 175.428 236.935C174.945 238.396 171.899 240.105 168.627 240.754C165.354 241.402 163.093 240.745 163.577 239.285C164.061 237.825 167.106 236.116 170.378 235.466Z" fill="white"/>
</g>
</g>
<g clip-path="url(#clip4_473_256)">
<path d="M214.989 367.267C274.815 400.429 333.477 408.978 346.013 386.361L360.983 359.355L144.333 239.264L129.364 266.27C116.827 288.887 155.162 334.105 214.989 367.267Z" fill="url(#paint12_radial_473_256)"/>
<g filter="url(#filter7_ddd_473_256)">
<path d="M229.958 340.261C289.784 373.424 348.446 381.972 360.983 359.354C373.521 336.737 335.185 291.518 275.359 258.356C215.533 225.194 156.871 216.646 144.334 239.263C131.797 261.881 170.132 307.099 229.958 340.261Z" fill="url(#paint13_linear_473_256)"/>
</g>
<path opacity="0.5" d="M342.844 349.298C340.422 353.665 335.706 356.641 328.993 358.153C322.282 359.665 313.704 359.679 303.811 358.228C284.033 355.324 259.242 346.592 234.157 332.687C209.072 318.782 188.529 302.385 175.586 287.151C169.111 279.53 164.578 272.248 162.303 265.755C160.029 259.261 160.054 253.685 162.475 249.318C164.896 244.949 169.612 241.973 176.325 240.461C183.036 238.949 191.614 238.934 201.508 240.386C221.286 243.291 246.077 252.023 271.162 265.928C296.247 279.833 316.789 296.23 329.732 311.465C336.206 319.085 340.74 326.367 343.014 332.859C345.288 339.354 345.265 344.93 342.843 349.299L342.844 349.298Z" stroke="url(#paint14_linear_473_256)" stroke-width="2.21167"/>
<g style="mix-blend-mode:soft-light">
<path fill-rule="evenodd" clip-rule="evenodd" d="M276.996 288.643C276.758 288.236 276.533 288.074 276.494 288.048C276.456 288.021 276.222 287.863 275.571 287.654C274.902 287.44 273.991 287.237 272.838 287.1C270.537 286.828 267.709 286.869 264.541 287.254C258.23 288.024 250.91 290.12 244.124 293.381C237.338 296.643 232.439 300.421 229.982 303.866C228.749 305.596 228.166 307.196 228.209 308.552C228.231 309.232 228.411 309.787 228.654 310.205C228.892 310.614 229.117 310.775 229.156 310.802C229.194 310.828 229.428 310.987 230.078 311.195C230.747 311.41 231.659 311.613 232.812 311.749C235.113 312.021 237.941 311.981 241.108 311.595C247.419 310.826 254.739 308.73 261.525 305.468C268.311 302.207 273.21 298.429 275.668 294.984C276.901 293.253 277.484 291.654 277.44 290.297C277.418 289.617 277.239 289.063 276.996 288.643ZM263.714 306.988C277.397 300.412 283.616 291.693 277.601 287.515C271.587 283.338 255.619 285.283 241.935 291.861C228.251 298.437 222.034 307.156 228.048 311.334C234.062 315.511 250.03 313.566 263.714 306.988Z" fill="white"/>
<path fill-rule="evenodd" clip-rule="evenodd" d="M304.78 322.095C305.211 322.043 305.205 321.919 305.202 321.899C305.2 321.877 305.177 321.746 304.692 321.301C304.193 320.845 303.348 320.193 302.06 319.328C299.491 317.602 295.645 315.357 290.715 312.728C280.894 307.49 267.299 301.015 252.281 294.572C237.266 288.129 223.821 283.003 214.239 279.915C209.429 278.365 205.724 277.371 203.3 276.954C202.085 276.745 201.309 276.702 200.868 276.754C200.437 276.806 200.443 276.93 200.446 276.95C200.448 276.972 200.471 277.103 200.957 277.547C201.455 278.004 202.301 278.656 203.588 279.52C206.159 281.246 210.003 283.492 214.933 286.121C224.754 291.358 238.349 297.834 253.367 304.277C268.382 310.72 281.828 315.845 291.409 318.934C296.219 320.484 299.923 321.477 302.348 321.895C303.562 322.104 304.339 322.147 304.78 322.095ZM253.501 305.498C283.782 318.49 308.026 326.302 307.652 322.948C307.278 319.594 282.427 306.342 252.147 293.351C221.866 280.359 197.622 272.545 197.996 275.9C198.37 279.255 223.221 292.507 253.501 305.498Z" fill="white"/>
<path fill-rule="evenodd" clip-rule="evenodd" d="M280.587 332.874C281.253 333.229 281.472 333.266 281.507 333.271C281.542 333.276 281.753 333.301 281.919 333.066C282.089 332.825 282.156 332.376 282.022 331.646C281.754 330.193 280.739 327.907 278.979 324.892C275.473 318.886 269.203 310.314 260.979 300.611C252.755 290.906 244.217 282.004 237.098 275.473C233.523 272.194 230.404 269.602 227.937 267.828C226.701 266.94 225.746 266.341 225.061 265.975C224.395 265.618 224.176 265.583 224.14 265.578C224.106 265.572 223.895 265.546 223.729 265.782C223.559 266.023 223.491 266.473 223.626 267.201C223.894 268.656 224.909 270.942 226.669 273.957C230.175 279.963 236.445 288.535 244.668 298.238C252.892 307.942 261.431 316.844 268.55 323.375C272.125 326.655 275.244 329.247 277.711 331.02C278.947 331.909 279.902 332.508 280.587 332.874ZM242.614 297.938C259.197 317.506 277.212 334.033 282.85 334.854C288.489 335.675 279.616 320.477 263.034 300.91C246.451 281.343 228.436 264.815 222.798 263.995C217.159 263.174 226.031 278.371 242.614 297.938Z" fill="white"/>
<path fill-rule="evenodd" clip-rule="evenodd" d="M228.461 274.347C230.364 275.667 231.125 277.113 230.162 277.577C229.199 278.04 226.877 277.343 224.975 276.022C223.072 274.702 222.311 273.256 223.274 272.792C224.237 272.329 226.559 273.026 228.461 274.347ZM289.164 309.496C291.068 310.818 291.83 312.265 290.866 312.728C289.905 313.19 287.581 312.494 285.678 311.172C283.775 309.851 283.013 308.404 283.976 307.941C284.939 307.478 287.262 308.175 289.164 309.496ZM231.433 301.551C233.336 302.873 234.098 304.319 233.136 304.782C232.174 305.244 229.851 304.548 227.949 303.226C226.045 301.904 225.283 300.458 226.245 299.995C227.207 299.532 229.53 300.229 231.433 301.551ZM255.596 297.866C258.819 300.105 260.108 302.554 258.479 303.336C256.849 304.121 252.916 302.941 249.694 300.704C246.473 298.465 245.182 296.016 246.812 295.233C248.442 294.45 252.375 295.629 255.596 297.866Z" fill="white"/>
</g>
</g>
<defs>
<filter id="filter0_f_473_256" x="0.921875" y="10.7031" width="148.062" height="84.7812" filterUnits="userSpaceOnUse" color-interpolation-filters="sRGB">
<feFlood flood-opacity="0" result="BackgroundImageFix"/>
<feBlend mode="normal" in="SourceGraphic" in2="BackgroundImageFix" result="shape"/>
<feGaussianBlur stdDeviation="2" result="effect1_foregroundBlur_473_256"/>
</filter>
<filter id="filter1_ddd_473_256" x="4.93256" y="14.7026" width="140.041" height="72.7655" filterUnits="userSpaceOnUse" color-interpolation-filters="sRGB">
<feFlood flood-opacity="0" result="BackgroundImageFix"/>
<feColorMatrix in="SourceAlpha" type="matrix" values="0 0 0 0 0 0 0 0 0 0 0 0 0 0 0 0 0 0 127 0" result="hardAlpha"/>
<feOffset dy="-6.27771"/>
<feGaussianBlur stdDeviation="7.96787"/>
<feColorMatrix type="matrix" values="0 0 0 0 0.404167 0 0 0 0 0.741154 0 0 0 0 1 0 0 0 0.4 0"/>
<feBlend mode="normal" in2="BackgroundImageFix" result="effect1_dropShadow_473_256"/>
<feColorMatrix in="SourceAlpha" type="matrix" values="0 0 0 0 0 0 0 0 0 0 0 0 0 0 0 0 0 0 127 0" result="hardAlpha"/>
<feOffset dy="0.89723"/>
<feGaussianBlur stdDeviation="0.89723"/>
<feColorMatrix type="matrix" values="0 0 0 0 1 0 0 0 0 1 0 0 0 0 1 0 0 0 0.25 0"/>
<feBlend mode="normal" in2="effect1_dropShadow_473_256" result="effect2_dropShadow_473_256"/>
<feColorMatrix in="SourceAlpha" type="matrix" values="0 0 0 0 0 0 0 0 0 0 0 0 0 0 0 0 0 0 127 0" result="hardAlpha"/>
<feOffset dy="-0.89723"/>
<feGaussianBlur stdDeviation="0.325475"/>
<feComposite in2="hardAlpha" operator="out"/>
<feColorMatrix type="matrix" values="0 0 0 0 0.925 0 0 0 0 0.936947 0 0 0 0 1 0 0 0 0.12 0"/>
<feBlend mode="normal" in2="effect2_dropShadow_473_256" result="effect3_dropShadow_473_256"/>
<feBlend mode="normal" in="SourceGraphic" in2="effect3_dropShadow_473_256" result="shape"/>
</filter>
<filter id="filter2_f_473_256" x="15.5649" y="26.6372" width="155.62" height="184.538" filterUnits="userSpaceOnUse" color-interpolation-filters="sRGB">
<feFlood flood-opacity="0" result="BackgroundImageFix"/>
<feBlend mode="normal" in="SourceGraphic" in2="BackgroundImageFix" result="shape"/>
<feGaussianBlur stdDeviation="2" result="effect1_foregroundBlur_473_256"/>
</filter>
<filter id="filter3_ddd_473_256" x="45.4842" y="42.7125" width="104.116" height="142.94" filterUnits="userSpaceOnUse" color-interpolation-filters="sRGB">
<feFlood flood-opacity="0" result="BackgroundImageFix"/>
<feColorMatrix in="SourceAlpha" type="matrix" values="0 0 0 0 0 0 0 0 0 0 0 0 0 0 0 0 0 0 127 0" result="hardAlpha"/>
<feOffset dy="-6.93947"/>
<feGaussianBlur stdDeviation="8.80779"/>
<feColorMatrix type="matrix" values="0 0 0 0 0.404167 0 0 0 0 0.741154 0 0 0 0 1 0 0 0 0.4 0"/>
<feBlend mode="normal" in2="BackgroundImageFix" result="effect1_dropShadow_473_256"/>
<feColorMatrix in="SourceAlpha" type="matrix" values="0 0 0 0 0 0 0 0 0 0 0 0 0 0 0 0 0 0 127 0" result="hardAlpha"/>
<feOffset dy="0.99181"/>
<feGaussianBlur stdDeviation="0.99181"/>
<feColorMatrix type="matrix" values="0 0 0 0 1 0 0 0 0 1 0 0 0 0 1 0 0 0 0.25 0"/>
<feBlend mode="normal" in2="effect1_dropShadow_473_256" result="effect2_dropShadow_473_256"/>
<feColorMatrix in="SourceAlpha" type="matrix" values="0 0 0 0 0 0 0 0 0 0 0 0 0 0 0 0 0 0 127 0" result="hardAlpha"/>
<feOffset dy="-0.99181"/>
<feGaussianBlur stdDeviation="0.359785"/>
<feComposite in2="hardAlpha" operator="out"/>
<feColorMatrix type="matrix" values="0 0 0 0 0.925 0 0 0 0 0.936947 0 0 0 0 1 0 0 0 0.12 0"/>
<feBlend mode="normal" in2="effect2_dropShadow_473_256" result="effect3_dropShadow_473_256"/>
<feBlend mode="normal" in="SourceGraphic" in2="effect3_dropShadow_473_256" result="shape"/>
</filter>
<filter id="filter4_f_473_256" x="34.5771" y="91.8389" width="176.596" height="178.322" filterUnits="userSpaceOnUse" color-interpolation-filters="sRGB">
<feFlood flood-opacity="0" result="BackgroundImageFix"/>
<feBlend mode="normal" in="SourceGraphic" in2="BackgroundImageFix" result="shape"/>
<feGaussianBlur stdDeviation="2" result="effect1_foregroundBlur_473_256"/>
</filter>
<filter id="filter5_ddd_473_256" x="57.2526" y="113.928" width="124.455" height="126.822" filterUnits="userSpaceOnUse" color-interpolation-filters="sRGB">
<feFlood flood-opacity="0" result="BackgroundImageFix"/>
<feColorMatrix in="SourceAlpha" type="matrix" values="0 0 0 0 0 0 0 0 0 0 0 0 0 0 0 0 0 0 127 0" result="hardAlpha"/>
<feOffset dy="-6.93946"/>
<feGaussianBlur stdDeviation="8.80777"/>
<feColorMatrix type="matrix" values="0 0 0 0 0.404167 0 0 0 0 0.741154 0 0 0 0 1 0 0 0 0.4 0"/>
<feBlend mode="normal" in2="BackgroundImageFix" result="effect1_dropShadow_473_256"/>
<feColorMatrix in="SourceAlpha" type="matrix" values="0 0 0 0 0 0 0 0 0 0 0 0 0 0 0 0 0 0 127 0" result="hardAlpha"/>
<feOffset dy="0.991809"/>
<feGaussianBlur stdDeviation="0.991809"/>
<feColorMatrix type="matrix" values="0 0 0 0 1 0 0 0 0 1 0 0 0 0 1 0 0 0 0.25 0"/>
<feBlend mode="normal" in2="effect1_dropShadow_473_256" result="effect2_dropShadow_473_256"/>
<feColorMatrix in="SourceAlpha" type="matrix" values="0 0 0 0 0 0 0 0 0 0 0 0 0 0 0 0 0 0 127 0" result="hardAlpha"/>
<feOffset dy="-0.991809"/>
<feGaussianBlur stdDeviation="0.359784"/>
<feComposite in2="hardAlpha" operator="out"/>
<feColorMatrix type="matrix" values="0 0 0 0 0.925 0 0 0 0 0.936947 0 0 0 0 1 0 0 0 0.12 0"/>
<feBlend mode="normal" in2="effect2_dropShadow_473_256" result="effect3_dropShadow_473_256"/>
<feBlend mode="normal" in="SourceGraphic" in2="effect3_dropShadow_473_256" result="shape"/>
</filter>
<filter id="filter6_ddd_473_256" x="37.0684" y="145.87" width="264.913" height="160.038" filterUnits="userSpaceOnUse" color-interpolation-filters="sRGB">
<feFlood flood-opacity="0" result="BackgroundImageFix"/>
<feColorMatrix in="SourceAlpha" type="matrix" values="0 0 0 0 0 0 0 0 0 0 0 0 0 0 0 0 0 0 127 0" result="hardAlpha"/>
<feOffset dy="-12.2271"/>
<feGaussianBlur stdDeviation="15.519"/>
<feColorMatrix type="matrix" values="0 0 0 0 0.404167 0 0 0 0 0.741154 0 0 0 0 1 0 0 0 0.4 0"/>
<feBlend mode="normal" in2="BackgroundImageFix" result="effect1_dropShadow_473_256"/>
<feColorMatrix in="SourceAlpha" type="matrix" values="0 0 0 0 0 0 0 0 0 0 0 0 0 0 0 0 0 0 127 0" result="hardAlpha"/>
<feOffset dy="1.74754"/>
<feGaussianBlur stdDeviation="1.74754"/>
<feColorMatrix type="matrix" values="0 0 0 0 1 0 0 0 0 1 0 0 0 0 1 0 0 0 0.25 0"/>
<feBlend mode="normal" in2="effect1_dropShadow_473_256" result="effect2_dropShadow_473_256"/>
<feColorMatrix in="SourceAlpha" type="matrix" values="0 0 0 0 0 0 0 0 0 0 0 0 0 0 0 0 0 0 127 0" result="hardAlpha"/>
<feOffset dy="-1.74754"/>
<feGaussianBlur stdDeviation="0.633929"/>
<feComposite in2="hardAlpha" operator="out"/>
<feColorMatrix type="matrix" values="0 0 0 0 0.925 0 0 0 0 0.936947 0 0 0 0 1 0 0 0 0.12 0"/>
<feBlend mode="normal" in2="effect2_dropShadow_473_256" result="effect3_dropShadow_473_256"/>
<feBlend mode="normal" in="SourceGraphic" in2="effect3_dropShadow_473_256" result="shape"/>
</filter>
<filter id="filter7_ddd_473_256" x="105.466" y="175.752" width="294.386" height="218.362" filterUnits="userSpaceOnUse" color-interpolation-filters="sRGB">
<feFlood flood-opacity="0" result="BackgroundImageFix"/>
<feColorMatrix in="SourceAlpha" type="matrix" values="0 0 0 0 0 0 0 0 0 0 0 0 0 0 0 0 0 0 127 0" result="hardAlpha"/>
<feOffset dy="-14.3759"/>
<feGaussianBlur stdDeviation="18.2463"/>
<feColorMatrix type="matrix" values="0 0 0 0 0.404167 0 0 0 0 0.741154 0 0 0 0 1 0 0 0 0.4 0"/>
<feBlend mode="normal" in2="BackgroundImageFix" result="effect1_dropShadow_473_256"/>
<feColorMatrix in="SourceAlpha" type="matrix" values="0 0 0 0 0 0 0 0 0 0 0 0 0 0 0 0 0 0 127 0" result="hardAlpha"/>
<feOffset dy="2.05465"/>
<feGaussianBlur stdDeviation="2.05465"/>
<feColorMatrix type="matrix" values="0 0 0 0 1 0 0 0 0 1 0 0 0 0 1 0 0 0 0.25 0"/>
<feBlend mode="normal" in2="effect1_dropShadow_473_256" result="effect2_dropShadow_473_256"/>
<feColorMatrix in="SourceAlpha" type="matrix" values="0 0 0 0 0 0 0 0 0 0 0 0 0 0 0 0 0 0 127 0" result="hardAlpha"/>
<feOffset dy="-2.05465"/>
<feGaussianBlur stdDeviation="0.745334"/>
<feComposite in2="hardAlpha" operator="out"/>
<feColorMatrix type="matrix" values="0 0 0 0 0.925 0 0 0 0 0.936947 0 0 0 0 1 0 0 0 0.12 0"/>
<feBlend mode="normal" in2="effect2_dropShadow_473_256" result="effect3_dropShadow_473_256"/>
<feBlend mode="normal" in="SourceGraphic" in2="effect3_dropShadow_473_256" result="shape"/>
</filter>
<radialGradient id="paint0_radial_473_256" cx="0" cy="0" r="1" gradientUnits="userSpaceOnUse" gradientTransform="translate(77.2967 73.3594) rotate(70.2405) scale(37.0347 61.8442)">
<stop stop-color="#68E9F1"/>
<stop offset="0.604" stop-color="#86AFFF"/>
<stop offset="1" stop-color="#9492FF"/>
</radialGradient>
<linearGradient id="paint1_linear_473_256" x1="74.9532" y1="36.9165" x2="74.9532" y2="77.81" gradientUnits="userSpaceOnUse">
<stop stop-color="#FD91FF"/>
<stop offset="0.344" stop-color="#A0A8FF"/>
<stop offset="0.947" stop-color="#C9F2FF"/>
</linearGradient>
<linearGradient id="paint2_linear_473_256" x1="29.4426" y1="40.2134" x2="123.352" y2="62.1434" gradientUnits="userSpaceOnUse">
<stop stop-color="white"/>
<stop offset="1" stop-color="white" stop-opacity="0"/>
</linearGradient>
<radialGradient id="paint3_radial_473_256" cx="0" cy="0" r="1" gradientUnits="userSpaceOnUse" gradientTransform="translate(114.371 127.136) rotate(8.24051) scale(40.9387 68.3634)">
<stop stop-color="#68E9F1"/>
<stop offset="0.604" stop-color="#86AFFF"/>
<stop offset="1" stop-color="#9492FF"/>
</radialGradient>
<linearGradient id="paint4_linear_473_256" x1="77.5857" y1="110.511" x2="117.499" y2="131.733" gradientUnits="userSpaceOnUse">
<stop stop-color="#FD91FF"/>
<stop offset="0.344" stop-color="#A0A8FF"/>
<stop offset="0.947" stop-color="#C9F2FF"/>
</linearGradient>
<linearGradient id="paint5_linear_473_256" x1="57.1853" y1="156.641" x2="127.325" y2="76.3641" gradientUnits="userSpaceOnUse">
<stop stop-color="white"/>
<stop offset="1" stop-color="white" stop-opacity="0"/>
</linearGradient>
<radialGradient id="paint6_radial_473_256" cx="0" cy="0" r="1" gradientUnits="userSpaceOnUse" gradientTransform="translate(108.56 198.425) rotate(116.241) scale(40.9386 68.3633)">
<stop stop-color="#68E9F1"/>
<stop offset="0.604" stop-color="#86AFFF"/>
<stop offset="1" stop-color="#9492FF"/>
</radialGradient>
<linearGradient id="paint7_linear_473_256" x1="135.739" y1="168.578" x2="103.221" y2="199.979" gradientUnits="userSpaceOnUse">
<stop stop-color="#FD91FF"/>
<stop offset="0.344" stop-color="#A0A8FF"/>
<stop offset="0.947" stop-color="#C9F2FF"/>
</linearGradient>
<linearGradient id="paint8_linear_473_256" x1="98.1703" y1="134.921" x2="152.844" y2="226.434" gradientUnits="userSpaceOnUse">
<stop stop-color="white"/>
<stop offset="1" stop-color="white" stop-opacity="0"/>
</linearGradient>
<radialGradient id="paint9_radial_473_256" cx="0" cy="0" r="1" gradientUnits="userSpaceOnUse" gradientTransform="translate(182.999 266.576) rotate(53.2405) scale(72.1326 120.454)">
<stop stop-color="#68E9F1"/>
<stop offset="0.604" stop-color="#86AFFF"/>
<stop offset="1" stop-color="#9492FF"/>
</radialGradient>
<linearGradient id="paint10_linear_473_256" x1="157.882" y1="200.033" x2="181.169" y2="276.201" gradientUnits="userSpaceOnUse">
<stop stop-color="#FD91FF"/>
<stop offset="0.344" stop-color="#A0A8FF"/>
<stop offset="0.947" stop-color="#C9F2FF"/>
</linearGradient>
<linearGradient id="paint11_linear_473_256" x1="74.9913" y1="232.089" x2="262.394" y2="219.459" gradientUnits="userSpaceOnUse">
<stop stop-color="white"/>
<stop offset="1" stop-color="white" stop-opacity="0"/>
</linearGradient>
<radialGradient id="paint12_radial_473_256" cx="0" cy="0" r="1" gradientUnits="userSpaceOnUse" gradientTransform="translate(239.593 333.949) rotate(99.2405) scale(84.8091 141.622)">
<stop stop-color="#68E9F1"/>
<stop offset="0.604" stop-color="#86AFFF"/>
<stop offset="1" stop-color="#9492FF"/>
</radialGradient>
<linearGradient id="paint13_linear_473_256" x1="275.358" y1="258.357" x2="229.958" y2="340.261" gradientUnits="userSpaceOnUse">
<stop stop-color="#FD91FF"/>
<stop offset="0.344" stop-color="#A0A8FF"/>
<stop offset="0.947" stop-color="#C9F2FF"/>
</linearGradient>
<linearGradient id="paint14_linear_473_256" x1="180.547" y1="214.434" x2="344.288" y2="362.615" gradientUnits="userSpaceOnUse">
<stop stop-color="white"/>
<stop offset="1" stop-color="white" stop-opacity="0"/>
</linearGradient>
<clipPath id="clip0_473_256">
<rect width="140.041" height="76.7812" fill="white" transform="translate(4.9325 14.7031)"/>
</clipPath>
<clipPath id="clip1_473_256">
<rect width="154.803" height="84.875" fill="white" transform="translate(19.567 167.325) rotate(-62)"/>
</clipPath>
<clipPath id="clip2_473_256">
<rect width="154.803" height="84.8749" fill="white" transform="translate(99.6343 95.8423) rotate(46)"/>
</clipPath>
<clipPath id="clip3_473_256">
<rect width="272.759" height="149.547" fill="white" transform="translate(14.812 198.531) rotate(-17)"/>
</clipPath>
<clipPath id="clip4_473_256">
<rect width="320.693" height="175.828" fill="white" transform="translate(159.778 136.129) rotate(29)"/>
</clipPath>
</defs>
</svg>
