<svg width="335" height="268" viewBox="0 0 335 268" fill="none" xmlns="http://www.w3.org/2000/svg">
<g clip-path="url(#clip0_473_1185)">
<path d="M162.382 198.271C210.543 198.271 249.585 183.511 249.585 165.305V143.564H75.1787V165.305C75.1787 183.511 114.221 198.271 162.382 198.271Z" fill="url(#paint0_radial_473_1185)"/>
<g filter="url(#filter0_ddd_473_1185)">
<path d="M162.382 176.531C210.543 176.531 249.585 161.771 249.585 143.563C249.585 125.356 210.543 110.596 162.382 110.596C114.221 110.596 75.1787 125.356 75.1787 143.563C75.1787 161.771 114.221 176.531 162.382 176.531Z" fill="url(#paint1_linear_473_1185)"/>
</g>
<path opacity="0.5" d="M234.982 143.562C234.982 147.079 233.093 150.521 229.475 153.743C225.859 156.965 220.582 159.902 213.994 162.385C200.823 167.348 182.576 170.433 162.382 170.433C142.188 170.433 123.941 167.348 110.77 162.385C104.182 159.902 98.9043 156.965 95.2877 153.743C91.6703 150.521 89.7822 147.079 89.7822 143.562C89.7822 140.046 91.6703 136.603 95.2877 133.381C98.9043 130.159 104.182 127.222 110.77 124.739C123.941 119.776 142.188 116.691 162.382 116.691C182.576 116.691 200.823 119.777 213.994 124.741C220.582 127.223 225.859 130.16 229.475 133.381C233.093 136.605 234.982 140.046 234.982 143.563V143.562Z" stroke="url(#paint2_linear_473_1185)" stroke-width="1.5572"/>
<g style="mix-blend-mode:soft-light">
<path fill-rule="evenodd" clip-rule="evenodd" d="M173.729 128.689C173.443 128.519 173.249 128.497 173.217 128.493C173.184 128.49 172.986 128.472 172.513 128.566C172.028 128.662 171.398 128.848 170.642 129.158C169.132 129.776 167.404 130.766 165.585 132.085C161.961 134.713 158.169 138.502 155.103 142.827C152.038 147.152 150.311 151.151 149.974 154.111C149.805 155.597 149.992 156.782 150.481 157.602C150.727 158.013 151.027 158.294 151.32 158.468C151.606 158.638 151.8 158.661 151.832 158.664C151.865 158.667 152.063 158.685 152.535 158.592C153.02 158.495 153.65 158.309 154.407 157.999C155.917 157.382 157.645 156.391 159.463 155.073C163.087 152.445 166.879 148.655 169.945 144.33C173.01 140.006 174.738 136.007 175.075 133.047C175.244 131.56 175.057 130.376 174.567 129.555C174.321 129.144 174.022 128.864 173.729 128.689ZM171.812 144.519C177.993 135.799 178.847 128.307 173.716 127.787C168.587 127.268 159.417 133.916 153.236 142.638C147.055 151.359 146.202 158.85 151.332 159.37C156.461 159.89 165.631 153.241 171.812 144.519Z" fill="white"/>
<path fill-rule="evenodd" clip-rule="evenodd" d="M202.257 139.804C202.505 139.625 202.459 139.551 202.45 139.539C202.442 139.527 202.382 139.454 201.932 139.345C201.469 139.235 200.726 139.122 199.638 139.029C197.466 138.843 194.332 138.773 190.398 138.837C182.563 138.964 171.98 139.617 160.533 140.776C149.087 141.934 139.058 143.366 132.104 144.736C128.612 145.423 125.992 146.076 124.357 146.646C123.538 146.932 123.045 147.17 122.791 147.353C122.543 147.532 122.589 147.606 122.598 147.618C122.606 147.631 122.665 147.704 123.116 147.811C123.579 147.923 124.322 148.035 125.41 148.128C127.582 148.313 130.716 148.384 134.65 148.32C142.485 148.193 153.067 147.54 164.514 146.382C175.961 145.224 185.99 143.79 192.944 142.422C196.435 141.734 199.055 141.082 200.691 140.511C201.51 140.225 202.003 139.987 202.257 139.804ZM165.014 147.088C188.096 144.752 205.692 141.287 204.317 139.349C202.941 137.411 183.115 137.734 160.034 140.07C136.952 142.405 119.356 145.869 120.731 147.807C122.106 149.746 141.933 149.424 165.014 147.088Z" fill="white"/>
<path fill-rule="evenodd" clip-rule="evenodd" d="M191.038 154.7C191.57 154.692 191.717 154.639 191.74 154.631C191.764 154.621 191.902 154.565 191.924 154.364C191.947 154.157 191.835 153.858 191.503 153.454C190.842 152.651 189.436 151.59 187.323 150.334C183.114 147.832 176.327 144.694 167.951 141.525C159.574 138.357 151.277 135.789 144.664 134.197C141.343 133.398 138.538 132.867 136.413 132.617C135.349 132.491 134.556 132.449 134.009 132.457C133.478 132.465 133.331 132.518 133.307 132.527C133.284 132.535 133.145 132.591 133.123 132.793C133.101 133 133.213 133.3 133.545 133.702C134.206 134.506 135.611 135.568 137.724 136.823C141.933 139.325 148.72 142.464 157.097 145.632C165.473 148.801 173.77 151.368 180.384 152.959C183.704 153.759 186.51 154.291 188.634 154.541C189.699 154.666 190.491 154.709 191.038 154.7ZM155.729 146.149C172.62 152.538 189.355 156.566 193.108 155.147C196.86 153.728 186.209 147.398 169.318 141.008C152.427 134.619 135.692 130.591 131.94 132.01C128.187 133.43 138.838 139.76 155.729 146.149Z" fill="white"/>
<path fill-rule="evenodd" clip-rule="evenodd" d="M138.961 136.453C140.584 136.616 141.546 137.247 141.111 137.861C140.676 138.475 139.008 138.838 137.387 138.674C135.764 138.51 134.802 137.88 135.236 137.265C135.671 136.652 137.339 136.288 138.961 136.453ZM188.341 137.377C189.964 137.541 190.927 138.172 190.492 138.786C190.057 139.399 188.389 139.763 186.766 139.599C185.143 139.435 184.18 138.804 184.615 138.19C185.049 137.576 186.718 137.212 188.341 137.377ZM150.077 152.19C151.7 152.355 152.664 152.985 152.229 153.599C151.795 154.212 150.126 154.576 148.503 154.411C146.88 154.247 145.917 153.617 146.351 153.003C146.786 152.39 148.454 152.026 150.077 152.19ZM163.699 141.673C166.448 141.952 168.078 143.02 167.342 144.058C166.606 145.097 163.781 145.713 161.033 145.435C158.286 145.157 156.655 144.089 157.391 143.05C158.128 142.012 160.952 141.395 163.699 141.673Z" fill="white"/>
</g>
</g>
<g clip-path="url(#clip1_473_1185)">
<path d="M221.148 250.176C269.309 250.176 308.351 235.416 308.351 217.21V195.47H133.945V217.21C133.945 235.416 172.987 250.176 221.148 250.176Z" fill="url(#paint3_radial_473_1185)"/>
<g filter="url(#filter1_ddd_473_1185)">
<path d="M221.148 228.436C269.309 228.436 308.351 213.677 308.351 195.469C308.351 177.262 269.309 162.502 221.148 162.502C172.987 162.502 133.945 177.262 133.945 195.469C133.945 213.677 172.987 228.436 221.148 228.436Z" fill="url(#paint4_linear_473_1185)"/>
</g>
<path opacity="0.5" d="M293.747 195.469C293.747 198.985 291.859 202.427 288.241 205.649C284.625 208.871 279.347 211.808 272.76 214.291C259.589 219.254 241.342 222.339 221.148 222.339C200.955 222.339 182.707 219.254 169.537 214.291C162.948 211.808 157.671 208.871 154.054 205.649C150.437 202.427 148.549 198.985 148.549 195.469C148.549 191.952 150.437 188.509 154.054 185.287C157.671 182.065 162.948 179.128 169.537 176.645C182.707 171.682 200.955 168.598 221.148 168.598C241.342 168.598 259.589 171.683 272.76 176.647C279.347 179.129 284.625 182.066 288.241 185.288C291.859 188.511 293.747 191.952 293.747 195.469V195.469Z" stroke="url(#paint5_linear_473_1185)" stroke-width="1.55719"/>
<g style="mix-blend-mode:soft-light">
<path fill-rule="evenodd" clip-rule="evenodd" d="M232.494 180.594C232.209 180.424 232.015 180.402 231.982 180.399C231.949 180.396 231.752 180.378 231.279 180.471C230.794 180.568 230.164 180.754 229.407 181.063C227.897 181.681 226.17 182.671 224.35 183.99C220.727 186.618 216.935 190.408 213.869 194.732C210.803 199.057 209.077 203.056 208.739 206.016C208.57 207.502 208.757 208.687 209.247 209.507C209.493 209.918 209.793 210.199 210.086 210.373C210.371 210.544 210.565 210.566 210.598 210.569C210.631 210.572 210.828 210.59 211.3 210.497C211.785 210.4 212.416 210.214 213.173 209.904C214.682 209.287 216.41 208.297 218.229 206.978C221.852 204.35 225.645 200.56 228.71 196.235C231.776 191.911 233.503 187.912 233.84 184.952C234.009 183.465 233.823 182.281 233.332 181.461C233.087 181.05 232.787 180.769 232.494 180.594ZM230.577 196.425C236.759 187.704 237.612 180.213 232.482 179.693C227.352 179.173 218.183 185.822 212.002 194.543C205.82 203.264 204.968 210.755 210.097 211.275C215.227 211.795 224.396 205.146 230.577 196.425Z" fill="white"/>
<path fill-rule="evenodd" clip-rule="evenodd" d="M261.022 191.709C261.27 191.53 261.224 191.456 261.215 191.445C261.207 191.432 261.148 191.359 260.697 191.251C260.234 191.14 259.491 191.027 258.403 190.934C256.232 190.749 253.097 190.678 249.163 190.742C241.328 190.869 230.746 191.522 219.299 192.681C207.853 193.839 197.824 195.271 190.869 196.641C187.378 197.328 184.757 197.981 183.122 198.552C182.303 198.837 181.81 199.076 181.556 199.259C181.309 199.438 181.355 199.512 181.363 199.523C181.372 199.536 181.431 199.609 181.882 199.716C182.344 199.828 183.088 199.941 184.176 200.033C186.348 200.219 189.482 200.289 193.415 200.226C201.25 200.098 211.833 199.445 223.28 198.287C234.726 197.129 244.755 195.696 251.709 194.327C255.201 193.639 257.821 192.987 259.456 192.416C260.276 192.131 260.768 191.892 261.022 191.709ZM223.78 198.993C246.861 196.657 264.457 193.193 263.082 191.255C261.707 189.317 241.88 189.639 218.799 191.975C195.718 194.311 178.121 197.775 179.496 199.712C180.872 201.651 200.698 201.329 223.78 198.993Z" fill="white"/>
<path fill-rule="evenodd" clip-rule="evenodd" d="M249.803 206.605C250.335 206.597 250.482 206.545 250.506 206.536C250.529 206.527 250.668 206.471 250.689 206.269C250.712 206.063 250.6 205.763 250.268 205.36C249.607 204.556 248.202 203.495 246.089 202.239C241.88 199.737 235.092 196.599 226.716 193.431C218.339 190.262 210.043 187.695 203.429 186.103C200.109 185.304 197.303 184.772 195.179 184.522C194.114 184.397 193.322 184.354 192.775 184.362C192.243 184.37 192.096 184.423 192.073 184.432C192.049 184.44 191.911 184.496 191.889 184.698C191.866 184.905 191.979 185.205 192.31 185.607C192.971 186.412 194.377 187.473 196.49 188.729C200.699 191.23 207.486 194.369 215.862 197.537C224.239 200.706 232.536 203.273 239.149 204.864C242.47 205.664 245.275 206.196 247.4 206.446C248.464 206.571 249.257 206.614 249.803 206.605ZM214.495 198.054C231.386 204.443 248.121 208.472 251.873 207.052C255.626 205.633 244.974 199.303 228.084 192.914C211.193 186.525 194.458 182.496 190.706 183.915C186.953 185.335 197.604 191.665 214.495 198.054Z" fill="white"/>
<path fill-rule="evenodd" clip-rule="evenodd" d="M197.727 188.358C199.349 188.521 200.311 189.152 199.877 189.766C199.442 190.38 197.774 190.743 196.152 190.579C194.53 190.416 193.567 189.785 194.002 189.171C194.437 188.557 196.105 188.194 197.727 188.358ZM247.106 189.282C248.729 189.446 249.692 190.077 249.257 190.691C248.823 191.304 247.154 191.668 245.532 191.504C243.908 191.34 242.945 190.709 243.38 190.095C243.815 189.481 245.483 189.118 247.106 189.282ZM208.843 204.096C210.466 204.26 211.429 204.891 210.995 205.504C210.56 206.117 208.892 206.481 207.269 206.316C205.646 206.152 204.683 205.522 205.117 204.908C205.551 204.295 207.22 203.931 208.843 204.096ZM222.465 193.578C225.213 193.857 226.844 194.925 226.107 195.963C225.371 197.003 222.547 197.618 219.799 197.34C217.051 197.062 215.42 195.994 216.157 194.956C216.893 193.917 219.717 193.3 222.465 193.578Z" fill="white"/>
</g>
</g>
<g clip-path="url(#clip2_473_1185)">
<path d="M140.727 219.848C191.526 219.848 232.706 204.279 232.706 185.075V162.145H48.7471V185.075C48.7471 204.279 89.9277 219.848 140.727 219.848Z" fill="url(#paint6_radial_473_1185)"/>
<g filter="url(#filter2_ddd_473_1185)">
<path d="M140.727 196.917C191.526 196.917 232.706 181.348 232.706 162.143C232.706 142.939 191.526 127.37 140.727 127.37C89.9278 127.37 48.7471 142.939 48.7471 162.143C48.7471 181.348 89.9278 196.917 140.727 196.917Z" fill="url(#paint7_linear_473_1185)"/>
</g>
<path opacity="0.5" d="M217.303 162.143C217.303 165.851 215.311 169.482 211.495 172.881C207.681 176.28 202.114 179.377 195.166 181.996C181.273 187.231 162.027 190.486 140.727 190.486C119.427 190.486 100.18 187.231 86.2879 181.996C79.3385 179.377 73.7721 176.28 69.9574 172.881C66.1419 169.482 64.1504 165.851 64.1504 162.143C64.1504 158.433 66.1419 154.802 69.9574 151.403C73.7721 148.005 79.3385 144.907 86.2879 142.288C100.18 137.054 119.427 133.8 140.727 133.8C162.027 133.8 181.273 137.054 195.166 142.29C202.114 144.908 207.681 148.006 211.495 151.404C215.311 154.804 217.303 158.434 217.303 162.143V162.143Z" stroke="url(#paint8_linear_473_1185)" stroke-width="1.64249"/>
<g style="mix-blend-mode:soft-light">
<path fill-rule="evenodd" clip-rule="evenodd" d="M152.694 146.454C152.393 146.275 152.188 146.251 152.154 146.248C152.119 146.244 151.91 146.225 151.412 146.324C150.9 146.426 150.236 146.622 149.438 146.948C147.845 147.6 146.023 148.645 144.104 150.036C140.282 152.808 136.282 156.805 133.048 161.366C129.815 165.928 127.993 170.146 127.638 173.268C127.459 174.836 127.657 176.085 128.173 176.951C128.433 177.384 128.749 177.68 129.058 177.864C129.359 178.044 129.563 178.068 129.598 178.071C129.632 178.074 129.841 178.093 130.339 177.994C130.85 177.893 131.516 177.696 132.314 177.37C133.906 176.718 135.729 175.674 137.647 174.282C141.469 171.511 145.469 167.514 148.703 162.952C151.936 158.391 153.758 154.173 154.114 151.05C154.292 149.482 154.095 148.233 153.578 147.368C153.319 146.934 153.003 146.638 152.694 146.454ZM150.672 163.151C157.192 153.953 158.092 146.051 152.681 145.503C147.27 144.955 137.599 151.968 131.079 161.167C124.559 170.365 123.66 178.267 129.07 178.816C134.48 179.364 144.152 172.351 150.672 163.151Z" fill="white"/>
<path fill-rule="evenodd" clip-rule="evenodd" d="M182.784 158.178C183.046 157.989 182.997 157.911 182.988 157.898C182.979 157.885 182.917 157.808 182.441 157.694C181.953 157.577 181.17 157.458 180.022 157.36C177.731 157.164 174.425 157.09 170.276 157.158C162.012 157.291 150.849 157.981 138.775 159.203C126.702 160.424 116.124 161.935 108.788 163.379C105.106 164.105 102.342 164.793 100.617 165.395C99.753 165.696 99.2332 165.947 98.9654 166.14C98.7043 166.329 98.7527 166.407 98.7618 166.42C98.7708 166.433 98.8332 166.51 99.3087 166.623C99.7965 166.741 100.581 166.86 101.728 166.958C104.019 167.153 107.325 167.228 111.474 167.16C119.738 167.026 130.9 166.338 142.974 165.116C155.048 163.894 165.626 162.382 172.961 160.939C176.644 160.213 179.407 159.525 181.133 158.923C181.997 158.622 182.517 158.371 182.784 158.178ZM143.502 165.86C167.848 163.397 186.408 159.742 184.957 157.698C183.506 155.654 162.594 155.994 138.248 158.458C113.902 160.921 95.3421 164.575 96.7924 166.619C98.2436 168.664 119.156 168.324 143.502 165.86Z" fill="white"/>
<path fill-rule="evenodd" clip-rule="evenodd" d="M170.951 173.89C171.512 173.881 171.667 173.826 171.692 173.817C171.716 173.807 171.863 173.748 171.886 173.535C171.909 173.318 171.791 173.002 171.441 172.576C170.744 171.729 169.262 170.609 167.033 169.285C162.593 166.646 155.434 163.336 146.599 159.994C137.764 156.651 129.012 153.944 122.037 152.264C118.534 151.422 115.575 150.861 113.334 150.597C112.211 150.465 111.375 150.42 110.799 150.429C110.238 150.437 110.083 150.493 110.058 150.503C110.033 150.511 109.887 150.57 109.864 150.783C109.84 151.001 109.959 151.317 110.309 151.742C111.006 152.59 112.488 153.71 114.717 155.034C119.157 157.673 126.315 160.983 135.15 164.325C143.986 167.668 152.737 170.375 159.713 172.054C163.216 172.897 166.175 173.458 168.416 173.722C169.538 173.854 170.375 173.899 170.951 173.89ZM133.708 164.87C151.524 171.61 169.176 175.859 173.134 174.362C177.092 172.864 165.858 166.188 148.042 159.449C130.225 152.709 112.574 148.46 108.616 149.957C104.658 151.455 115.892 158.131 133.708 164.87Z" fill="white"/>
<path fill-rule="evenodd" clip-rule="evenodd" d="M116.021 154.642C117.733 154.815 118.748 155.48 118.29 156.128C117.83 156.775 116.071 157.159 114.361 156.985C112.649 156.813 111.634 156.148 112.092 155.5C112.552 154.852 114.311 154.469 116.021 154.642ZM168.106 155.617C169.818 155.79 170.834 156.456 170.375 157.103C169.916 157.75 168.156 158.134 166.445 157.961C164.733 157.788 163.717 157.122 164.176 156.474C164.634 155.827 166.394 155.444 168.106 155.617ZM127.746 171.242C129.459 171.415 130.474 172.081 130.016 172.728C129.558 173.374 127.798 173.758 126.086 173.584C124.374 173.411 123.358 172.747 123.817 172.099C124.275 171.452 126.035 171.069 127.746 171.242ZM142.115 160.149C145.014 160.443 146.733 161.569 145.957 162.664C145.18 163.761 142.201 164.41 139.303 164.117C136.405 163.823 134.684 162.697 135.461 161.601C136.238 160.506 139.217 159.855 142.115 160.149Z" fill="white"/>
</g>
</g>
<defs>
<filter id="filter0_ddd_473_1185" x="49.4849" y="74.7801" width="225.794" height="117.322" filterUnits="userSpaceOnUse" color-interpolation-filters="sRGB">
<feFlood flood-opacity="0" result="BackgroundImageFix"/>
<feColorMatrix in="SourceAlpha" type="matrix" values="0 0 0 0 0 0 0 0 0 0 0 0 0 0 0 0 0 0 127 0" result="hardAlpha"/>
<feOffset dy="-10.1218"/>
<feGaussianBlur stdDeviation="12.8469"/>
<feColorMatrix type="matrix" values="0 0 0 0 0.404167 0 0 0 0 0.741154 0 0 0 0 1 0 0 0 0.4 0"/>
<feBlend mode="normal" in2="BackgroundImageFix" result="effect1_dropShadow_473_1185"/>
<feColorMatrix in="SourceAlpha" type="matrix" values="0 0 0 0 0 0 0 0 0 0 0 0 0 0 0 0 0 0 127 0" result="hardAlpha"/>
<feOffset dy="1.44664"/>
<feGaussianBlur stdDeviation="1.44664"/>
<feColorMatrix type="matrix" values="0 0 0 0 1 0 0 0 0 1 0 0 0 0 1 0 0 0 0.25 0"/>
<feBlend mode="normal" in2="effect1_dropShadow_473_1185" result="effect2_dropShadow_473_1185"/>
<feColorMatrix in="SourceAlpha" type="matrix" values="0 0 0 0 0 0 0 0 0 0 0 0 0 0 0 0 0 0 127 0" result="hardAlpha"/>
<feOffset dy="-1.44664"/>
<feGaussianBlur stdDeviation="0.524776"/>
<feComposite in2="hardAlpha" operator="out"/>
<feColorMatrix type="matrix" values="0 0 0 0 0.925 0 0 0 0 0.936947 0 0 0 0 1 0 0 0 0.12 0"/>
<feBlend mode="normal" in2="effect2_dropShadow_473_1185" result="effect3_dropShadow_473_1185"/>
<feBlend mode="normal" in="SourceGraphic" in2="effect3_dropShadow_473_1185" result="shape"/>
</filter>
<filter id="filter1_ddd_473_1185" x="108.252" y="126.687" width="225.793" height="117.322" filterUnits="userSpaceOnUse" color-interpolation-filters="sRGB">
<feFlood flood-opacity="0" result="BackgroundImageFix"/>
<feColorMatrix in="SourceAlpha" type="matrix" values="0 0 0 0 0 0 0 0 0 0 0 0 0 0 0 0 0 0 127 0" result="hardAlpha"/>
<feOffset dy="-10.1217"/>
<feGaussianBlur stdDeviation="12.8468"/>
<feColorMatrix type="matrix" values="0 0 0 0 0.404167 0 0 0 0 0.741154 0 0 0 0 1 0 0 0 0.4 0"/>
<feBlend mode="normal" in2="BackgroundImageFix" result="effect1_dropShadow_473_1185"/>
<feColorMatrix in="SourceAlpha" type="matrix" values="0 0 0 0 0 0 0 0 0 0 0 0 0 0 0 0 0 0 127 0" result="hardAlpha"/>
<feOffset dy="1.44663"/>
<feGaussianBlur stdDeviation="1.44663"/>
<feColorMatrix type="matrix" values="0 0 0 0 1 0 0 0 0 1 0 0 0 0 1 0 0 0 0.25 0"/>
<feBlend mode="normal" in2="effect1_dropShadow_473_1185" result="effect2_dropShadow_473_1185"/>
<feColorMatrix in="SourceAlpha" type="matrix" values="0 0 0 0 0 0 0 0 0 0 0 0 0 0 0 0 0 0 127 0" result="hardAlpha"/>
<feOffset dy="-1.44663"/>
<feGaussianBlur stdDeviation="0.524773"/>
<feComposite in2="hardAlpha" operator="out"/>
<feColorMatrix type="matrix" values="0 0 0 0 0.925 0 0 0 0 0.936947 0 0 0 0 1 0 0 0 0.12 0"/>
<feBlend mode="normal" in2="effect2_dropShadow_473_1185" result="effect3_dropShadow_473_1185"/>
<feBlend mode="normal" in="SourceGraphic" in2="effect3_dropShadow_473_1185" result="shape"/>
</filter>
<filter id="filter2_ddd_473_1185" x="21.6459" y="89.5928" width="238.161" height="123.749" filterUnits="userSpaceOnUse" color-interpolation-filters="sRGB">
<feFlood flood-opacity="0" result="BackgroundImageFix"/>
<feColorMatrix in="SourceAlpha" type="matrix" values="0 0 0 0 0 0 0 0 0 0 0 0 0 0 0 0 0 0 127 0" result="hardAlpha"/>
<feOffset dy="-10.6762"/>
<feGaussianBlur stdDeviation="13.5506"/>
<feColorMatrix type="matrix" values="0 0 0 0 0.404167 0 0 0 0 0.741154 0 0 0 0 1 0 0 0 0.4 0"/>
<feBlend mode="normal" in2="BackgroundImageFix" result="effect1_dropShadow_473_1185"/>
<feColorMatrix in="SourceAlpha" type="matrix" values="0 0 0 0 0 0 0 0 0 0 0 0 0 0 0 0 0 0 127 0" result="hardAlpha"/>
<feOffset dy="1.52588"/>
<feGaussianBlur stdDeviation="1.52588"/>
<feColorMatrix type="matrix" values="0 0 0 0 1 0 0 0 0 1 0 0 0 0 1 0 0 0 0.25 0"/>
<feBlend mode="normal" in2="effect1_dropShadow_473_1185" result="effect2_dropShadow_473_1185"/>
<feColorMatrix in="SourceAlpha" type="matrix" values="0 0 0 0 0 0 0 0 0 0 0 0 0 0 0 0 0 0 127 0" result="hardAlpha"/>
<feOffset dy="-1.52588"/>
<feGaussianBlur stdDeviation="0.55352"/>
<feComposite in2="hardAlpha" operator="out"/>
<feColorMatrix type="matrix" values="0 0 0 0 0.925 0 0 0 0 0.936947 0 0 0 0 1 0 0 0 0.12 0"/>
<feBlend mode="normal" in2="effect2_dropShadow_473_1185" result="effect3_dropShadow_473_1185"/>
<feBlend mode="normal" in="SourceGraphic" in2="effect3_dropShadow_473_1185" result="shape"/>
</filter>
<radialGradient id="paint0_radial_473_1185" cx="0" cy="0" r="1" gradientUnits="userSpaceOnUse" gradientTransform="translate(166.16 169.355) rotate(70.2405) scale(59.7125 99.7137)">
<stop stop-color="#68E9F1"/>
<stop offset="0.604" stop-color="#86AFFF"/>
<stop offset="1" stop-color="#9492FF"/>
</radialGradient>
<linearGradient id="paint1_linear_473_1185" x1="162.382" y1="110.596" x2="162.382" y2="176.531" gradientUnits="userSpaceOnUse">
<stop stop-color="#FD91FF"/>
<stop offset="0.344" stop-color="#A0A8FF"/>
<stop offset="0.947" stop-color="#C9F2FF"/>
</linearGradient>
<linearGradient id="paint2_linear_473_1185" x1="89.0036" y1="115.912" x2="240.417" y2="151.271" gradientUnits="userSpaceOnUse">
<stop stop-color="white"/>
<stop offset="1" stop-color="white" stop-opacity="0"/>
</linearGradient>
<radialGradient id="paint3_radial_473_1185" cx="0" cy="0" r="1" gradientUnits="userSpaceOnUse" gradientTransform="translate(224.926 221.26) rotate(70.2405) scale(59.7122 99.7131)">
<stop stop-color="#68E9F1"/>
<stop offset="0.604" stop-color="#86AFFF"/>
<stop offset="1" stop-color="#9492FF"/>
</radialGradient>
<linearGradient id="paint4_linear_473_1185" x1="221.148" y1="162.503" x2="221.148" y2="228.436" gradientUnits="userSpaceOnUse">
<stop stop-color="#FD91FF"/>
<stop offset="0.344" stop-color="#A0A8FF"/>
<stop offset="0.947" stop-color="#C9F2FF"/>
</linearGradient>
<linearGradient id="paint5_linear_473_1185" x1="147.77" y1="167.818" x2="299.183" y2="203.177" gradientUnits="userSpaceOnUse">
<stop stop-color="white"/>
<stop offset="1" stop-color="white" stop-opacity="0"/>
</linearGradient>
<radialGradient id="paint6_radial_473_1185" cx="0" cy="0" r="1" gradientUnits="userSpaceOnUse" gradientTransform="translate(144.712 189.348) rotate(70.2405) scale(62.9832 105.175)">
<stop stop-color="#68E9F1"/>
<stop offset="0.604" stop-color="#86AFFF"/>
<stop offset="1" stop-color="#9492FF"/>
</radialGradient>
<linearGradient id="paint7_linear_473_1185" x1="140.727" y1="127.371" x2="140.727" y2="196.917" gradientUnits="userSpaceOnUse">
<stop stop-color="#FD91FF"/>
<stop offset="0.344" stop-color="#A0A8FF"/>
<stop offset="0.947" stop-color="#C9F2FF"/>
</linearGradient>
<linearGradient id="paint8_linear_473_1185" x1="63.3291" y1="132.978" x2="223.036" y2="170.273" gradientUnits="userSpaceOnUse">
<stop stop-color="white"/>
<stop offset="1" stop-color="white" stop-opacity="0"/>
</linearGradient>
<clipPath id="clip0_473_1185">
<rect width="225.794" height="123.797" fill="white" transform="translate(49.4854 74.7812)"/>
</clipPath>
<clipPath id="clip1_473_1185">
<rect width="225.793" height="123.797" fill="white" transform="translate(108.252 126.688)"/>
</clipPath>
<clipPath id="clip2_473_1185">
<rect width="238.162" height="130.578" fill="white" transform="translate(21.6455 89.5938)"/>
</clipPath>
</defs>
</svg>
