<svg width="421" height="291" viewBox="0 0 421 291" fill="none" xmlns="http://www.w3.org/2000/svg">
<g clip-path="url(#clip0_473_723)">
<path d="M327.239 213.839C379.005 213.839 420.969 198.058 420.969 178.591C420.969 159.124 379.005 143.343 327.239 143.343C275.473 143.343 233.509 159.124 233.509 178.591C233.509 198.058 275.473 213.839 327.239 213.839Z" fill="url(#paint0_linear_473_723)"/>
<path fill-rule="evenodd" clip-rule="evenodd" d="M311.479 209.419C362.786 209.419 404.379 193.697 404.379 174.303V151.145H381.318C364.292 143.814 339.315 139.187 311.479 139.187C283.643 139.187 258.666 143.814 241.639 151.145H218.578L218.578 174.303C218.578 193.697 260.171 209.419 311.479 209.419Z" fill="url(#paint1_radial_473_723)"/>
<path d="M311.479 186.262C362.786 186.262 404.379 170.54 404.379 151.145C404.379 131.751 362.786 116.029 311.479 116.029C260.171 116.029 218.578 131.751 218.578 151.145C218.578 170.54 260.171 186.262 311.479 186.262Z" fill="url(#paint2_radial_473_723)"/>
</g>
<g clip-path="url(#clip1_473_723)">
<path fill-rule="evenodd" clip-rule="evenodd" d="M291.244 181.154C342.552 181.154 384.145 165.432 384.145 146.037V122.88H361.084C344.058 115.549 319.081 110.921 291.244 110.921C263.408 110.921 238.431 115.549 221.405 122.88H198.344L198.344 146.037C198.344 165.432 239.937 181.154 291.244 181.154Z" fill="url(#paint3_radial_473_723)"/>
<path d="M291.244 157.996C342.552 157.996 384.145 142.274 384.145 122.88C384.145 103.485 342.552 87.7632 291.244 87.7632C239.937 87.7632 198.344 103.485 198.344 122.88C198.344 142.274 239.937 157.996 291.244 157.996Z" fill="url(#paint4_radial_473_723)"/>
</g>
<g clip-path="url(#clip2_473_723)">
<path fill-rule="evenodd" clip-rule="evenodd" d="M311.479 155.466C362.786 155.466 404.379 139.744 404.379 120.35V97.1923H381.318C364.292 89.8611 339.315 85.2334 311.479 85.2334C283.643 85.2334 258.666 89.8611 241.639 97.1923H218.578L218.578 120.35C218.578 139.744 260.171 155.466 311.479 155.466Z" fill="url(#paint5_radial_473_723)"/>
<path d="M311.479 132.309C362.786 132.309 404.379 116.587 404.379 97.1922C404.379 77.7979 362.786 62.0757 311.479 62.0757C260.171 62.0757 218.578 77.7979 218.578 97.1922C218.578 116.587 260.171 132.309 311.479 132.309Z" fill="url(#paint6_radial_473_723)"/>
</g>
<g clip-path="url(#clip3_473_723)">
<path fill-rule="evenodd" clip-rule="evenodd" d="M291.244 129.763C342.552 129.763 384.145 114.041 384.145 94.6467V71.4892H361.084C344.058 64.158 319.081 59.5303 291.244 59.5303C263.408 59.5303 238.431 64.158 221.405 71.4892H198.344L198.344 94.6467C198.344 114.041 239.937 129.763 291.244 129.763Z" fill="url(#paint7_radial_473_723)"/>
<path d="M291.244 106.606C342.552 106.606 384.145 90.8834 384.145 71.4891C384.145 52.0948 342.552 36.3726 291.244 36.3726C239.937 36.3726 198.344 52.0948 198.344 71.4891C198.344 90.8834 239.937 106.606 291.244 106.606Z" fill="url(#paint8_radial_473_723)"/>
</g>
<g clip-path="url(#clip4_473_723)">
<path fill-rule="evenodd" clip-rule="evenodd" d="M311.479 104.091C362.786 104.091 404.379 88.3692 404.379 68.9748V45.8173H381.318C364.292 38.4861 339.315 33.8584 311.479 33.8584C283.643 33.8584 258.666 38.4861 241.639 45.8173H218.578L218.578 68.9748C218.578 88.3692 260.171 104.091 311.479 104.091Z" fill="url(#paint9_radial_473_723)"/>
<path d="M311.479 80.9337C362.786 80.9337 404.379 65.2115 404.379 45.8172C404.379 26.4229 362.786 10.7007 311.479 10.7007C260.171 10.7007 218.578 26.4229 218.578 45.8172C218.578 65.2115 260.171 80.9337 311.479 80.9337Z" fill="url(#paint10_radial_473_723)"/>
<path opacity="0.5" d="M389.833 45.8399C389.833 49.6219 387.801 53.3243 383.91 56.7906C380.02 60.256 374.344 63.4149 367.258 66.0856C353.092 71.4235 333.465 74.7424 311.744 74.7424C290.024 74.7424 270.397 71.4235 256.231 66.0856C249.144 63.4149 243.468 60.256 239.578 56.7906C235.687 53.3243 233.656 49.6219 233.656 45.8399C233.656 42.0571 235.687 38.3547 239.578 34.8885C243.468 31.4231 249.144 28.2642 256.231 25.5935C270.397 20.2555 290.024 16.9375 311.744 16.9375C333.465 16.9375 353.092 20.2564 367.258 25.5952C374.344 28.265 380.02 31.4239 383.91 34.8893C387.801 38.3564 389.833 42.0571 389.833 45.8399Z" stroke="url(#paint11_linear_473_723)" stroke-width="1.67492"/>
<g style="mix-blend-mode:soft-light">
<path fill-rule="evenodd" clip-rule="evenodd" d="M324.742 25.9379C324.435 25.7553 324.226 25.731 324.191 25.7277C324.156 25.7243 323.943 25.7051 323.435 25.8056C322.913 25.9094 322.236 26.1096 321.422 26.442C319.798 27.107 317.94 28.1722 315.983 29.5909C312.085 32.4173 308.007 36.4932 304.709 41.1445C301.412 45.7966 299.554 50.0978 299.191 53.2818C299.01 54.8805 299.211 56.1543 299.737 57.037C300.002 57.4792 300.325 57.7807 300.639 57.9683C300.947 58.1517 301.155 58.1759 301.19 58.1793C301.226 58.1826 301.438 58.2019 301.946 58.1014C302.468 57.9976 303.146 57.7974 303.96 57.4641C305.584 56.8 307.442 55.7347 309.398 54.3161C313.296 51.4897 317.375 47.4137 320.672 42.7616C323.969 38.1104 325.828 33.8092 326.19 30.6252C326.372 29.0256 326.171 27.7527 325.643 26.87C325.38 26.4278 325.057 26.1263 324.742 25.9379ZM322.681 42.9651C329.329 33.5856 330.247 25.5275 324.729 24.9681C319.212 24.4095 309.349 31.5606 302.7 40.9418C296.052 50.3214 295.135 58.3794 300.652 58.9389C306.169 59.4975 316.032 52.3464 322.681 42.9651Z" fill="white"/>
<path fill-rule="evenodd" clip-rule="evenodd" d="M355.427 37.8936C355.693 37.701 355.644 37.6214 355.635 37.6089C355.626 37.5955 355.562 37.5168 355.077 37.4004C354.58 37.2814 353.781 37.16 352.61 37.0595C350.274 36.8602 346.903 36.7848 342.672 36.8535C334.244 36.99 322.862 37.6926 310.549 38.9388C298.238 40.1841 287.45 41.725 279.97 43.1981C276.215 43.9376 273.396 44.6394 271.637 45.2532C270.756 45.5606 270.226 45.8168 269.953 46.0136C269.687 46.2063 269.736 46.2858 269.746 46.2984C269.755 46.3118 269.818 46.3905 270.303 46.5061C270.801 46.6258 271.601 46.7473 272.77 46.8469C275.107 47.0462 278.478 47.1224 282.709 47.0538C291.136 46.9164 302.519 46.2146 314.831 44.9685C327.143 43.7232 337.93 42.1814 345.41 40.7092C349.165 39.9697 351.983 39.2679 353.743 38.654C354.624 38.3467 355.154 38.0904 355.427 37.8936ZM315.369 45.7281C340.195 43.2157 359.122 39.489 357.643 37.4045C356.163 35.3201 334.838 35.6668 310.012 38.1792C285.185 40.6916 266.258 44.4174 267.737 46.5019C269.217 48.5872 290.542 48.2404 315.369 45.7281Z" fill="white"/>
<path fill-rule="evenodd" clip-rule="evenodd" d="M343.36 53.916C343.932 53.9068 344.09 53.8507 344.115 53.8414C344.14 53.8314 344.29 53.7711 344.313 53.5542C344.337 53.3323 344.217 53.0098 343.86 52.576C343.149 51.7118 341.637 50.5703 339.364 49.2195C334.837 46.5287 327.537 43.1529 318.528 39.7453C309.517 36.3368 300.593 33.5757 293.48 31.8631C289.908 31.0039 286.891 30.4319 284.605 30.1631C283.461 30.0282 282.608 29.9822 282.02 29.9914C281.448 29.9998 281.29 30.0567 281.265 30.0668C281.24 30.0751 281.091 30.1354 281.067 30.3523C281.043 30.5751 281.163 30.8975 281.52 31.3305C282.231 32.1956 283.743 33.3371 286.016 34.6879C290.543 37.3786 297.843 40.7544 306.853 44.1621C315.863 47.5705 324.787 50.3316 331.9 52.0434C335.472 52.9035 338.489 53.4755 340.775 53.7443C341.92 53.8791 342.772 53.9252 343.36 53.916ZM305.382 44.7181C323.55 51.5903 341.55 55.9234 345.586 54.3967C349.623 52.87 338.166 46.0614 319.998 39.1892C301.83 32.317 283.83 27.984 279.794 29.5107C275.758 31.0374 287.214 37.8459 305.382 44.7181Z" fill="white"/>
<path fill-rule="evenodd" clip-rule="evenodd" d="M287.346 34.2881C289.091 34.4639 290.126 35.1423 289.659 35.803C289.191 36.4629 287.397 36.854 285.652 36.6773C283.907 36.5015 282.872 35.8231 283.339 35.1624C283.807 34.5024 285.601 34.1113 287.346 34.2881ZM340.458 35.2821C342.204 35.4588 343.24 36.1372 342.772 36.7979C342.305 37.457 340.51 37.8489 338.765 37.6722C337.019 37.4955 335.983 36.8172 336.451 36.1564C336.918 35.4965 338.713 35.1054 340.458 35.2821ZM299.302 51.2156C301.048 51.3923 302.084 52.0707 301.617 52.7306C301.15 53.3897 299.355 53.7816 297.61 53.6041C295.863 53.4274 294.828 52.7499 295.295 52.0899C295.762 51.43 297.557 51.0389 299.302 51.2156ZM313.954 39.9032C316.911 40.203 318.664 41.352 317.872 42.4684C317.081 43.5864 314.042 44.2488 311.087 43.9498C308.131 43.65 306.377 42.5019 307.169 41.3847C307.961 40.2675 310.999 39.6043 313.954 39.9032Z" fill="white"/>
</g>
</g>
<g clip-path="url(#clip5_473_723)">
<path d="M345.022 263.54C355.474 261.317 364.965 257.812 372.84 253.265C380.714 248.718 386.784 243.238 390.631 237.204C394.477 231.17 396.007 224.726 395.116 218.318C394.225 211.909 390.934 205.688 385.47 200.086" stroke="url(#paint12_linear_473_723)" stroke-width="1.36059" stroke-linecap="round" stroke-linejoin="round"/>
</g>
<g clip-path="url(#clip6_473_723)">
<path d="M234.766 290.138C286.568 290.138 328.561 274.262 328.561 254.679V231.295H140.97V254.679C140.97 274.262 182.964 290.138 234.766 290.138Z" fill="url(#paint13_radial_473_723)"/>
<g filter="url(#filter0_ddd_473_723)">
<path d="M234.766 266.754C286.568 266.754 328.561 250.879 328.561 231.295C328.561 211.711 286.568 195.835 234.766 195.835C182.964 195.835 140.97 211.711 140.97 231.295C140.97 250.879 182.964 266.754 234.766 266.754Z" fill="url(#paint14_linear_473_723)"/>
</g>
<path opacity="0.5" d="M312.854 231.294C312.854 235.076 310.822 238.778 306.932 242.244C303.042 245.71 297.365 248.869 290.28 251.539C276.113 256.877 256.486 260.196 234.766 260.196C213.046 260.196 193.419 256.877 179.252 251.539C172.166 248.869 166.489 245.71 162.599 242.244C158.709 238.778 156.678 235.076 156.678 231.294C156.678 227.511 158.709 223.808 162.599 220.342C166.489 216.877 172.166 213.718 179.252 211.047C193.419 205.709 213.046 202.391 234.766 202.391C256.486 202.391 276.113 205.71 290.28 211.049C297.365 213.719 303.042 216.878 306.932 220.343C310.822 223.81 312.854 227.512 312.854 231.294V231.294Z" stroke="url(#paint15_linear_473_723)" stroke-width="1.67492"/>
<g style="mix-blend-mode:soft-light">
<path fill-rule="evenodd" clip-rule="evenodd" d="M246.97 215.295C246.663 215.112 246.454 215.088 246.419 215.085C246.384 215.081 246.171 215.062 245.663 215.163C245.141 215.266 244.463 215.467 243.649 215.799C242.026 216.464 240.167 217.529 238.21 218.948C234.313 221.774 230.234 225.85 226.936 230.501C223.639 235.154 221.782 239.455 221.419 242.639C221.237 244.237 221.438 245.511 221.965 246.394C222.23 246.836 222.552 247.138 222.867 247.325C223.174 247.509 223.383 247.533 223.418 247.536C223.453 247.54 223.666 247.559 224.173 247.458C224.695 247.354 225.373 247.154 226.187 246.821C227.811 246.157 229.67 245.092 231.626 243.673C235.523 240.847 239.603 236.771 242.9 232.119C246.197 227.467 248.055 223.166 248.418 219.982C248.6 218.383 248.399 217.11 247.871 216.227C247.607 215.785 247.285 215.483 246.97 215.295ZM244.908 232.322C251.557 222.943 252.475 214.884 246.956 214.325C241.439 213.766 231.577 220.918 224.928 230.299C218.279 239.678 217.362 247.736 222.879 248.296C228.397 248.854 238.259 241.703 244.908 232.322Z" fill="white"/>
<path fill-rule="evenodd" clip-rule="evenodd" d="M277.655 227.251C277.921 227.058 277.871 226.978 277.862 226.966C277.853 226.952 277.789 226.874 277.305 226.757C276.807 226.638 276.008 226.517 274.837 226.416C272.502 226.217 269.13 226.142 264.899 226.21C256.472 226.347 245.089 227.05 232.777 228.296C220.465 229.541 209.678 231.082 202.198 232.555C198.443 233.295 195.624 233.996 193.865 234.61C192.984 234.918 192.454 235.174 192.181 235.371C191.914 235.563 191.964 235.643 191.973 235.655C191.982 235.669 192.046 235.747 192.531 235.863C193.028 235.983 193.828 236.104 194.998 236.204C197.335 236.403 200.705 236.479 204.936 236.411C213.364 236.273 224.746 235.572 237.059 234.325C249.37 233.08 260.157 231.538 267.638 230.066C271.393 229.327 274.211 228.625 275.97 228.011C276.851 227.704 277.382 227.447 277.655 227.251ZM237.596 235.085C262.423 232.573 281.349 228.846 279.87 226.761C278.391 224.677 257.066 225.024 232.239 227.536C207.413 230.049 188.486 233.774 189.965 235.859C191.445 237.944 212.77 237.597 237.596 235.085Z" fill="white"/>
<path fill-rule="evenodd" clip-rule="evenodd" d="M265.588 243.273C266.16 243.264 266.318 243.208 266.343 243.198C266.368 243.188 266.517 243.128 266.541 242.911C266.565 242.689 266.444 242.367 266.087 241.933C265.376 241.069 263.865 239.927 261.592 238.576C257.065 235.886 249.765 232.51 240.755 229.102C231.745 225.694 222.821 222.933 215.708 221.22C212.136 220.361 209.118 219.789 206.833 219.52C205.688 219.385 204.836 219.339 204.248 219.348C203.676 219.357 203.517 219.414 203.492 219.424C203.467 219.432 203.318 219.492 203.295 219.709C203.27 219.932 203.391 220.254 203.748 220.687C204.459 221.553 205.97 222.694 208.243 224.045C212.771 226.736 220.071 230.111 229.08 233.519C238.09 236.927 247.014 239.689 254.128 241.4C257.699 242.26 260.717 242.832 263.002 243.101C264.147 243.236 265 243.282 265.588 243.273ZM227.61 234.075C245.777 240.947 263.778 245.28 267.813 243.754C271.85 242.227 260.394 235.418 242.226 228.546C224.058 221.674 206.057 217.341 202.022 218.868C197.985 220.394 209.442 227.203 227.61 234.075Z" fill="white"/>
<path fill-rule="evenodd" clip-rule="evenodd" d="M209.573 223.645C211.318 223.821 212.354 224.499 211.886 225.16C211.418 225.82 209.624 226.211 207.88 226.034C206.135 225.858 205.099 225.18 205.567 224.519C206.035 223.859 207.829 223.468 209.573 223.645ZM262.686 224.639C264.432 224.816 265.468 225.494 265 226.155C264.532 226.814 262.738 227.206 260.992 227.029C259.246 226.852 258.21 226.174 258.679 225.513C259.146 224.853 260.941 224.462 262.686 224.639ZM221.53 240.573C223.276 240.749 224.312 241.428 223.844 242.088C223.377 242.747 221.582 243.139 219.837 242.961C218.091 242.784 217.055 242.107 217.522 241.447C217.99 240.787 219.784 240.396 221.53 240.573ZM236.182 229.26C239.138 229.56 240.892 230.709 240.099 231.825C239.308 232.943 236.27 233.606 233.314 233.307C230.359 233.007 228.604 231.859 229.397 230.742C230.189 229.624 233.226 228.961 236.182 229.26Z" fill="white"/>
</g>
</g>
<defs>
<filter id="filter0_ddd_473_723" x="113.334" y="157.312" width="242.864" height="126.192" filterUnits="userSpaceOnUse" color-interpolation-filters="sRGB">
<feFlood flood-opacity="0" result="BackgroundImageFix"/>
<feColorMatrix in="SourceAlpha" type="matrix" values="0 0 0 0 0 0 0 0 0 0 0 0 0 0 0 0 0 0 127 0" result="hardAlpha"/>
<feOffset dy="-10.887"/>
<feGaussianBlur stdDeviation="13.8181"/>
<feColorMatrix type="matrix" values="0 0 0 0 0.404167 0 0 0 0 0.741154 0 0 0 0 1 0 0 0 0.4 0"/>
<feBlend mode="normal" in2="BackgroundImageFix" result="effect1_dropShadow_473_723"/>
<feColorMatrix in="SourceAlpha" type="matrix" values="0 0 0 0 0 0 0 0 0 0 0 0 0 0 0 0 0 0 127 0" result="hardAlpha"/>
<feOffset dy="1.556"/>
<feGaussianBlur stdDeviation="1.556"/>
<feColorMatrix type="matrix" values="0 0 0 0 1 0 0 0 0 1 0 0 0 0 1 0 0 0 0.25 0"/>
<feBlend mode="normal" in2="effect1_dropShadow_473_723" result="effect2_dropShadow_473_723"/>
<feColorMatrix in="SourceAlpha" type="matrix" values="0 0 0 0 0 0 0 0 0 0 0 0 0 0 0 0 0 0 127 0" result="hardAlpha"/>
<feOffset dy="-1.556"/>
<feGaussianBlur stdDeviation="0.564449"/>
<feComposite in2="hardAlpha" operator="out"/>
<feColorMatrix type="matrix" values="0 0 0 0 0.925 0 0 0 0 0.936947 0 0 0 0 1 0 0 0 0.12 0"/>
<feBlend mode="normal" in2="effect2_dropShadow_473_723" result="effect3_dropShadow_473_723"/>
<feBlend mode="normal" in="SourceGraphic" in2="effect3_dropShadow_473_723" result="shape"/>
</filter>
<linearGradient id="paint0_linear_473_723" x1="233.509" y1="180.256" x2="420.969" y2="180.256" gradientUnits="userSpaceOnUse">
<stop offset="0.78" stop-color="#000D4F" stop-opacity="0.16"/>
<stop offset="1" stop-color="#1A2F9F" stop-opacity="0"/>
</linearGradient>
<radialGradient id="paint1_radial_473_723" cx="0" cy="0" r="1" gradientUnits="userSpaceOnUse" gradientTransform="translate(361.662 177.347) rotate(-170.033) scale(170.12 80.7253)">
<stop/>
<stop offset="0.473925"/>
<stop offset="0.88" stop-color="#1F1F1F"/>
</radialGradient>
<radialGradient id="paint2_radial_473_723" cx="0" cy="0" r="1" gradientUnits="userSpaceOnUse" gradientTransform="translate(404.379 150.807) rotate(-174.807) scale(201.559 95.6432)">
<stop stop-color="#0D0D0D"/>
<stop offset="0.86" stop-color="#232323"/>
</radialGradient>
<radialGradient id="paint3_radial_473_723" cx="0" cy="0" r="1" gradientUnits="userSpaceOnUse" gradientTransform="translate(341.427 149.081) rotate(-170.033) scale(170.12 80.7253)">
<stop/>
<stop offset="0.473925"/>
<stop offset="0.88" stop-color="#1F1F1F"/>
</radialGradient>
<radialGradient id="paint4_radial_473_723" cx="0" cy="0" r="1" gradientUnits="userSpaceOnUse" gradientTransform="translate(384.145 122.541) rotate(-174.807) scale(201.559 95.6432)">
<stop stop-color="#0D0D0D"/>
<stop offset="0.86" stop-color="#232323"/>
</radialGradient>
<radialGradient id="paint5_radial_473_723" cx="0" cy="0" r="1" gradientUnits="userSpaceOnUse" gradientTransform="translate(361.662 123.394) rotate(-170.033) scale(170.12 80.7253)">
<stop/>
<stop offset="0.473925"/>
<stop offset="0.88" stop-color="#1F1F1F"/>
</radialGradient>
<radialGradient id="paint6_radial_473_723" cx="0" cy="0" r="1" gradientUnits="userSpaceOnUse" gradientTransform="translate(404.379 96.8539) rotate(-174.807) scale(201.559 95.6432)">
<stop stop-color="#0D0D0D"/>
<stop offset="0.86" stop-color="#232323"/>
</radialGradient>
<radialGradient id="paint7_radial_473_723" cx="0" cy="0" r="1" gradientUnits="userSpaceOnUse" gradientTransform="translate(341.427 97.6906) rotate(-170.033) scale(170.12 80.7253)">
<stop/>
<stop offset="0.473925"/>
<stop offset="0.88" stop-color="#1F1F1F"/>
</radialGradient>
<radialGradient id="paint8_radial_473_723" cx="0" cy="0" r="1" gradientUnits="userSpaceOnUse" gradientTransform="translate(384.145 71.1508) rotate(-174.807) scale(201.559 95.6432)">
<stop stop-color="#0D0D0D"/>
<stop offset="0.86" stop-color="#232323"/>
</radialGradient>
<radialGradient id="paint9_radial_473_723" cx="0" cy="0" r="1" gradientUnits="userSpaceOnUse" gradientTransform="translate(361.662 72.0187) rotate(-170.033) scale(170.12 80.7253)">
<stop/>
<stop offset="0.473925"/>
<stop offset="0.88" stop-color="#1F1F1F"/>
</radialGradient>
<radialGradient id="paint10_radial_473_723" cx="0" cy="0" r="1" gradientUnits="userSpaceOnUse" gradientTransform="translate(404.379 45.4789) rotate(-174.807) scale(201.559 95.6432)">
<stop stop-color="#0D0D0D"/>
<stop offset="0.86" stop-color="#232323"/>
</radialGradient>
<linearGradient id="paint11_linear_473_723" x1="232.819" y1="16.0992" x2="395.679" y2="54.1308" gradientUnits="userSpaceOnUse">
<stop stop-color="white"/>
<stop offset="1" stop-color="white" stop-opacity="0"/>
</linearGradient>
<linearGradient id="paint12_linear_473_723" x1="372.804" y1="188.874" x2="366.924" y2="243.3" gradientUnits="userSpaceOnUse">
<stop offset="0.254598" stop-color="white" stop-opacity="0"/>
<stop offset="0.901042" stop-color="white"/>
</linearGradient>
<radialGradient id="paint13_radial_473_723" cx="0" cy="0" r="1" gradientUnits="userSpaceOnUse" gradientTransform="translate(238.83 259.035) rotate(70.2405) scale(64.2267 107.252)">
<stop stop-color="#68E9F1"/>
<stop offset="0.604" stop-color="#86AFFF"/>
<stop offset="1" stop-color="#9492FF"/>
</radialGradient>
<linearGradient id="paint14_linear_473_723" x1="234.766" y1="195.836" x2="234.766" y2="266.754" gradientUnits="userSpaceOnUse">
<stop stop-color="#FD91FF"/>
<stop offset="0.344" stop-color="#A0A8FF"/>
<stop offset="0.947" stop-color="#C9F2FF"/>
</linearGradient>
<linearGradient id="paint15_linear_473_723" x1="155.84" y1="201.553" x2="318.7" y2="239.584" gradientUnits="userSpaceOnUse">
<stop stop-color="white"/>
<stop offset="1" stop-color="white" stop-opacity="0"/>
</linearGradient>
<clipPath id="clip0_473_723">
<rect width="202.391" height="117.969" fill="white" transform="translate(218.578 105.922)"/>
</clipPath>
<clipPath id="clip1_473_723">
<rect width="202.391" height="117.969" fill="white" transform="translate(198.344 77.6562)"/>
</clipPath>
<clipPath id="clip2_473_723">
<rect width="202.391" height="117.969" fill="white" transform="translate(218.578 51.9688)"/>
</clipPath>
<clipPath id="clip3_473_723">
<rect width="202.391" height="117.969" fill="white" transform="translate(198.344 26.2656)"/>
</clipPath>
<clipPath id="clip4_473_723">
<rect width="202.391" height="117.969" fill="white" transform="translate(218.578 0.59375)"/>
</clipPath>
<clipPath id="clip5_473_723">
<rect width="52.6094" height="71.9688" fill="white" transform="translate(344.062 195.859)"/>
</clipPath>
<clipPath id="clip6_473_723">
<rect width="242.864" height="133.156" fill="white" transform="translate(113.334 157.312)"/>
</clipPath>
</defs>
</svg>
