<svg width="460" height="394" viewBox="0 0 460 394" fill="none" xmlns="http://www.w3.org/2000/svg">
<g filter="url(#filter0_f_473_312)">
<g clip-path="url(#clip0_473_312)">
<path d="M175.176 154.159C214.05 174.829 251.898 179.671 259.712 164.975L269.042 147.427L128.267 72.5762L118.937 90.124C111.123 104.82 136.302 133.489 175.176 154.159Z" fill="url(#paint0_radial_473_312)"/>
<g filter="url(#filter1_ddd_473_312)">
<path d="M184.506 136.611C223.38 157.281 261.228 162.123 269.042 147.427C276.856 132.73 251.678 104.061 212.804 83.3909C173.93 62.7213 136.082 57.8791 128.268 72.5755C120.453 87.2719 145.632 115.942 184.506 136.611Z" fill="url(#paint1_linear_473_312)"/>
</g>
<path opacity="0.5" d="M257.255 141.158C255.746 143.997 252.744 145.964 248.441 147.013C244.139 148.061 238.619 148.167 232.236 147.344C219.475 145.697 203.423 140.356 187.123 131.69C170.823 123.023 157.419 112.701 148.918 103.043C144.666 98.2109 141.666 93.5754 140.13 89.4227C138.593 85.269 138.546 81.6803 140.055 78.8422C141.565 76.0034 144.566 74.0353 148.869 72.9867C153.171 71.9383 158.691 71.8326 165.075 72.6561C177.836 74.3029 193.888 79.6443 210.188 88.311C226.488 96.9777 239.892 107.3 248.393 116.959C252.645 121.789 255.644 126.425 257.18 130.578C258.717 134.732 258.764 138.32 257.255 141.159L257.255 141.158Z" stroke="url(#paint2_linear_473_312)" stroke-width="1.42355"/>
<g style="mix-blend-mode:soft-light">
<path fill-rule="evenodd" clip-rule="evenodd" d="M214.198 102.864C214.04 102.605 213.893 102.503 213.868 102.487C213.843 102.47 213.691 102.371 213.269 102.243C212.836 102.113 212.248 101.993 211.505 101.918C210.021 101.769 208.201 101.827 206.166 102.11C202.114 102.676 197.427 104.108 193.096 106.282C188.765 108.458 185.655 110.944 184.113 113.189C183.338 114.316 182.981 115.352 183.024 116.225C183.046 116.662 183.168 117.017 183.329 117.284C183.487 117.544 183.634 117.645 183.659 117.662C183.684 117.678 183.836 117.778 184.257 117.905C184.69 118.035 185.279 118.155 186.022 118.23C187.506 118.38 189.326 118.322 191.36 118.038C195.412 117.472 200.1 116.041 204.43 113.865C208.76 111.69 211.871 109.204 213.414 106.959C214.188 105.832 214.546 104.796 214.502 103.923C214.48 103.486 214.359 103.131 214.198 102.864ZM205.856 114.819C214.588 110.434 218.492 104.753 214.574 102.131C210.657 99.5106 200.402 100.942 191.67 105.329C182.938 109.715 179.034 115.396 182.952 118.017C186.869 120.638 197.124 119.206 205.856 114.819Z" fill="white"/>
<path fill-rule="evenodd" clip-rule="evenodd" d="M232.454 124.08C232.731 124.041 232.725 123.962 232.723 123.949C232.722 123.935 232.705 123.851 232.388 123.57C232.062 123.282 231.511 122.872 230.673 122.33C228.999 121.248 226.499 119.846 223.297 118.21C216.918 114.949 208.096 110.935 198.359 106.957C188.623 102.979 179.913 99.8314 173.712 97.9522C170.599 97.0087 168.204 96.4106 166.639 96.1695C165.855 96.0486 165.355 96.0294 165.072 96.0682C164.795 96.1065 164.8 96.1859 164.802 96.199C164.804 96.2127 164.82 96.2972 165.138 96.5774C165.463 96.8657 166.015 97.276 166.853 97.8176C168.527 98.8995 171.026 100.302 174.229 101.938C180.608 105.198 189.43 109.213 199.166 113.191C208.902 117.169 217.613 120.316 223.813 122.196C226.926 123.139 229.321 123.737 230.887 123.978C231.67 124.099 232.17 124.118 232.454 124.08ZM199.267 113.975C218.9 121.996 234.59 126.751 234.312 124.597C234.033 122.442 217.892 114.193 198.259 106.173C178.626 98.152 162.936 93.396 163.214 95.5504C163.492 97.7057 179.634 105.954 199.267 113.975Z" fill="white"/>
<path fill-rule="evenodd" clip-rule="evenodd" d="M217.005 131.288C217.438 131.51 217.579 131.531 217.602 131.534C217.625 131.536 217.761 131.551 217.865 131.397C217.972 131.24 218.01 130.95 217.915 130.482C217.726 129.55 217.047 128.09 215.881 126.17C213.557 122.344 209.426 116.898 204.024 110.746C198.623 104.593 193.028 98.9599 188.373 94.8364C186.035 92.7664 183.999 91.1332 182.392 90.0196C181.586 89.4616 180.965 89.0869 180.52 88.8592C180.087 88.6372 179.946 88.6168 179.923 88.6143C179.901 88.6106 179.765 88.5964 179.661 88.7498C179.554 88.9073 179.516 89.1973 179.61 89.6646C179.799 90.5975 180.478 92.0572 181.644 93.9778C183.968 97.8035 188.099 103.25 193.501 109.402C198.902 115.555 204.497 121.188 209.153 125.31C211.49 127.381 213.526 129.014 215.134 130.128C215.939 130.686 216.56 131.061 217.005 131.288ZM192.175 109.232C203.067 121.639 214.846 132.073 218.484 132.537C222.122 133.002 216.242 123.322 205.35 110.915C194.458 98.5089 182.679 88.0749 179.041 87.6103C175.403 87.1453 181.284 96.8259 192.175 109.232Z" fill="white"/>
<path fill-rule="evenodd" clip-rule="evenodd" d="M182.802 94.2089C184.041 95.0373 184.547 95.9593 183.933 96.2687C183.319 96.5772 181.816 96.1549 180.578 95.3262C179.338 94.4979 178.832 93.5758 179.446 93.2664C180.061 92.958 181.563 93.3803 182.802 94.2089ZM222.263 116.147C223.502 116.977 224.009 117.899 223.394 118.208C222.781 118.516 221.277 118.094 220.038 117.265C218.798 116.436 218.292 115.514 218.907 115.205C219.521 114.896 221.023 115.318 222.263 116.147ZM185.02 111.683C186.26 112.512 186.767 113.434 186.153 113.743C185.539 114.051 184.036 113.629 182.797 112.8C181.557 111.97 181.05 111.049 181.664 110.74C182.278 110.431 183.781 110.854 185.02 111.683ZM200.529 109.04C202.628 110.444 203.486 112.006 202.446 112.528C201.406 113.051 198.861 112.336 196.763 110.932C194.665 109.528 193.806 107.967 194.846 107.444C195.887 106.922 198.431 107.636 200.529 109.04Z" fill="white"/>
</g>
</g>
</g>
<g clip-path="url(#clip1_473_312)">
<path d="M276.644 279.213C341.113 230.632 378.486 171.492 360.121 147.12L338.191 118.018L104.729 293.945L126.658 323.046C145.024 347.418 212.174 327.794 276.644 279.213Z" fill="url(#paint3_radial_473_312)"/>
<g filter="url(#filter2_ddd_473_312)">
<path d="M254.714 250.111C319.183 201.53 356.557 142.39 338.19 118.017C319.824 93.6443 252.673 113.269 188.204 161.85C123.735 210.43 86.3616 269.571 104.728 293.944C123.094 318.316 190.245 298.692 254.714 250.111Z" fill="url(#paint4_linear_473_312)"/>
</g>
<path opacity="0.5" d="M318.642 132.747C322.188 137.454 323.132 143.967 321.54 151.93C319.949 159.89 315.847 169.145 309.533 179.114C296.909 199.043 275.595 221.58 248.564 241.949C221.532 262.319 193.994 276.595 171.357 283.237C160.033 286.56 150.006 287.952 141.915 287.287C133.822 286.622 127.822 283.919 124.275 279.212C120.728 274.504 119.783 267.992 121.375 260.029C122.966 252.068 127.068 242.814 133.383 232.844C146.007 212.915 167.322 190.379 194.353 170.01C221.385 149.64 248.923 135.364 271.561 128.723C282.883 125.4 292.91 124.008 301.001 124.673C309.095 125.339 315.095 128.04 318.642 132.748L318.642 132.747Z" stroke="url(#paint5_linear_473_312)" stroke-width="2.61006"/>
<g style="mix-blend-mode:soft-light">
<path fill-rule="evenodd" clip-rule="evenodd" d="M221.643 174.623C221.089 174.684 220.807 174.849 220.76 174.878C220.713 174.907 220.431 175.082 219.892 175.684C219.34 176.303 218.685 177.187 217.983 178.364C216.586 180.715 215.272 183.783 214.167 187.384C211.967 194.557 210.714 203.454 210.972 212.336C211.231 221.218 212.953 228.313 215.488 232.615C216.761 234.775 218.206 236.172 219.689 236.777C220.433 237.079 221.117 237.152 221.685 237.09C222.24 237.03 222.522 236.864 222.569 236.836C222.616 236.807 222.898 236.631 223.436 236.03C223.988 235.412 224.644 234.526 225.345 233.348C226.743 230.999 228.057 227.93 229.161 224.33C231.361 217.157 232.615 208.259 232.356 199.377C232.097 190.497 230.376 183.401 227.841 179.098C226.567 176.937 225.123 175.541 223.639 174.938C222.896 174.635 222.212 174.562 221.643 174.623ZM235.046 197.747C234.524 179.839 228.109 168.95 220.717 173.428C213.327 177.907 207.759 196.057 208.282 213.967C208.804 231.875 215.22 242.764 222.611 238.286C230.001 233.807 235.569 215.658 235.046 197.747Z" fill="white"/>
<path fill-rule="evenodd" clip-rule="evenodd" d="M271.043 160.726C271.194 160.236 271.058 160.183 271.035 160.176C271.01 160.168 270.857 160.13 270.145 160.44C269.414 160.758 268.306 161.357 266.755 162.33C263.661 164.272 259.394 167.34 254.193 171.393C243.833 179.467 230.326 191.016 216.171 204.114C202.017 217.209 190.037 229.244 182.109 238.092C178.129 242.534 175.279 246.051 173.666 248.464C172.858 249.673 172.439 250.489 172.284 250.99C172.133 251.48 172.269 251.532 172.292 251.539C172.316 251.547 172.469 251.586 173.181 251.275C173.912 250.957 175.022 250.358 176.571 249.385C179.666 247.442 183.932 244.376 189.133 240.322C199.493 232.248 213.001 220.7 227.155 207.602C241.309 194.506 253.289 182.471 261.217 173.624C265.197 169.182 268.046 165.665 269.66 163.251C270.468 162.043 270.888 161.227 271.043 160.726ZM228.537 208.043C257.078 181.634 277.138 159.246 273.342 158.039C269.546 156.832 243.331 177.263 214.79 203.672C186.249 230.082 166.188 252.469 169.984 253.676C173.781 254.883 199.996 234.453 228.537 208.043Z" fill="white"/>
<path fill-rule="evenodd" clip-rule="evenodd" d="M271.051 191.982C271.755 191.435 271.899 191.216 271.921 191.181C271.943 191.145 272.072 190.93 271.898 190.638C271.72 190.339 271.268 190.051 270.417 189.846C268.722 189.437 265.77 189.434 261.674 189.885C253.516 190.782 241.265 193.427 226.857 197.635C212.447 201.843 198.752 206.776 188.293 211.315C183.042 213.596 178.75 215.714 175.654 217.522C174.102 218.428 172.998 219.17 172.275 219.733C171.571 220.28 171.428 220.499 171.406 220.535C171.382 220.569 171.253 220.784 171.428 221.076C171.606 221.376 172.059 221.664 172.909 221.869C174.605 222.278 177.557 222.281 181.652 221.831C189.81 220.934 202.061 218.289 216.469 214.081C230.879 209.873 244.575 204.94 255.033 200.399C260.285 198.12 264.576 196.002 267.673 194.193C269.224 193.287 270.328 192.545 271.051 191.982ZM215.161 216.152C244.216 207.666 270.682 196.178 274.272 190.493C277.864 184.808 257.221 187.078 228.166 195.564C199.11 204.049 172.645 215.538 169.054 221.223C165.462 226.908 186.105 224.637 215.161 216.152Z" fill="white"/>
<path fill-rule="evenodd" clip-rule="evenodd" d="M182.933 220.087C185.27 218.669 187.194 218.542 187.232 219.803C187.269 221.063 185.403 223.232 183.066 224.648C180.729 226.066 178.805 226.193 178.767 224.932C178.73 223.672 180.596 221.503 182.933 220.087ZM249.965 171.514C252.304 170.096 254.23 169.969 254.267 171.23C254.303 172.489 252.437 174.66 250.099 176.077C247.761 177.494 245.835 177.621 245.798 176.36C245.761 175.101 247.628 172.931 249.965 171.514ZM213.688 229.941C216.027 228.523 217.952 228.396 217.99 229.655C218.026 230.914 216.16 233.085 213.822 234.5C211.483 235.918 209.558 236.046 209.521 234.787C209.483 233.527 211.35 231.358 213.688 229.941ZM221.314 202.121C225.274 199.722 228.534 199.507 228.595 201.639C228.659 203.773 225.499 207.447 221.54 209.846C217.581 212.245 214.321 212.461 214.259 210.328C214.197 208.195 217.356 204.521 221.314 202.121Z" fill="white"/>
</g>
</g>
<defs>
<filter id="filter0_f_473_312" x="79.907" y="2.02441" width="243.405" height="204.841" filterUnits="userSpaceOnUse" color-interpolation-filters="sRGB">
<feFlood flood-opacity="0" result="BackgroundImageFix"/>
<feBlend mode="normal" in="SourceGraphic" in2="BackgroundImageFix" result="shape"/>
<feGaussianBlur stdDeviation="2" result="effect1_foregroundBlur_473_312"/>
</filter>
<filter id="filter1_ddd_473_312" x="103.357" y="31.3346" width="190.595" height="138.827" filterUnits="userSpaceOnUse" color-interpolation-filters="sRGB">
<feFlood flood-opacity="0" result="BackgroundImageFix"/>
<feColorMatrix in="SourceAlpha" type="matrix" values="0 0 0 0 0 0 0 0 0 0 0 0 0 0 0 0 0 0 127 0" result="hardAlpha"/>
<feOffset dy="-9.25304"/>
<feGaussianBlur stdDeviation="11.7442"/>
<feColorMatrix type="matrix" values="0 0 0 0 0.404167 0 0 0 0 0.741154 0 0 0 0 1 0 0 0 0.4 0"/>
<feBlend mode="normal" in2="BackgroundImageFix" result="effect1_dropShadow_473_312"/>
<feColorMatrix in="SourceAlpha" type="matrix" values="0 0 0 0 0 0 0 0 0 0 0 0 0 0 0 0 0 0 127 0" result="hardAlpha"/>
<feOffset dy="1.32247"/>
<feGaussianBlur stdDeviation="1.32247"/>
<feColorMatrix type="matrix" values="0 0 0 0 1 0 0 0 0 1 0 0 0 0 1 0 0 0 0.25 0"/>
<feBlend mode="normal" in2="effect1_dropShadow_473_312" result="effect2_dropShadow_473_312"/>
<feColorMatrix in="SourceAlpha" type="matrix" values="0 0 0 0 0 0 0 0 0 0 0 0 0 0 0 0 0 0 127 0" result="hardAlpha"/>
<feOffset dy="-1.32247"/>
<feGaussianBlur stdDeviation="0.479735"/>
<feComposite in2="hardAlpha" operator="out"/>
<feColorMatrix type="matrix" values="0 0 0 0 0.925 0 0 0 0 0.936947 0 0 0 0 1 0 0 0 0.12 0"/>
<feBlend mode="normal" in2="effect2_dropShadow_473_312" result="effect3_dropShadow_473_312"/>
<feBlend mode="normal" in="SourceGraphic" in2="effect3_dropShadow_473_312" result="shape"/>
</filter>
<filter id="filter2_ddd_473_312" x="56.986" y="47.515" width="328.946" height="283" filterUnits="userSpaceOnUse" color-interpolation-filters="sRGB">
<feFlood flood-opacity="0" result="BackgroundImageFix"/>
<feColorMatrix in="SourceAlpha" type="matrix" values="0 0 0 0 0 0 0 0 0 0 0 0 0 0 0 0 0 0 127 0" result="hardAlpha"/>
<feOffset dy="-16.9654"/>
<feGaussianBlur stdDeviation="21.533"/>
<feColorMatrix type="matrix" values="0 0 0 0 0.404167 0 0 0 0 0.741154 0 0 0 0 1 0 0 0 0.4 0"/>
<feBlend mode="normal" in2="BackgroundImageFix" result="effect1_dropShadow_473_312"/>
<feColorMatrix in="SourceAlpha" type="matrix" values="0 0 0 0 0 0 0 0 0 0 0 0 0 0 0 0 0 0 127 0" result="hardAlpha"/>
<feOffset dy="2.42475"/>
<feGaussianBlur stdDeviation="2.42475"/>
<feColorMatrix type="matrix" values="0 0 0 0 1 0 0 0 0 1 0 0 0 0 1 0 0 0 0.25 0"/>
<feBlend mode="normal" in2="effect1_dropShadow_473_312" result="effect2_dropShadow_473_312"/>
<feColorMatrix in="SourceAlpha" type="matrix" values="0 0 0 0 0 0 0 0 0 0 0 0 0 0 0 0 0 0 127 0" result="hardAlpha"/>
<feOffset dy="-2.42475"/>
<feGaussianBlur stdDeviation="0.879591"/>
<feComposite in2="hardAlpha" operator="out"/>
<feColorMatrix type="matrix" values="0 0 0 0 0.925 0 0 0 0 0.936947 0 0 0 0 1 0 0 0 0.12 0"/>
<feBlend mode="normal" in2="effect2_dropShadow_473_312" result="effect3_dropShadow_473_312"/>
<feBlend mode="normal" in="SourceGraphic" in2="effect3_dropShadow_473_312" result="shape"/>
</filter>
<radialGradient id="paint0_radial_473_312" cx="0" cy="0" r="1" gradientUnits="userSpaceOnUse" gradientTransform="translate(190.636 132.44) rotate(98.2405) scale(54.5874 91.1553)">
<stop stop-color="#68E9F1"/>
<stop offset="0.604" stop-color="#86AFFF"/>
<stop offset="1" stop-color="#9492FF"/>
</radialGradient>
<linearGradient id="paint1_linear_473_312" x1="212.803" y1="83.3916" x2="184.506" y2="136.611" gradientUnits="userSpaceOnUse">
<stop stop-color="#FD91FF"/>
<stop offset="0.344" stop-color="#A0A8FF"/>
<stop offset="0.947" stop-color="#C9F2FF"/>
</linearGradient>
<linearGradient id="paint2_linear_473_312" x1="151.294" y1="56.1896" x2="258.334" y2="149.713" gradientUnits="userSpaceOnUse">
<stop stop-color="white"/>
<stop offset="1" stop-color="white" stop-opacity="0"/>
</linearGradient>
<radialGradient id="paint3_radial_473_312" cx="0" cy="0" r="1" gradientUnits="userSpaceOnUse" gradientTransform="translate(252.533 236.693) rotate(33.2405) scale(100.086 167.133)">
<stop stop-color="#68E9F1"/>
<stop offset="0.604" stop-color="#86AFFF"/>
<stop offset="1" stop-color="#9492FF"/>
</radialGradient>
<linearGradient id="paint4_linear_473_312" x1="188.205" y1="161.851" x2="254.714" y2="250.111" gradientUnits="userSpaceOnUse">
<stop stop-color="#FD91FF"/>
<stop offset="0.344" stop-color="#A0A8FF"/>
<stop offset="0.947" stop-color="#C9F2FF"/>
</linearGradient>
<linearGradient id="paint5_linear_473_312" x1="95.3417" y1="242.984" x2="333.693" y2="137.582" gradientUnits="userSpaceOnUse">
<stop stop-color="white"/>
<stop offset="1" stop-color="white" stop-opacity="0"/>
</linearGradient>
<clipPath id="clip0_473_312">
<rect width="206.414" height="113.172" fill="white" transform="translate(137.048 6.02979) rotate(28)"/>
</clipPath>
<clipPath id="clip1_473_312">
<rect width="378.459" height="207.5" fill="white" transform="translate(0.951904 227.789) rotate(-37)"/>
</clipPath>
</defs>
</svg>
