<svg width="421" height="291" viewBox="0 0 421 291" fill="none" xmlns="http://www.w3.org/2000/svg">
<g clip-path="url(#clip0_473_771)">
<path d="M327.239 213.839C379.005 213.839 420.969 198.058 420.969 178.591C420.969 159.124 379.005 143.343 327.239 143.343C275.473 143.343 233.509 159.124 233.509 178.591C233.509 198.058 275.473 213.839 327.239 213.839Z" fill="url(#paint0_linear_473_771)"/>
<path fill-rule="evenodd" clip-rule="evenodd" d="M311.479 209.419C362.786 209.419 404.379 193.697 404.379 174.303V151.145H381.318C364.292 143.814 339.315 139.187 311.479 139.187C283.643 139.187 258.666 143.814 241.639 151.145H218.578L218.578 174.303C218.578 193.697 260.171 209.419 311.479 209.419Z" fill="url(#paint1_radial_473_771)"/>
<path d="M311.479 186.262C362.786 186.262 404.379 170.54 404.379 151.145C404.379 131.751 362.786 116.029 311.479 116.029C260.171 116.029 218.578 131.751 218.578 151.145C218.578 170.54 260.171 186.262 311.479 186.262Z" fill="url(#paint2_linear_473_771)"/>
</g>
<g clip-path="url(#clip1_473_771)">
<path fill-rule="evenodd" clip-rule="evenodd" d="M291.244 181.154C342.552 181.154 384.145 165.432 384.145 146.037V122.88H361.084C344.058 115.549 319.081 110.921 291.244 110.921C263.408 110.921 238.431 115.549 221.405 122.88H198.344L198.344 146.037C198.344 165.432 239.937 181.154 291.244 181.154Z" fill="url(#paint3_radial_473_771)"/>
<path d="M291.244 157.996C342.552 157.996 384.145 142.274 384.145 122.88C384.145 103.485 342.552 87.7632 291.244 87.7632C239.937 87.7632 198.344 103.485 198.344 122.88C198.344 142.274 239.937 157.996 291.244 157.996Z" fill="url(#paint4_linear_473_771)"/>
</g>
<g clip-path="url(#clip2_473_771)">
<path fill-rule="evenodd" clip-rule="evenodd" d="M311.479 155.466C362.786 155.466 404.379 139.744 404.379 120.35V97.1923H381.318C364.292 89.8611 339.315 85.2334 311.479 85.2334C283.643 85.2334 258.666 89.8611 241.639 97.1923H218.578L218.578 120.35C218.578 139.744 260.171 155.466 311.479 155.466Z" fill="url(#paint5_radial_473_771)"/>
<path d="M311.479 132.309C362.786 132.309 404.379 116.587 404.379 97.1922C404.379 77.7979 362.786 62.0757 311.479 62.0757C260.171 62.0757 218.578 77.7979 218.578 97.1922C218.578 116.587 260.171 132.309 311.479 132.309Z" fill="url(#paint6_linear_473_771)"/>
</g>
<g clip-path="url(#clip3_473_771)">
<path fill-rule="evenodd" clip-rule="evenodd" d="M291.244 129.763C342.552 129.763 384.145 114.041 384.145 94.6467V71.4892H361.084C344.058 64.158 319.081 59.5303 291.244 59.5303C263.408 59.5303 238.431 64.158 221.405 71.4892H198.344L198.344 94.6467C198.344 114.041 239.937 129.763 291.244 129.763Z" fill="url(#paint7_radial_473_771)"/>
<path d="M291.244 106.606C342.552 106.606 384.145 90.8834 384.145 71.4891C384.145 52.0948 342.552 36.3726 291.244 36.3726C239.937 36.3726 198.344 52.0948 198.344 71.4891C198.344 90.8834 239.937 106.606 291.244 106.606Z" fill="url(#paint8_linear_473_771)"/>
</g>
<g clip-path="url(#clip4_473_771)">
<path fill-rule="evenodd" clip-rule="evenodd" d="M311.479 104.091C362.786 104.091 404.379 88.3692 404.379 68.9748V45.8173H381.318C364.292 38.4861 339.315 33.8584 311.479 33.8584C283.643 33.8584 258.666 38.4861 241.639 45.8173H218.578L218.578 68.9748C218.578 88.3692 260.171 104.091 311.479 104.091Z" fill="url(#paint9_radial_473_771)"/>
<path d="M311.479 80.9337C362.786 80.9337 404.379 65.2115 404.379 45.8172C404.379 26.4229 362.786 10.7007 311.479 10.7007C260.171 10.7007 218.578 26.4229 218.578 45.8172C218.578 65.2115 260.171 80.9337 311.479 80.9337Z" fill="url(#paint10_linear_473_771)"/>
<path opacity="0.5" d="M389.833 45.8399C389.833 49.6219 387.801 53.3243 383.91 56.7906C380.02 60.256 374.344 63.4149 367.258 66.0856C353.092 71.4235 333.465 74.7424 311.744 74.7424C290.024 74.7424 270.397 71.4235 256.231 66.0856C249.144 63.4149 243.468 60.256 239.578 56.7906C235.687 53.3243 233.656 49.6219 233.656 45.8399C233.656 42.0571 235.687 38.3547 239.578 34.8885C243.468 31.4231 249.144 28.2642 256.231 25.5935C270.397 20.2555 290.024 16.9375 311.744 16.9375C333.465 16.9375 353.092 20.2564 367.258 25.5952C374.344 28.265 380.02 31.4239 383.91 34.8893C387.801 38.3564 389.833 42.058 389.833 45.8408V45.8399Z" stroke="url(#paint11_linear_473_771)" stroke-width="1.67492"/>
<g style="mix-blend-mode:soft-light">
<path fill-rule="evenodd" clip-rule="evenodd" d="M323.742 26.9379C323.435 26.7553 323.226 26.731 323.191 26.7277C323.156 26.7243 322.943 26.7051 322.435 26.8056C321.913 26.9094 321.236 27.1096 320.422 27.442C318.798 28.107 316.94 29.1722 314.983 30.5909C311.085 33.4173 307.007 37.4932 303.709 42.1445C300.412 46.7966 298.554 51.0978 298.191 54.2818C298.01 55.8805 298.211 57.1543 298.737 58.037C299.002 58.4792 299.325 58.7807 299.639 58.9683C299.947 59.1517 300.155 59.1759 300.19 59.1793C300.226 59.1826 300.438 59.2019 300.946 59.1014C301.468 58.9976 302.146 58.7974 302.96 58.4641C304.584 57.8 306.442 56.7347 308.398 55.3161C312.296 52.4897 316.375 48.4137 319.672 43.7616C322.969 39.1104 324.828 34.8092 325.19 31.6252C325.372 30.0256 325.171 28.7527 324.643 27.87C324.38 27.4278 324.057 27.1263 323.742 26.9379ZM321.681 43.9651C328.329 34.5856 329.247 26.5275 323.729 25.9681C318.212 25.4095 308.349 32.5606 301.7 41.9418C295.052 51.3214 294.135 59.3794 299.652 59.9389C305.169 60.4975 315.032 53.3464 321.681 43.9651Z" fill="white"/>
<path fill-rule="evenodd" clip-rule="evenodd" d="M354.427 38.8936C354.693 38.701 354.644 38.6214 354.635 38.6089C354.626 38.5955 354.562 38.5168 354.077 38.4004C353.58 38.2814 352.781 38.16 351.61 38.0595C349.274 37.8602 345.903 37.7848 341.672 37.8535C333.244 37.99 321.862 38.6926 309.549 39.9388C297.238 41.1841 286.45 42.725 278.97 44.1981C275.215 44.9376 272.396 45.6394 270.637 46.2532C269.756 46.5606 269.226 46.8168 268.953 47.0136C268.687 47.2063 268.736 47.2858 268.746 47.2984C268.755 47.3118 268.818 47.3905 269.303 47.5061C269.801 47.6258 270.601 47.7473 271.77 47.8469C274.107 48.0462 277.478 48.1224 281.709 48.0538C290.136 47.9164 301.519 47.2146 313.831 45.9685C326.143 44.7232 336.93 43.1814 344.41 41.7092C348.165 40.9697 350.983 40.2679 352.743 39.654C353.624 39.3467 354.154 39.0904 354.427 38.8936ZM314.369 46.7281C339.195 44.2157 358.122 40.489 356.643 38.4045C355.163 36.3201 333.838 36.6668 309.012 39.1792C284.185 41.6916 265.258 45.4174 266.737 47.5019C268.217 49.5872 289.542 49.2404 314.369 46.7281Z" fill="white"/>
<path fill-rule="evenodd" clip-rule="evenodd" d="M342.36 54.916C342.932 54.9068 343.09 54.8507 343.115 54.8414C343.14 54.8314 343.29 54.7711 343.313 54.5542C343.337 54.3323 343.217 54.0098 342.86 53.576C342.149 52.7118 340.637 51.5703 338.364 50.2195C333.837 47.5287 326.537 44.1529 317.528 40.7453C308.517 37.3368 299.593 34.5757 292.48 32.8631C288.908 32.0039 285.891 31.4319 283.605 31.1631C282.461 31.0282 281.608 30.9822 281.02 30.9914C280.448 30.9998 280.29 31.0567 280.265 31.0668C280.24 31.0751 280.091 31.1354 280.067 31.3523C280.043 31.5751 280.163 31.8975 280.52 32.3305C281.231 33.1956 282.743 34.3371 285.016 35.6879C289.543 38.3786 296.843 41.7544 305.853 45.1621C314.863 48.5705 323.787 51.3316 330.9 53.0434C334.472 53.9035 337.489 54.4755 339.775 54.7443C340.92 54.8791 341.772 54.9252 342.36 54.916ZM304.382 45.7181C322.55 52.5903 340.55 56.9234 344.586 55.3967C348.623 53.87 337.166 47.0614 318.998 40.1892C300.83 33.317 282.83 28.984 278.794 30.5107C274.758 32.0374 286.214 38.8459 304.382 45.7181Z" fill="white"/>
<path fill-rule="evenodd" clip-rule="evenodd" d="M286.346 35.2881C288.091 35.4639 289.126 36.1423 288.659 36.803C288.191 37.4629 286.397 37.854 284.652 37.6773C282.907 37.5015 281.872 36.8231 282.339 36.1624C282.807 35.5024 284.601 35.1113 286.346 35.2881ZM339.458 36.2821C341.204 36.4588 342.24 37.1372 341.772 37.7979C341.305 38.457 339.51 38.8489 337.765 38.6722C336.019 38.4955 334.983 37.8172 335.451 37.1564C335.918 36.4965 337.713 36.1054 339.458 36.2821ZM298.302 52.2156C300.048 52.3923 301.084 53.0707 300.617 53.7306C300.15 54.3897 298.355 54.7816 296.61 54.6041C294.863 54.4274 293.828 53.7499 294.295 53.0899C294.762 52.43 296.557 52.0389 298.302 52.2156ZM312.954 40.9032C315.911 41.203 317.664 42.352 316.872 43.4684C316.081 44.5864 313.042 45.2488 310.087 44.9498C307.131 44.65 305.377 43.5019 306.169 42.3847C306.961 41.2675 309.999 40.6043 312.954 40.9032Z" fill="white"/>
</g>
</g>
<g clip-path="url(#clip5_473_771)">
<path d="M345.022 263.54C355.474 261.317 364.965 257.812 372.84 253.265C380.714 248.718 386.784 243.238 390.631 237.204C394.477 231.17 396.007 224.726 395.116 218.318C394.225 211.909 390.934 205.688 385.47 200.086" stroke="url(#paint12_linear_473_771)" stroke-width="1.36059" stroke-linecap="round" stroke-linejoin="round"/>
</g>
<g clip-path="url(#clip6_473_771)">
<path d="M234.766 290.138C286.568 290.138 328.561 274.262 328.561 254.679V231.295H140.97V254.679C140.97 274.262 182.964 290.138 234.766 290.138Z" fill="url(#paint13_radial_473_771)"/>
<g filter="url(#filter0_ddd_473_771)">
<path d="M234.766 266.754C286.568 266.754 328.561 250.879 328.561 231.295C328.561 211.711 286.568 195.835 234.766 195.835C182.964 195.835 140.97 211.711 140.97 231.295C140.97 250.879 182.964 266.754 234.766 266.754Z" fill="url(#paint14_linear_473_771)"/>
</g>
<path opacity="0.5" d="M312.854 231.294C312.854 235.076 310.822 238.778 306.932 242.244C303.042 245.71 297.365 248.869 290.28 251.539C276.113 256.877 256.486 260.196 234.766 260.196C213.046 260.196 193.419 256.877 179.252 251.539C172.166 248.869 166.489 245.71 162.599 242.244C158.709 238.778 156.678 235.076 156.678 231.294C156.678 227.511 158.709 223.808 162.599 220.342C166.489 216.877 172.166 213.718 179.252 211.047C193.419 205.709 213.046 202.391 234.766 202.391C256.486 202.391 276.113 205.71 290.28 211.049C297.365 213.719 303.042 216.878 306.932 220.343C310.822 223.81 312.854 227.512 312.854 231.294V231.294Z" stroke="url(#paint15_linear_473_771)" stroke-width="1.67492"/>
<g style="mix-blend-mode:soft-light">
<path fill-rule="evenodd" clip-rule="evenodd" d="M246.97 215.295C246.663 215.112 246.454 215.088 246.419 215.085C246.384 215.081 246.171 215.062 245.663 215.163C245.141 215.266 244.463 215.467 243.649 215.799C242.026 216.464 240.167 217.529 238.21 218.948C234.313 221.774 230.234 225.85 226.936 230.501C223.639 235.154 221.782 239.455 221.419 242.639C221.237 244.237 221.438 245.511 221.965 246.394C222.23 246.836 222.552 247.138 222.867 247.325C223.174 247.509 223.383 247.533 223.418 247.536C223.453 247.54 223.666 247.559 224.173 247.458C224.695 247.354 225.373 247.154 226.187 246.821C227.811 246.157 229.67 245.092 231.626 243.673C235.523 240.847 239.603 236.771 242.9 232.119C246.197 227.467 248.055 223.166 248.418 219.982C248.6 218.383 248.399 217.11 247.871 216.227C247.607 215.785 247.285 215.483 246.97 215.295ZM244.908 232.322C251.557 222.943 252.475 214.884 246.956 214.325C241.439 213.766 231.577 220.918 224.928 230.299C218.279 239.678 217.362 247.736 222.879 248.296C228.397 248.854 238.259 241.703 244.908 232.322Z" fill="white"/>
<path fill-rule="evenodd" clip-rule="evenodd" d="M277.655 227.251C277.921 227.058 277.871 226.978 277.862 226.966C277.853 226.952 277.789 226.874 277.305 226.757C276.807 226.638 276.008 226.517 274.837 226.416C272.502 226.217 269.13 226.142 264.899 226.21C256.472 226.347 245.089 227.05 232.777 228.296C220.465 229.541 209.678 231.082 202.198 232.555C198.443 233.295 195.624 233.996 193.865 234.61C192.984 234.918 192.454 235.174 192.181 235.371C191.914 235.563 191.964 235.643 191.973 235.655C191.982 235.669 192.046 235.747 192.531 235.863C193.028 235.983 193.828 236.104 194.998 236.204C197.335 236.403 200.705 236.479 204.936 236.411C213.364 236.273 224.746 235.572 237.059 234.325C249.37 233.08 260.157 231.538 267.638 230.066C271.393 229.327 274.211 228.625 275.97 228.011C276.851 227.704 277.382 227.447 277.655 227.251ZM237.596 235.085C262.423 232.573 281.349 228.846 279.87 226.761C278.391 224.677 257.066 225.024 232.239 227.536C207.413 230.049 188.486 233.774 189.965 235.859C191.445 237.944 212.77 237.597 237.596 235.085Z" fill="white"/>
<path fill-rule="evenodd" clip-rule="evenodd" d="M265.588 243.273C266.16 243.264 266.318 243.208 266.343 243.198C266.368 243.188 266.517 243.128 266.541 242.911C266.565 242.689 266.444 242.367 266.087 241.933C265.376 241.069 263.865 239.927 261.592 238.576C257.065 235.886 249.765 232.51 240.755 229.102C231.745 225.694 222.821 222.933 215.708 221.22C212.136 220.361 209.118 219.789 206.833 219.52C205.688 219.385 204.836 219.339 204.248 219.348C203.676 219.357 203.517 219.414 203.492 219.424C203.467 219.432 203.318 219.492 203.295 219.709C203.27 219.932 203.391 220.254 203.748 220.687C204.459 221.553 205.97 222.694 208.243 224.045C212.771 226.736 220.071 230.111 229.08 233.519C238.09 236.927 247.014 239.689 254.128 241.4C257.699 242.26 260.717 242.832 263.002 243.101C264.147 243.236 265 243.282 265.588 243.273ZM227.61 234.075C245.777 240.947 263.778 245.28 267.813 243.754C271.85 242.227 260.394 235.418 242.226 228.546C224.058 221.674 206.057 217.341 202.022 218.868C197.985 220.394 209.442 227.203 227.61 234.075Z" fill="white"/>
<path fill-rule="evenodd" clip-rule="evenodd" d="M209.573 223.645C211.318 223.821 212.354 224.499 211.886 225.16C211.418 225.82 209.624 226.211 207.88 226.034C206.135 225.858 205.099 225.18 205.567 224.519C206.035 223.859 207.829 223.468 209.573 223.645ZM262.686 224.639C264.432 224.816 265.468 225.494 265 226.155C264.532 226.814 262.738 227.206 260.992 227.029C259.246 226.852 258.21 226.174 258.679 225.513C259.146 224.853 260.941 224.462 262.686 224.639ZM221.53 240.573C223.276 240.749 224.312 241.428 223.844 242.088C223.377 242.747 221.582 243.139 219.837 242.961C218.091 242.784 217.055 242.107 217.522 241.447C217.99 240.787 219.784 240.396 221.53 240.573ZM236.182 229.26C239.138 229.56 240.892 230.709 240.099 231.825C239.308 232.943 236.27 233.606 233.314 233.307C230.359 233.007 228.604 231.859 229.397 230.742C230.189 229.624 233.226 228.961 236.182 229.26Z" fill="white"/>
</g>
</g>
<defs>
<filter id="filter0_ddd_473_771" x="113.334" y="157.312" width="242.864" height="126.192" filterUnits="userSpaceOnUse" color-interpolation-filters="sRGB">
<feFlood flood-opacity="0" result="BackgroundImageFix"/>
<feColorMatrix in="SourceAlpha" type="matrix" values="0 0 0 0 0 0 0 0 0 0 0 0 0 0 0 0 0 0 127 0" result="hardAlpha"/>
<feOffset dy="-10.887"/>
<feGaussianBlur stdDeviation="13.8181"/>
<feColorMatrix type="matrix" values="0 0 0 0 0.404167 0 0 0 0 0.741154 0 0 0 0 1 0 0 0 0.4 0"/>
<feBlend mode="normal" in2="BackgroundImageFix" result="effect1_dropShadow_473_771"/>
<feColorMatrix in="SourceAlpha" type="matrix" values="0 0 0 0 0 0 0 0 0 0 0 0 0 0 0 0 0 0 127 0" result="hardAlpha"/>
<feOffset dy="1.556"/>
<feGaussianBlur stdDeviation="1.556"/>
<feColorMatrix type="matrix" values="0 0 0 0 1 0 0 0 0 1 0 0 0 0 1 0 0 0 0.25 0"/>
<feBlend mode="normal" in2="effect1_dropShadow_473_771" result="effect2_dropShadow_473_771"/>
<feColorMatrix in="SourceAlpha" type="matrix" values="0 0 0 0 0 0 0 0 0 0 0 0 0 0 0 0 0 0 127 0" result="hardAlpha"/>
<feOffset dy="-1.556"/>
<feGaussianBlur stdDeviation="0.564449"/>
<feComposite in2="hardAlpha" operator="out"/>
<feColorMatrix type="matrix" values="0 0 0 0 0.925 0 0 0 0 0.936947 0 0 0 0 1 0 0 0 0.12 0"/>
<feBlend mode="normal" in2="effect2_dropShadow_473_771" result="effect3_dropShadow_473_771"/>
<feBlend mode="normal" in="SourceGraphic" in2="effect3_dropShadow_473_771" result="shape"/>
</filter>
<linearGradient id="paint0_linear_473_771" x1="233.509" y1="180.256" x2="420.969" y2="180.256" gradientUnits="userSpaceOnUse">
<stop offset="0.78" stop-color="#000D4F" stop-opacity="0.16"/>
<stop offset="1" stop-color="#1A2F9F" stop-opacity="0"/>
</linearGradient>
<radialGradient id="paint1_radial_473_771" cx="0" cy="0" r="1" gradientUnits="userSpaceOnUse" gradientTransform="translate(315.504 172.296) rotate(73.401) scale(75.2826 108.171)">
<stop stop-color="#68E9F1"/>
<stop offset="0.604" stop-color="#86AFFF"/>
<stop offset="1" stop-color="#9492FF"/>
</radialGradient>
<linearGradient id="paint2_linear_473_771" x1="311.479" y1="116.03" x2="311.479" y2="186.262" gradientUnits="userSpaceOnUse">
<stop stop-color="#FD91FF"/>
<stop offset="0.344" stop-color="#A0A8FF"/>
<stop offset="0.947" stop-color="#C9F2FF"/>
</linearGradient>
<radialGradient id="paint3_radial_473_771" cx="0" cy="0" r="1" gradientUnits="userSpaceOnUse" gradientTransform="translate(295.27 144.031) rotate(73.401) scale(75.2826 108.171)">
<stop stop-color="#68E9F1"/>
<stop offset="0.604" stop-color="#86AFFF"/>
<stop offset="1" stop-color="#9492FF"/>
</radialGradient>
<linearGradient id="paint4_linear_473_771" x1="291.244" y1="87.764" x2="291.244" y2="157.996" gradientUnits="userSpaceOnUse">
<stop stop-color="#FD91FF"/>
<stop offset="0.344" stop-color="#A0A8FF"/>
<stop offset="0.947" stop-color="#C9F2FF"/>
</linearGradient>
<radialGradient id="paint5_radial_473_771" cx="0" cy="0" r="1" gradientUnits="userSpaceOnUse" gradientTransform="translate(315.504 118.343) rotate(73.401) scale(75.2826 108.171)">
<stop stop-color="#68E9F1"/>
<stop offset="0.604" stop-color="#86AFFF"/>
<stop offset="1" stop-color="#9492FF"/>
</radialGradient>
<linearGradient id="paint6_linear_473_771" x1="311.479" y1="62.0765" x2="311.479" y2="132.309" gradientUnits="userSpaceOnUse">
<stop stop-color="#FD91FF"/>
<stop offset="0.344" stop-color="#A0A8FF"/>
<stop offset="0.947" stop-color="#C9F2FF"/>
</linearGradient>
<radialGradient id="paint7_radial_473_771" cx="0" cy="0" r="1" gradientUnits="userSpaceOnUse" gradientTransform="translate(295.27 92.64) rotate(73.401) scale(75.2826 108.171)">
<stop stop-color="#68E9F1"/>
<stop offset="0.604" stop-color="#86AFFF"/>
<stop offset="1" stop-color="#9492FF"/>
</radialGradient>
<linearGradient id="paint8_linear_473_771" x1="291.244" y1="36.3734" x2="291.244" y2="106.606" gradientUnits="userSpaceOnUse">
<stop stop-color="#FD91FF"/>
<stop offset="0.344" stop-color="#A0A8FF"/>
<stop offset="0.947" stop-color="#C9F2FF"/>
</linearGradient>
<radialGradient id="paint9_radial_473_771" cx="0" cy="0" r="1" gradientUnits="userSpaceOnUse" gradientTransform="translate(315.504 66.9681) rotate(73.401) scale(75.2826 108.171)">
<stop stop-color="#68E9F1"/>
<stop offset="0.604" stop-color="#86AFFF"/>
<stop offset="1" stop-color="#9492FF"/>
</radialGradient>
<linearGradient id="paint10_linear_473_771" x1="311.479" y1="10.7015" x2="311.479" y2="80.9337" gradientUnits="userSpaceOnUse">
<stop stop-color="#FD91FF"/>
<stop offset="0.344" stop-color="#A0A8FF"/>
<stop offset="0.947" stop-color="#C9F2FF"/>
</linearGradient>
<linearGradient id="paint11_linear_473_771" x1="232.819" y1="16.0992" x2="395.679" y2="54.1308" gradientUnits="userSpaceOnUse">
<stop stop-color="white"/>
<stop offset="1" stop-color="white" stop-opacity="0"/>
</linearGradient>
<linearGradient id="paint12_linear_473_771" x1="372.804" y1="188.874" x2="366.924" y2="243.3" gradientUnits="userSpaceOnUse">
<stop offset="0.254598" stop-color="white" stop-opacity="0"/>
<stop offset="0.901042" stop-color="white"/>
</linearGradient>
<radialGradient id="paint13_radial_473_771" cx="0" cy="0" r="1" gradientUnits="userSpaceOnUse" gradientTransform="translate(238.83 259.035) rotate(70.2405) scale(64.2267 107.252)">
<stop stop-color="#68E9F1"/>
<stop offset="0.604" stop-color="#86AFFF"/>
<stop offset="1" stop-color="#9492FF"/>
</radialGradient>
<linearGradient id="paint14_linear_473_771" x1="234.766" y1="195.836" x2="234.766" y2="266.754" gradientUnits="userSpaceOnUse">
<stop stop-color="#FD91FF"/>
<stop offset="0.344" stop-color="#A0A8FF"/>
<stop offset="0.947" stop-color="#C9F2FF"/>
</linearGradient>
<linearGradient id="paint15_linear_473_771" x1="155.84" y1="201.553" x2="318.7" y2="239.584" gradientUnits="userSpaceOnUse">
<stop stop-color="white"/>
<stop offset="1" stop-color="white" stop-opacity="0"/>
</linearGradient>
<clipPath id="clip0_473_771">
<rect width="202.391" height="117.969" fill="white" transform="translate(218.578 105.922)"/>
</clipPath>
<clipPath id="clip1_473_771">
<rect width="202.391" height="117.969" fill="white" transform="translate(198.344 77.6562)"/>
</clipPath>
<clipPath id="clip2_473_771">
<rect width="202.391" height="117.969" fill="white" transform="translate(218.578 51.9688)"/>
</clipPath>
<clipPath id="clip3_473_771">
<rect width="202.391" height="117.969" fill="white" transform="translate(198.344 26.2656)"/>
</clipPath>
<clipPath id="clip4_473_771">
<rect width="202.391" height="117.969" fill="white" transform="translate(218.578 0.59375)"/>
</clipPath>
<clipPath id="clip5_473_771">
<rect width="52.6094" height="71.9688" fill="white" transform="translate(344.062 195.859)"/>
</clipPath>
<clipPath id="clip6_473_771">
<rect width="242.864" height="133.156" fill="white" transform="translate(113.334 157.312)"/>
</clipPath>
</defs>
</svg>
