<svg width="65" height="65" viewBox="0 0 65 65" fill="none" xmlns="http://www.w3.org/2000/svg">
<rect x="0.65625" y="0.5" width="64" height="64" rx="16" fill="white" fill-opacity="0.1"/>
<path d="M40.7795 36.0625H57.6842L64.8559 41.6932L40.7795 64.7298L16.7031 41.6932L31.815 36.5742L40.7795 36.0625Z" fill="url(#paint0_linear_473_234)"/>
<path d="M40.7796 64.7282L26.436 47.3237H55.1228L40.7796 64.7282Z" fill="url(#paint1_linear_473_234)"/>
<path d="M55.1228 47.3235L64.8559 41.6928L40.7795 18.6562L16.7031 41.6928L26.4362 47.3235H55.1228Z" fill="url(#paint2_linear_473_234)"/>
<path d="M40.7798 18.6582L55.1231 47.3244H26.4365L40.7798 18.6582Z" fill="url(#paint3_linear_473_234)"/>
<defs>
<linearGradient id="paint0_linear_473_234" x1="54.0985" y1="36.0625" x2="54.0985" y2="72.4082" gradientUnits="userSpaceOnUse">
<stop stop-color="#78CCFB"/>
<stop offset="1" stop-color="#00BD90"/>
</linearGradient>
<linearGradient id="paint1_linear_473_234" x1="40.7796" y1="72.4066" x2="40.7796" y2="47.3237" gradientUnits="userSpaceOnUse">
<stop stop-color="#17DAB0"/>
<stop offset="1" stop-color="#58E1FF"/>
</linearGradient>
<linearGradient id="paint2_linear_473_234" x1="27.2684" y1="57.0496" x2="27.2684" y2="10.9778" gradientUnits="userSpaceOnUse">
<stop stop-color="#86F8FF"/>
<stop offset="1" stop-color="#ECA2FF"/>
</linearGradient>
<linearGradient id="paint3_linear_473_234" x1="40.5609" y1="10.9798" x2="40.5609" y2="47.3244" gradientUnits="userSpaceOnUse">
<stop stop-color="#DEB5FF"/>
<stop offset="1" stop-color="#A7FAFF"/>
</linearGradient>
</defs>
</svg>
