<svg width="342" height="299" viewBox="0 0 342 299" fill="none" xmlns="http://www.w3.org/2000/svg">
<g clip-path="url(#clip0_473_1105)">
<path d="M146.442 91.1723C192.962 103.637 234.494 99.4851 239.206 81.8987L244.833 60.8994L76.3691 15.7598L70.7424 36.7591C66.0301 54.3455 99.9218 78.7073 146.442 91.1723Z" fill="url(#paint0_radial_473_1105)"/>
<g filter="url(#filter0_ddd_473_1105)">
<path d="M152.068 70.1722C198.588 82.6371 240.12 78.4849 244.833 60.8979C249.545 43.3108 215.654 18.9489 169.134 6.4839C122.614 -5.98108 81.0817 -1.82883 76.3692 15.7582C71.6568 33.3452 105.549 57.7072 152.068 70.1722Z" fill="url(#paint1_linear_473_1105)"/>
</g>
<path opacity="0.5" d="M230.727 57.1179C229.817 60.5142 227.101 63.3502 222.773 65.5268C218.446 67.7028 212.588 69.1737 205.582 69.8671C191.576 71.2519 173.152 69.5096 153.646 64.2831C134.141 59.0566 117.314 51.3534 105.876 43.1508C100.155 39.0472 95.8173 34.8446 93.1578 30.7964C90.4978 26.7474 89.5649 22.9338 90.475 19.5375C91.3852 16.1404 94.0999 13.3041 98.4281 11.1276C102.755 8.95155 108.613 7.48062 115.62 6.7875C129.626 5.40266 148.05 7.1457 167.556 12.3722C187.061 17.5988 203.888 25.3019 215.326 33.5052C221.046 37.6079 225.384 41.8106 228.043 45.8587C230.703 49.9085 231.637 53.7215 230.727 57.1186L230.727 57.1179Z" stroke="url(#paint2_linear_473_1105)" stroke-width="1.5572"/>
<g style="mix-blend-mode:soft-light">
<path fill-rule="evenodd" clip-rule="evenodd" d="M175.411 26.8968C175.179 26.6589 174.998 26.5869 174.967 26.5754C174.936 26.564 174.75 26.4955 174.269 26.4634C173.775 26.4311 173.119 26.4478 172.308 26.5505C170.689 26.7569 168.764 27.2664 166.665 28.0695C162.485 29.6698 157.842 32.3488 153.761 35.7322C149.681 39.1166 146.977 42.5322 145.886 45.3044C145.338 46.6963 145.212 47.8886 145.472 48.808C145.604 49.2688 145.821 49.6171 146.058 49.8614C146.29 50.1 146.472 50.172 146.502 50.1835C146.533 50.195 146.72 50.2634 147.199 50.2953C147.693 50.3276 148.35 50.3111 149.162 50.2076C150.78 50.002 152.705 49.4925 154.803 48.6892C158.983 47.0889 163.627 44.4101 167.708 41.0258C171.788 37.6421 174.492 34.2267 175.583 31.4546C176.132 30.0618 176.257 28.8703 175.996 27.9507C175.865 27.4901 175.648 27.1418 175.411 26.8968ZM169.462 41.6917C177.69 34.8684 180.453 27.8529 175.632 26.0227C170.812 24.1935 160.234 28.2421 152.006 35.067C143.779 41.8903 141.016 48.9061 145.836 50.736C150.656 52.5653 161.234 48.5166 169.462 41.6917Z" fill="white"/>
<path fill-rule="evenodd" clip-rule="evenodd" d="M200.09 45.0169C200.375 44.908 200.35 44.8246 200.345 44.8111C200.34 44.7969 200.301 44.7109 199.894 44.4897C199.476 44.2632 198.788 43.9619 197.76 43.5899C195.711 42.8489 192.701 41.9699 188.885 41.0135C181.284 39.1082 170.893 37.0002 159.536 35.1566C148.18 33.3124 138.122 32.1005 131.05 31.6234C127.5 31.3839 124.8 31.3359 123.073 31.4639C122.208 31.528 121.67 31.6305 121.377 31.7416C121.092 31.8505 121.117 31.9338 121.122 31.9473C121.127 31.9615 121.166 32.0476 121.573 32.268C121.991 32.4953 122.68 32.7968 123.707 33.1678C125.757 33.909 128.766 34.7885 132.582 35.7449C140.183 37.6494 150.574 39.7582 161.931 41.6018C173.287 43.446 183.345 44.6572 190.417 45.135C193.967 45.3745 196.667 45.4224 198.394 45.2945C199.259 45.2305 199.797 45.1279 200.09 45.0169ZM162.231 42.4133C185.13 46.1311 203.024 47.3387 202.197 45.1109C201.37 42.8829 182.136 38.0628 159.236 34.3451C136.337 30.6273 118.443 29.419 119.27 31.6468C120.097 33.8755 139.331 38.6956 162.231 42.4133Z" fill="white"/>
<path fill-rule="evenodd" clip-rule="evenodd" d="M185.398 56.5015C185.914 56.6309 186.07 56.6186 186.094 56.6163C186.119 56.6133 186.268 56.5951 186.341 56.4059C186.416 56.2125 186.386 55.8939 186.17 55.4185C185.739 54.4713 184.656 53.0825 182.94 51.3225C179.522 47.8167 173.778 43.0284 166.508 37.8004C159.236 32.5713 151.887 27.9444 145.911 24.6947C142.91 23.0636 140.338 21.8239 138.35 21.0326C137.354 20.636 136.6 20.3895 136.07 20.2563C135.554 20.1262 135.398 20.1392 135.373 20.1422C135.349 20.1437 135.2 20.162 135.127 20.3511C135.052 20.5453 135.082 20.8639 135.298 21.3386C135.729 22.2865 136.812 23.6753 138.528 25.4353C141.946 28.9411 147.689 33.7293 154.96 38.9574C162.232 44.1865 169.581 48.8134 175.557 52.0623C178.558 53.6942 181.13 54.9339 183.118 55.7252C184.113 56.1218 184.868 56.3683 185.398 56.5015ZM153.506 39.1029C168.168 49.6461 183.29 57.8687 187.281 57.4688C191.274 57.0691 182.624 48.198 167.962 37.6548C153.3 27.1117 138.178 18.8891 134.186 19.289C130.194 19.6887 138.844 28.5598 153.506 39.1029Z" fill="white"/>
<path fill-rule="evenodd" clip-rule="evenodd" d="M139.818 25.3964C141.343 25.9743 142.109 26.8325 141.531 27.3134C140.951 27.7934 139.246 27.713 137.722 27.1345C136.197 26.5566 135.431 25.6984 136.01 25.2175C136.589 24.7375 138.294 24.8179 139.818 25.3964ZM187.276 39.0694C188.801 39.6483 189.568 40.5067 188.989 40.9875C188.411 41.4669 186.705 41.387 185.18 40.8084C183.654 40.2295 182.887 39.3711 183.467 38.8903C184.045 38.4102 185.751 38.4908 187.276 39.0694ZM146.482 43.475C148.007 44.0538 148.775 44.9123 148.196 45.3925C147.618 45.8719 145.912 45.792 144.387 45.2126C142.862 44.6338 142.094 43.7761 142.673 43.2959C143.251 42.8157 144.957 42.8963 146.482 43.475ZM162.362 36.8418C164.945 37.8224 166.243 39.2762 165.263 40.088C164.283 40.9016 161.395 40.7654 158.813 39.7858C156.231 38.8054 154.932 37.3521 155.912 36.5395C156.893 35.7269 159.78 35.8621 162.362 36.8418Z" fill="white"/>
</g>
</g>
<g clip-path="url(#clip1_473_1105)">
<path d="M190.353 241.925C232.061 266.005 273.253 272.744 282.356 256.976L293.226 238.149L142.187 150.946L131.317 169.774C122.213 185.541 148.645 217.844 190.353 241.925Z" fill="url(#paint3_radial_473_1105)"/>
<g filter="url(#filter1_ddd_473_1105)">
<path d="M201.223 223.098C242.932 247.178 284.123 253.917 293.227 238.149C302.33 222.381 275.899 190.077 234.191 165.997C192.482 141.916 151.291 135.178 142.187 150.946C133.084 166.714 159.515 199.017 201.223 223.098Z" fill="url(#paint4_linear_473_1105)"/>
</g>
<path opacity="0.5" d="M280.58 230.846C278.822 233.891 275.465 235.927 270.721 236.91C265.978 237.891 259.939 237.796 252.993 236.653C239.105 234.365 221.76 227.914 204.271 217.817C186.783 207.72 172.524 195.924 163.599 185.041C159.134 179.597 156.033 174.415 154.511 169.816C152.99 165.217 153.076 161.292 154.834 158.246C156.593 155.201 159.949 153.164 164.693 152.182C169.436 151.2 175.474 151.295 182.422 152.439C196.309 154.726 213.654 161.178 231.142 171.275C248.631 181.372 262.89 193.168 271.815 204.052C276.279 209.495 279.381 214.677 280.902 219.276C282.423 223.876 282.338 227.801 280.579 230.846L280.58 230.846Z" stroke="url(#paint5_linear_473_1105)" stroke-width="1.55719"/>
<g style="mix-blend-mode:soft-light">
<path fill-rule="evenodd" clip-rule="evenodd" d="M234.971 187.338C234.808 187.048 234.651 186.932 234.625 186.913C234.598 186.894 234.436 186.779 233.98 186.624C233.511 186.465 232.873 186.311 232.063 186.201C230.446 185.981 228.455 185.975 226.22 186.207C221.768 186.671 216.589 188.057 211.772 190.269C206.954 192.482 203.459 195.082 201.687 197.477C200.798 198.68 200.368 199.799 200.381 200.754C200.389 201.233 200.508 201.626 200.675 201.923C200.837 202.214 200.993 202.33 201.02 202.349C201.047 202.368 201.209 202.483 201.665 202.638C202.133 202.797 202.772 202.951 203.583 203.061C205.199 203.281 207.19 203.287 209.425 203.054C213.877 202.59 219.056 201.205 223.873 198.992C228.69 196.78 232.186 194.18 233.958 191.785C234.847 190.582 235.277 189.464 235.263 188.508C235.256 188.029 235.137 187.636 234.971 187.338ZM225.395 200.089C235.109 195.628 239.593 189.567 235.411 186.551C231.228 183.537 219.963 184.71 210.249 189.172C200.536 193.634 196.051 199.695 200.234 202.711C204.416 205.725 215.681 204.552 225.395 200.089Z" fill="white"/>
<path fill-rule="evenodd" clip-rule="evenodd" d="M254.119 211.229C254.423 211.197 254.42 211.11 254.418 211.096C254.417 211.081 254.403 210.988 254.066 210.669C253.721 210.342 253.134 209.873 252.238 209.247C250.45 208.001 247.771 206.373 244.332 204.462C237.484 200.654 227.992 195.929 217.5 191.208C207.008 186.488 197.606 182.714 190.899 180.423C187.532 179.273 184.936 178.527 183.234 178.204C182.382 178.042 181.836 178.002 181.525 178.034C181.221 178.065 181.224 178.152 181.225 178.166C181.226 178.181 181.241 178.274 181.578 178.593C181.923 178.92 182.51 179.39 183.406 180.014C185.194 181.261 187.873 182.889 191.311 184.8C198.161 188.607 207.652 193.334 218.144 198.054C228.636 202.774 238.038 206.547 244.745 208.839C248.112 209.989 250.707 210.734 252.409 211.058C253.262 211.22 253.808 211.26 254.119 211.229ZM218.224 198.915C239.381 208.433 256.352 214.231 256.13 211.865C255.908 209.499 238.577 199.865 217.42 190.347C196.263 180.829 179.292 175.031 179.514 177.397C179.736 179.763 197.067 189.397 218.224 198.915Z" fill="white"/>
<path fill-rule="evenodd" clip-rule="evenodd" d="M236.955 218.52C237.42 218.778 237.573 218.807 237.598 218.811C237.623 218.814 237.771 218.835 237.89 218.671C238.013 218.504 238.066 218.188 237.98 217.673C237.81 216.647 237.123 215.025 235.921 212.881C233.527 208.61 229.218 202.498 223.548 195.567C217.878 188.634 211.977 182.262 207.045 177.577C204.569 175.225 202.405 173.362 200.69 172.083C199.831 171.442 199.166 171.009 198.688 170.743C198.224 170.484 198.07 170.456 198.045 170.452C198.021 170.447 197.873 170.427 197.753 170.59C197.63 170.758 197.577 171.074 197.663 171.588C197.834 172.616 198.52 174.237 199.722 176.381C202.117 180.652 206.425 186.764 212.095 193.696C217.765 200.629 223.667 207 228.598 211.685C231.074 214.038 233.238 215.901 234.953 217.18C235.812 217.82 236.477 218.254 236.955 218.52ZM210.652 193.46C222.086 207.438 234.565 219.295 238.524 219.942C242.483 220.589 236.424 209.781 224.991 195.803C213.558 181.824 201.079 169.968 197.12 169.321C193.16 168.674 199.219 179.481 210.652 193.46Z" fill="white"/>
<path fill-rule="evenodd" clip-rule="evenodd" d="M200.979 176.677C202.302 177.63 202.821 178.657 202.137 178.972C201.453 179.286 199.827 178.767 198.505 177.814C197.181 176.861 196.663 175.834 197.347 175.519C198.03 175.205 199.657 175.724 200.979 176.677ZM243.281 202.167C244.604 203.121 245.123 204.149 244.439 204.463C243.756 204.777 242.129 204.258 240.806 203.305C239.482 202.351 238.964 201.323 239.648 201.008C240.331 200.694 241.958 201.214 243.281 202.167ZM202.737 195.865C204.061 196.818 204.579 197.846 203.896 198.16C203.214 198.474 201.587 197.955 200.264 197.001C198.94 196.047 198.421 195.02 199.104 194.706C199.787 194.392 201.414 194.911 202.737 195.865ZM219.793 193.567C222.034 195.183 222.911 196.923 221.755 197.454C220.598 197.986 217.843 197.107 215.603 195.493C213.363 193.877 212.484 192.137 213.641 191.606C214.798 191.075 217.552 191.953 219.793 193.567Z" fill="white"/>
</g>
</g>
<g clip-path="url(#clip2_473_1105)">
<path d="M157.54 177.634C206.609 164.486 242.357 138.79 237.386 120.24L231.451 98.091L53.7603 145.703L59.6952 167.853C64.6656 186.402 108.472 190.782 157.54 177.634Z" fill="url(#paint6_radial_473_1105)"/>
<g filter="url(#filter2_ddd_473_1105)">
<path d="M151.606 155.484C200.674 142.336 236.422 116.64 231.451 98.0895C226.481 79.5392 182.674 75.1595 133.606 88.3072C84.5377 101.455 48.7897 127.151 53.7602 145.702C58.7308 164.252 102.538 168.632 151.606 155.484Z" fill="url(#paint7_linear_473_1105)"/>
</g>
<path opacity="0.5" d="M216.573 102.076C217.532 105.659 216.548 109.681 213.742 113.952C210.937 118.222 206.362 122.655 200.328 126.983C188.264 135.635 170.515 143.76 149.941 149.273C129.367 154.786 109.934 156.623 95.1601 155.163C87.7697 154.431 81.5912 152.88 77.0269 150.585C72.4617 148.289 69.5983 145.297 68.6384 141.715C67.6783 138.132 68.6623 134.109 71.468 129.839C74.2732 125.569 78.8481 121.136 84.8829 116.807C96.9469 108.156 114.696 100.031 135.27 94.5185C155.844 89.0057 175.277 87.168 190.051 88.6294C197.44 89.3599 203.619 90.9114 208.183 93.2067C212.749 95.5032 215.613 98.4938 216.573 102.077L216.573 102.076Z" stroke="url(#paint8_linear_473_1105)" stroke-width="1.64249"/>
<g style="mix-blend-mode:soft-light">
<path fill-rule="evenodd" clip-rule="evenodd" d="M150.105 103.643C149.768 103.548 149.564 103.578 149.53 103.584C149.496 103.589 149.29 103.625 148.834 103.849C148.366 104.08 147.775 104.442 147.088 104.963C145.719 106.005 144.229 107.486 142.735 109.326C139.761 112.993 136.932 117.889 134.989 123.132C133.046 128.375 132.378 132.921 132.843 136.029C133.077 137.589 133.59 138.745 134.313 139.447C134.676 139.799 135.058 140.002 135.404 140.1C135.742 140.196 135.945 140.166 135.98 140.16C136.014 140.155 136.22 140.119 136.675 139.895C137.143 139.664 137.735 139.302 138.421 138.78C139.791 137.739 141.281 136.258 142.774 134.418C145.748 130.751 148.578 125.855 150.52 120.612C152.463 115.369 153.131 110.823 152.667 107.715C152.433 106.154 151.919 104.999 151.196 104.297C150.833 103.945 150.451 103.741 150.105 103.643ZM152.474 120.295C156.391 109.723 155.215 101.857 149.847 102.728C144.479 103.599 136.952 112.876 133.035 123.449C129.118 134.021 130.294 141.887 135.662 141.016C141.03 140.145 148.557 130.868 152.474 120.295Z" fill="white"/>
<path fill-rule="evenodd" clip-rule="evenodd" d="M182.205 107.18C182.408 106.93 182.341 106.867 182.329 106.857C182.317 106.847 182.237 106.788 181.748 106.801C181.247 106.815 180.459 106.903 179.324 107.105C177.061 107.509 173.849 108.293 169.858 109.432C161.911 111.7 151.307 115.255 139.961 119.56C128.615 123.864 118.788 128.062 112.076 131.356C108.707 133.009 106.215 134.39 104.705 135.417C103.948 135.932 103.511 136.309 103.303 136.565C103.099 136.815 103.166 136.878 103.178 136.887C103.19 136.898 103.271 136.956 103.759 136.943C104.261 136.93 105.049 136.842 106.183 136.639C108.447 136.235 111.659 135.452 115.649 134.313C123.597 132.044 134.201 128.49 145.547 124.185C156.893 119.88 166.719 115.682 173.431 112.389C176.8 110.735 179.292 109.355 180.802 108.327C181.559 107.813 181.996 107.435 182.205 107.18ZM146.249 124.768C169.128 116.087 186.109 107.753 184.18 106.154C182.249 104.555 162.137 110.296 139.258 118.977C116.38 127.658 99.3977 135.991 101.328 137.59C103.259 139.19 123.37 133.449 146.249 124.768Z" fill="white"/>
<path fill-rule="evenodd" clip-rule="evenodd" d="M174.841 125.419C175.381 125.265 175.517 125.172 175.538 125.157C175.559 125.141 175.685 125.046 175.652 124.834C175.619 124.618 175.423 124.343 174.975 124.023C174.082 123.385 172.361 122.687 169.865 121.984C164.893 120.585 157.122 119.24 147.723 118.299C138.323 117.357 129.169 117.007 121.997 117.19C118.395 117.282 115.392 117.507 113.159 117.832C112.04 117.995 111.221 118.168 110.667 118.325C110.127 118.479 109.991 118.573 109.97 118.589C109.949 118.603 109.823 118.698 109.855 118.909C109.889 119.126 110.085 119.401 110.533 119.721C111.426 120.36 113.148 121.057 115.643 121.76C120.615 123.16 128.386 124.505 137.785 125.446C147.185 126.387 156.339 126.738 163.511 126.554C167.113 126.462 170.116 126.238 172.349 125.912C173.468 125.75 174.287 125.577 174.841 125.419ZM136.533 126.346C155.487 128.244 173.637 127.78 177.072 125.309C180.508 122.839 167.928 119.297 148.975 117.399C130.022 115.5 111.871 115.965 108.436 118.435C105 120.906 117.58 124.447 136.533 126.346Z" fill="white"/>
<path fill-rule="evenodd" clip-rule="evenodd" d="M116.801 121.045C118.499 120.768 119.652 121.148 119.377 121.893C119.101 122.637 117.501 123.462 115.804 123.738C114.106 124.014 112.953 123.634 113.228 122.89C113.504 122.146 115.104 121.32 116.801 121.045ZM167.363 108.506C169.062 108.23 170.215 108.61 169.94 109.354C169.664 110.097 168.064 110.924 166.366 111.2C164.667 111.475 163.513 111.096 163.789 110.351C164.064 109.607 165.665 108.781 167.363 108.506ZM132.423 134.044C134.122 133.768 135.275 134.148 135 134.892C134.725 135.635 133.124 136.461 131.426 136.736C129.727 137.012 128.574 136.633 128.849 135.89C129.124 135.146 130.725 134.32 132.423 134.044ZM143.431 119.61C146.307 119.144 148.26 119.787 147.793 121.045C147.327 122.305 144.617 123.704 141.742 124.171C138.866 124.637 136.913 123.995 137.38 122.735C137.847 121.476 140.555 120.077 143.431 119.61Z" fill="white"/>
</g>
</g>
<defs>
<filter id="filter0_ddd_473_1105" x="50.2378" y="-36.5216" width="220.726" height="129.456" filterUnits="userSpaceOnUse" color-interpolation-filters="sRGB">
<feFlood flood-opacity="0" result="BackgroundImageFix"/>
<feColorMatrix in="SourceAlpha" type="matrix" values="0 0 0 0 0 0 0 0 0 0 0 0 0 0 0 0 0 0 127 0" result="hardAlpha"/>
<feOffset dy="-10.1218"/>
<feGaussianBlur stdDeviation="12.8469"/>
<feColorMatrix type="matrix" values="0 0 0 0 0.404167 0 0 0 0 0.741154 0 0 0 0 1 0 0 0 0.4 0"/>
<feBlend mode="normal" in2="BackgroundImageFix" result="effect1_dropShadow_473_1105"/>
<feColorMatrix in="SourceAlpha" type="matrix" values="0 0 0 0 0 0 0 0 0 0 0 0 0 0 0 0 0 0 127 0" result="hardAlpha"/>
<feOffset dy="1.44664"/>
<feGaussianBlur stdDeviation="1.44664"/>
<feColorMatrix type="matrix" values="0 0 0 0 1 0 0 0 0 1 0 0 0 0 1 0 0 0 0.25 0"/>
<feBlend mode="normal" in2="effect1_dropShadow_473_1105" result="effect2_dropShadow_473_1105"/>
<feColorMatrix in="SourceAlpha" type="matrix" values="0 0 0 0 0 0 0 0 0 0 0 0 0 0 0 0 0 0 127 0" result="hardAlpha"/>
<feOffset dy="-1.44664"/>
<feGaussianBlur stdDeviation="0.524776"/>
<feComposite in2="hardAlpha" operator="out"/>
<feColorMatrix type="matrix" values="0 0 0 0 0.925 0 0 0 0 0.936947 0 0 0 0 1 0 0 0 0.12 0"/>
<feBlend mode="normal" in2="effect2_dropShadow_473_1105" result="effect3_dropShadow_473_1105"/>
<feBlend mode="normal" in="SourceGraphic" in2="effect3_dropShadow_473_1105" result="shape"/>
</filter>
<filter id="filter1_ddd_473_1105" x="114.699" y="106.608" width="206.015" height="155.634" filterUnits="userSpaceOnUse" color-interpolation-filters="sRGB">
<feFlood flood-opacity="0" result="BackgroundImageFix"/>
<feColorMatrix in="SourceAlpha" type="matrix" values="0 0 0 0 0 0 0 0 0 0 0 0 0 0 0 0 0 0 127 0" result="hardAlpha"/>
<feOffset dy="-10.1217"/>
<feGaussianBlur stdDeviation="12.8468"/>
<feColorMatrix type="matrix" values="0 0 0 0 0.404167 0 0 0 0 0.741154 0 0 0 0 1 0 0 0 0.4 0"/>
<feBlend mode="normal" in2="BackgroundImageFix" result="effect1_dropShadow_473_1105"/>
<feColorMatrix in="SourceAlpha" type="matrix" values="0 0 0 0 0 0 0 0 0 0 0 0 0 0 0 0 0 0 127 0" result="hardAlpha"/>
<feOffset dy="1.44663"/>
<feGaussianBlur stdDeviation="1.44663"/>
<feColorMatrix type="matrix" values="0 0 0 0 1 0 0 0 0 1 0 0 0 0 1 0 0 0 0.25 0"/>
<feBlend mode="normal" in2="effect1_dropShadow_473_1105" result="effect2_dropShadow_473_1105"/>
<feColorMatrix in="SourceAlpha" type="matrix" values="0 0 0 0 0 0 0 0 0 0 0 0 0 0 0 0 0 0 127 0" result="hardAlpha"/>
<feOffset dy="-1.44663"/>
<feGaussianBlur stdDeviation="0.524773"/>
<feComposite in2="hardAlpha" operator="out"/>
<feColorMatrix type="matrix" values="0 0 0 0 0.925 0 0 0 0 0.936947 0 0 0 0 1 0 0 0 0.12 0"/>
<feBlend mode="normal" in2="effect2_dropShadow_473_1105" result="effect3_dropShadow_473_1105"/>
<feBlend mode="normal" in="SourceGraphic" in2="effect3_dropShadow_473_1105" result="shape"/>
</filter>
<filter id="filter2_ddd_473_1105" x="26.1977" y="42.9453" width="232.816" height="136.548" filterUnits="userSpaceOnUse" color-interpolation-filters="sRGB">
<feFlood flood-opacity="0" result="BackgroundImageFix"/>
<feColorMatrix in="SourceAlpha" type="matrix" values="0 0 0 0 0 0 0 0 0 0 0 0 0 0 0 0 0 0 127 0" result="hardAlpha"/>
<feOffset dy="-10.6762"/>
<feGaussianBlur stdDeviation="13.5506"/>
<feColorMatrix type="matrix" values="0 0 0 0 0.404167 0 0 0 0 0.741154 0 0 0 0 1 0 0 0 0.4 0"/>
<feBlend mode="normal" in2="BackgroundImageFix" result="effect1_dropShadow_473_1105"/>
<feColorMatrix in="SourceAlpha" type="matrix" values="0 0 0 0 0 0 0 0 0 0 0 0 0 0 0 0 0 0 127 0" result="hardAlpha"/>
<feOffset dy="1.52588"/>
<feGaussianBlur stdDeviation="1.52588"/>
<feColorMatrix type="matrix" values="0 0 0 0 1 0 0 0 0 1 0 0 0 0 1 0 0 0 0.25 0"/>
<feBlend mode="normal" in2="effect1_dropShadow_473_1105" result="effect2_dropShadow_473_1105"/>
<feColorMatrix in="SourceAlpha" type="matrix" values="0 0 0 0 0 0 0 0 0 0 0 0 0 0 0 0 0 0 127 0" result="hardAlpha"/>
<feOffset dy="-1.52588"/>
<feGaussianBlur stdDeviation="0.55352"/>
<feComposite in2="hardAlpha" operator="out"/>
<feColorMatrix type="matrix" values="0 0 0 0 0.925 0 0 0 0 0.936947 0 0 0 0 1 0 0 0 0.12 0"/>
<feBlend mode="normal" in2="effect2_dropShadow_473_1105" result="effect3_dropShadow_473_1105"/>
<feBlend mode="normal" in="SourceGraphic" in2="effect3_dropShadow_473_1105" result="shape"/>
</filter>
<radialGradient id="paint0_radial_473_1105" cx="0" cy="0" r="1" gradientUnits="userSpaceOnUse" gradientTransform="translate(157.576 64.2191) rotate(85.2405) scale(59.7125 99.7137)">
<stop stop-color="#68E9F1"/>
<stop offset="0.604" stop-color="#86AFFF"/>
<stop offset="1" stop-color="#9492FF"/>
</radialGradient>
<linearGradient id="paint1_linear_473_1105" x1="169.133" y1="6.48465" x2="152.068" y2="70.1722" gradientUnits="userSpaceOnUse">
<stop stop-color="#FD91FF"/>
<stop offset="0.344" stop-color="#A0A8FF"/>
<stop offset="0.947" stop-color="#C9F2FF"/>
</linearGradient>
<linearGradient id="paint2_linear_473_1105" x1="96.8793" y1="-7.37231" x2="233.982" y2="65.9701" gradientUnits="userSpaceOnUse">
<stop stop-color="white"/>
<stop offset="1" stop-color="white" stop-opacity="0"/>
</linearGradient>
<radialGradient id="paint3_radial_473_1105" cx="0" cy="0" r="1" gradientUnits="userSpaceOnUse" gradientTransform="translate(208.083 218.772) rotate(100.241) scale(59.7122 99.7131)">
<stop stop-color="#68E9F1"/>
<stop offset="0.604" stop-color="#86AFFF"/>
<stop offset="1" stop-color="#9492FF"/>
</radialGradient>
<linearGradient id="paint4_linear_473_1105" x1="234.19" y1="165.998" x2="201.223" y2="223.098" gradientUnits="userSpaceOnUse">
<stop stop-color="#FD91FF"/>
<stop offset="0.344" stop-color="#A0A8FF"/>
<stop offset="0.947" stop-color="#C9F2FF"/>
</linearGradient>
<linearGradient id="paint5_linear_473_1105" x1="167.985" y1="133.911" x2="281.433" y2="240.239" gradientUnits="userSpaceOnUse">
<stop stop-color="white"/>
<stop offset="1" stop-color="white" stop-opacity="0"/>
</linearGradient>
<radialGradient id="paint6_radial_473_1105" cx="0" cy="0" r="1" gradientUnits="userSpaceOnUse" gradientTransform="translate(153.496 147.142) rotate(55.2405) scale(62.9832 105.175)">
<stop stop-color="#68E9F1"/>
<stop offset="0.604" stop-color="#86AFFF"/>
<stop offset="1" stop-color="#9492FF"/>
</radialGradient>
<linearGradient id="paint7_linear_473_1105" x1="133.606" y1="88.308" x2="151.606" y2="155.484" gradientUnits="userSpaceOnUse">
<stop stop-color="#FD91FF"/>
<stop offset="0.344" stop-color="#A0A8FF"/>
<stop offset="0.947" stop-color="#C9F2FF"/>
</linearGradient>
<linearGradient id="paint8_linear_473_1105" x1="60.2967" y1="113.756" x2="224.215" y2="108.446" gradientUnits="userSpaceOnUse">
<stop stop-color="white"/>
<stop offset="1" stop-color="white" stop-opacity="0"/>
</linearGradient>
<clipPath id="clip0_473_1105">
<rect width="225.794" height="123.797" fill="white" transform="translate(69.353 -57.3301) rotate(15)"/>
</clipPath>
<clipPath id="clip1_473_1105">
<rect width="225.793" height="123.797" fill="white" transform="translate(154.327 78.5322) rotate(30)"/>
</clipPath>
<clipPath id="clip2_473_1105">
<rect width="238.162" height="130.578" fill="white" transform="translate(8.80518 82.6387) rotate(-15)"/>
</clipPath>
</defs>
</svg>
