<svg width="238" height="224" viewBox="0 0 238 224" fill="none" xmlns="http://www.w3.org/2000/svg">
<path fill-rule="evenodd" clip-rule="evenodd" d="M77.438 4.64605L44.0434 23.6667V61.7089L77.438 80.7295L110.832 61.7089V23.6667L77.438 4.64605ZM114.396 21.6374L77.438 0.586426L40.4805 21.6374V63.7392L77.438 84.7901L114.396 63.7392V21.6374ZM77.688 143.506L44.2934 162.527V200.569L77.688 219.59L111.082 200.569V162.527L77.688 143.506ZM114.646 160.498L77.688 139.447L40.7304 160.498V202.599L77.688 223.649L114.646 202.599V160.498ZM3.56392 93.0988L36.9575 74.0782L70.3521 93.0988V131.141L36.9575 150.162L3.56392 131.141V93.0988ZM36.9575 70.0186L73.9161 91.0695V133.171L36.9575 154.221L0 133.171V91.0695L36.9575 70.0186ZM118.417 74.0782L85.0239 93.0988V131.141L118.417 150.162L151.812 131.141V93.0988L118.417 74.0782ZM155.376 91.0695L118.417 70.0186L81.46 91.0695V133.171L118.417 154.221L155.376 133.171V91.0695ZM166.734 93.0988L200.128 74.0782L233.522 93.0988V131.141L200.128 150.162L166.734 131.141V93.0988ZM200.128 70.0186L237.086 91.0695V133.171L200.128 154.221L163.17 133.171V91.0695L200.128 70.0186ZM159.747 4.64605L149.82 10.3L126.352 23.6667V61.7089L159.747 80.7295L193.141 61.7089V23.6667L159.747 4.64605ZM196.705 21.6374L159.747 0.586426L148.038 7.25549L122.788 21.6374V63.7392L159.747 84.7901L196.705 63.7392V21.6374ZM125.753 162.508L159.148 143.487L192.542 162.508V200.549L159.148 219.571L125.753 200.549V162.508ZM159.148 139.427L196.106 160.478V202.58L159.148 223.631L122.189 202.58V160.478L159.148 139.427Z" fill="url(#paint0_radial_473_55)"/>
<defs>
<radialGradient id="paint0_radial_473_55" cx="0" cy="0" r="1" gradientUnits="userSpaceOnUse" gradientTransform="translate(168.442 23.0422) rotate(117.563) scale(226.29 188.918)">
<stop offset="0.141956" stop-color="white" stop-opacity="0.86"/>
<stop offset="1" stop-color="white" stop-opacity="0.17"/>
</radialGradient>
</defs>
</svg>
