<svg width="86" height="64" viewBox="0 0 86 64" fill="none" xmlns="http://www.w3.org/2000/svg">
<rect x="9" width="64" height="64" rx="16" fill="white" fill-opacity="0.1"/>
<g clip-path="url(#clip0_1025_392)">
<path d="M19.5736 45.9362C15.7477 45.4966 12.2735 44.8031 9.39101 43.9036C6.50854 43.0041 4.28657 41.9201 2.87868 40.7265C1.4708 39.5329 0.910579 38.2581 1.23674 36.9904C1.5629 35.7226 2.76767 34.4921 4.76777 33.3838" stroke="url(#paint0_linear_1025_392)" stroke-width="1.27059" stroke-linecap="round" stroke-linejoin="round"/>
</g>
<g clip-path="url(#clip1_1025_392)">
<path d="M53.7968 55.4597C67.4433 55.4597 78.5059 51.2775 78.5059 46.1186V39.9585H29.0876V46.1186C29.0876 51.2775 40.1503 55.4597 53.7968 55.4597Z" fill="url(#paint1_radial_1025_392)"/>
<g filter="url(#filter0_ddd_1025_392)">
<path d="M53.7968 49.2997C67.4432 49.2997 78.5059 45.1174 78.5059 39.9583C78.5059 34.7992 67.4432 30.6169 53.7968 30.6169C40.1503 30.6169 29.0876 34.7992 29.0876 39.9583C29.0876 45.1174 40.1503 49.2997 53.7968 49.2997Z" fill="url(#paint2_linear_1025_392)"/>
</g>
<path opacity="0.5" d="M74.368 39.9582C74.368 40.9545 73.8328 41.9298 72.8078 42.843C71.7831 43.7559 70.2877 44.588 68.4211 45.2916C64.6891 46.6978 59.5187 47.5721 53.7968 47.5721C48.0749 47.5721 42.9045 46.6978 39.1725 45.2916C37.3057 44.588 35.8103 43.7559 34.7856 42.843C33.7606 41.9298 33.2256 40.9545 33.2256 39.9582C33.2256 38.9616 33.7606 37.9863 34.7856 37.0732C35.8103 36.1603 37.3057 35.3281 39.1725 34.6245C42.9045 33.2183 48.0749 32.3442 53.7968 32.3442C59.5187 32.3442 64.6891 33.2185 68.4211 34.625C70.2877 35.3283 71.7831 36.1605 72.8078 37.0734C73.8328 37.9867 74.368 38.9619 74.368 39.9584V39.9582Z" stroke="url(#paint3_linear_1025_392)" stroke-width="0.441234"/>
<g style="mix-blend-mode:soft-light">
<path fill-rule="evenodd" clip-rule="evenodd" d="M57.0119 35.7435C56.931 35.6954 56.876 35.689 56.8668 35.6881C56.8575 35.6873 56.8015 35.6822 56.6675 35.7087C56.5301 35.736 56.3516 35.7887 56.1372 35.8763C55.7094 36.0515 55.2199 36.3321 54.7043 36.7059C53.6775 37.4504 52.6031 38.5242 51.7343 39.7495C50.8658 40.975 50.3764 42.1081 50.2809 42.9469C50.233 43.368 50.286 43.7036 50.4247 43.9361C50.4945 44.0526 50.5794 44.132 50.6623 44.1815C50.7433 44.2298 50.7982 44.2362 50.8075 44.2371C50.8168 44.2379 50.8728 44.243 51.0065 44.2165C51.144 44.1892 51.3227 44.1365 51.5371 44.0487C51.9649 43.8737 52.4544 43.5931 52.9698 43.2194C53.9965 42.4748 55.0712 41.401 55.9397 40.1755C56.8083 38.9502 57.2978 37.8171 57.3934 36.9783C57.4412 36.5569 57.3883 36.2216 57.2493 35.9891C57.1798 35.8726 57.0949 35.7932 57.0119 35.7435ZM56.4688 40.2291C58.2202 37.7582 58.462 35.6354 57.0084 35.488C55.555 35.3409 52.9568 37.2247 51.2053 39.6961C49.4538 42.167 49.2122 44.2898 50.6657 44.4372C52.1191 44.5843 54.7173 42.7005 56.4688 40.2291Z" fill="white"/>
<path fill-rule="evenodd" clip-rule="evenodd" d="M65.0954 38.8929C65.1655 38.8422 65.1525 38.8212 65.1501 38.8179C65.1476 38.8144 65.1309 38.7937 65.0031 38.763C64.8721 38.7317 64.6616 38.6997 64.3532 38.6732C63.7379 38.6207 62.8497 38.6008 61.7351 38.6189C59.5151 38.6549 56.5164 38.84 53.2729 39.1683C50.0296 39.4963 47.1879 39.9023 45.2173 40.2903C44.2281 40.4851 43.4855 40.67 43.0222 40.8317C42.7901 40.9127 42.6504 40.9802 42.5785 41.032C42.5084 41.0828 42.5214 41.1037 42.5238 41.107C42.5262 41.1106 42.543 41.1313 42.6707 41.1618C42.8018 41.1933 43.0125 41.2253 43.3207 41.2515C43.9362 41.3041 44.8242 41.3241 45.9387 41.306C48.1588 41.2699 51.1574 41.085 54.4009 40.7567C57.6442 40.4286 60.486 40.0225 62.4566 39.6346C63.4458 39.4398 64.1882 39.255 64.6517 39.0933C64.8838 39.0123 65.0234 38.9448 65.0954 38.8929ZM54.5426 40.9568C61.0828 40.295 66.0687 39.3132 65.6791 38.7641C65.2893 38.215 59.6715 38.3063 53.1313 38.9682C46.5911 39.63 41.6051 40.6115 41.9948 41.1607C42.3846 41.71 48.0024 41.6187 54.5426 40.9568Z" fill="white"/>
<path fill-rule="evenodd" clip-rule="evenodd" d="M61.9165 43.1139C62.0672 43.1114 62.1089 43.0967 62.1155 43.0942C62.1221 43.0916 62.1614 43.0757 62.1675 43.0186C62.1739 42.9601 62.1422 42.8752 62.0482 42.7609C61.8609 42.5332 61.4627 42.2325 60.8639 41.8766C59.6713 41.1678 57.7481 40.2785 55.3747 39.3808C53.0011 38.4829 50.6502 37.7555 48.7763 37.3044C47.8354 37.078 47.0405 36.9273 46.4384 36.8565C46.1368 36.821 45.9122 36.8088 45.7574 36.8113C45.6067 36.8135 45.565 36.8285 45.5584 36.8311C45.5518 36.8333 45.5125 36.8492 45.5063 36.9064C45.4999 36.965 45.5317 37.05 45.6257 37.164C45.813 37.3919 46.2112 37.6926 46.8099 38.0485C48.0026 38.7573 49.9257 39.6466 52.2991 40.5443C54.6727 41.4423 57.0236 42.1696 58.8976 42.6206C59.8385 42.8471 60.6334 42.9978 61.2354 43.0686C61.537 43.1042 61.7616 43.1163 61.9165 43.1139ZM51.9117 40.6908C56.6978 42.5012 61.4397 43.6427 62.5029 43.2405C63.5663 42.8383 60.5482 41.0447 55.7621 39.2343C50.9761 37.4239 46.2341 36.2825 45.171 36.6846C44.1076 37.0868 47.1256 38.8804 51.9117 40.6908Z" fill="white"/>
<path fill-rule="evenodd" clip-rule="evenodd" d="M47.1602 37.9433C47.6199 37.9896 47.8926 38.1683 47.7695 38.3424C47.6462 38.5163 47.1736 38.6193 46.7141 38.5727C46.2543 38.5264 45.9816 38.3477 46.1048 38.1736C46.2281 37.9998 46.7006 37.8968 47.1602 37.9433ZM61.1519 38.2052C61.6119 38.2517 61.8848 38.4304 61.7615 38.6045C61.6384 38.7781 61.1656 38.8814 60.7059 38.8348C60.2459 38.7883 59.973 38.6096 60.0963 38.4355C60.2194 38.2617 60.6922 38.1586 61.1519 38.2052ZM50.3099 42.4026C50.7699 42.4492 51.0428 42.6279 50.9197 42.8017C50.7966 42.9754 50.3238 43.0786 49.8641 43.0318C49.4041 42.9853 49.1312 42.8068 49.2543 42.633C49.3774 42.4591 49.8502 42.3561 50.3099 42.4026ZM54.1698 39.4225C54.9486 39.5015 55.4106 39.8042 55.2019 40.0983C54.9934 40.3928 54.193 40.5673 53.4145 40.4886C52.6359 40.4096 52.1737 40.1071 52.3824 39.8128C52.5911 39.5185 53.3913 39.3438 54.1698 39.4225Z" fill="white"/>
</g>
</g>
<path fill-rule="evenodd" clip-rule="evenodd" d="M31.1678 31.56C44.1442 31.56 54.6637 27.5832 54.6637 22.6775V16.8199H48.8312C44.525 14.9655 38.2079 13.7949 31.1678 13.7949C24.1276 13.7949 17.8106 14.9655 13.5044 16.8199H7.67188L7.67188 22.6775C7.67187 27.5832 18.1913 31.56 31.1678 31.56Z" fill="url(#paint4_radial_1025_392)"/>
<path d="M31.1678 25.7027C44.1442 25.7027 54.6637 21.7258 54.6637 16.8201C54.6637 11.9144 44.1442 7.9375 31.1678 7.9375C18.1913 7.9375 7.67188 11.9144 7.67188 16.8201C7.67188 21.7258 18.1913 25.7027 31.1678 25.7027Z" fill="url(#paint5_radial_1025_392)"/>
<defs>
<filter id="filter0_ddd_1025_392" x="21.8073" y="20.4686" width="63.9789" height="33.2436" filterUnits="userSpaceOnUse" color-interpolation-filters="sRGB">
<feFlood flood-opacity="0" result="BackgroundImageFix"/>
<feColorMatrix in="SourceAlpha" type="matrix" values="0 0 0 0 0 0 0 0 0 0 0 0 0 0 0 0 0 0 127 0" result="hardAlpha"/>
<feOffset dy="-2.86802"/>
<feGaussianBlur stdDeviation="3.64018"/>
<feColorMatrix type="matrix" values="0 0 0 0 0.404167 0 0 0 0 0.741154 0 0 0 0 1 0 0 0 0.4 0"/>
<feBlend mode="normal" in2="BackgroundImageFix" result="effect1_dropShadow_1025_392"/>
<feColorMatrix in="SourceAlpha" type="matrix" values="0 0 0 0 0 0 0 0 0 0 0 0 0 0 0 0 0 0 127 0" result="hardAlpha"/>
<feOffset dy="0.409907"/>
<feGaussianBlur stdDeviation="0.409907"/>
<feColorMatrix type="matrix" values="0 0 0 0 1 0 0 0 0 1 0 0 0 0 1 0 0 0 0.25 0"/>
<feBlend mode="normal" in2="effect1_dropShadow_1025_392" result="effect2_dropShadow_1025_392"/>
<feColorMatrix in="SourceAlpha" type="matrix" values="0 0 0 0 0 0 0 0 0 0 0 0 0 0 0 0 0 0 127 0" result="hardAlpha"/>
<feOffset dy="-0.409907"/>
<feGaussianBlur stdDeviation="0.148696"/>
<feComposite in2="hardAlpha" operator="out"/>
<feColorMatrix type="matrix" values="0 0 0 0 0.925 0 0 0 0 0.936947 0 0 0 0 1 0 0 0 0.12 0"/>
<feBlend mode="normal" in2="effect2_dropShadow_1025_392" result="effect3_dropShadow_1025_392"/>
<feBlend mode="normal" in="SourceGraphic" in2="effect3_dropShadow_1025_392" result="shape"/>
</filter>
<linearGradient id="paint0_linear_1025_392" x1="9.40409" y1="31.1658" x2="10.0379" y2="42.021" gradientUnits="userSpaceOnUse">
<stop offset="0.254598" stop-color="white" stop-opacity="0"/>
<stop offset="0.901042" stop-color="white"/>
</linearGradient>
<radialGradient id="paint1_radial_1025_392" cx="0" cy="0" r="1" gradientUnits="userSpaceOnUse" gradientTransform="translate(54.8674 47.2662) rotate(70.2405) scale(16.9196 28.254)">
<stop stop-color="#68E9F1"/>
<stop offset="0.604" stop-color="#86AFFF"/>
<stop offset="1" stop-color="#9492FF"/>
</radialGradient>
<linearGradient id="paint2_linear_1025_392" x1="53.7968" y1="30.6172" x2="53.7968" y2="49.2997" gradientUnits="userSpaceOnUse">
<stop stop-color="#FD91FF"/>
<stop offset="0.344" stop-color="#A0A8FF"/>
<stop offset="0.947" stop-color="#C9F2FF"/>
</linearGradient>
<linearGradient id="paint3_linear_1025_392" x1="33.005" y1="32.1234" x2="75.9082" y2="42.1423" gradientUnits="userSpaceOnUse">
<stop stop-color="white"/>
<stop offset="1" stop-color="white" stop-opacity="0"/>
</linearGradient>
<radialGradient id="paint4_radial_1025_392" cx="0" cy="0" r="1" gradientUnits="userSpaceOnUse" gradientTransform="translate(43.8598 23.4474) rotate(-170.032) scale(43.026 20.4191)">
<stop/>
<stop offset="0.473925"/>
<stop offset="0.88" stop-color="#1F1F1F"/>
</radialGradient>
<radialGradient id="paint5_radial_1025_392" cx="0" cy="0" r="1" gradientUnits="userSpaceOnUse" gradientTransform="translate(54.6637 16.7345) rotate(-174.806) scale(50.9773 24.1926)">
<stop stop-color="#0D0D0D"/>
<stop offset="0.86" stop-color="#232323"/>
</radialGradient>
<clipPath id="clip0_1025_392">
<rect width="20.4688" height="16.9688" fill="white" transform="translate(0.046875 31.3594)"/>
</clipPath>
<clipPath id="clip1_1025_392">
<rect width="63.979" height="35.0781" fill="white" transform="translate(21.8074 20.4688)"/>
</clipPath>
</defs>
</svg>
