<svg width="87" height="130" viewBox="0 0 87 130" fill="none" xmlns="http://www.w3.org/2000/svg">
<rect x="9.32812" y="0.0625" width="64" height="64" rx="16" fill="white" fill-opacity="0.1"/>
<g clip-path="url(#clip0_708_224)">
<path d="M19.9017 45.9987C16.0758 45.5591 12.6015 44.8656 9.71907 43.9661C6.8366 43.0666 4.61463 41.9826 3.20674 40.789C1.79887 39.5954 1.23864 38.3206 1.5648 37.0529C1.89097 35.7851 3.09573 34.5546 5.09583 33.4463" stroke="url(#paint0_linear_708_224)" stroke-width="1.27059" stroke-linecap="round" stroke-linejoin="round"/>
</g>
<g clip-path="url(#clip1_708_224)">
<path d="M54.125 55.5222C67.7715 55.5222 78.8341 51.34 78.8341 46.1811V40.021H29.4159V46.1811C29.4159 51.34 40.4785 55.5222 54.125 55.5222Z" fill="url(#paint1_radial_708_224)"/>
<g filter="url(#filter0_ddd_708_224)">
<path d="M54.125 49.3622C67.7715 49.3622 78.8341 45.1799 78.8341 40.0208C78.8341 34.8617 67.7715 30.6794 54.125 30.6794C40.4785 30.6794 29.4159 34.8617 29.4159 40.0208C29.4159 45.1799 40.4785 49.3622 54.125 49.3622Z" fill="url(#paint2_linear_708_224)"/>
</g>
<path opacity="0.5" d="M74.6962 40.0207C74.6962 41.017 74.161 41.9923 73.136 42.9055C72.1113 43.8184 70.6159 44.6505 68.7493 45.3541C65.0173 46.7603 59.8469 47.6346 54.125 47.6346C48.4031 47.6346 43.2327 46.7603 39.5007 45.3541C37.6339 44.6505 36.1385 43.8184 35.1138 42.9055C34.0888 41.9923 33.5538 41.017 33.5538 40.0207C33.5538 39.0241 34.0888 38.0488 35.1138 37.1357C36.1385 36.2228 37.6339 35.3906 39.5007 34.687C43.2327 33.2808 48.4031 32.4067 54.125 32.4067C59.8469 32.4067 65.0173 33.281 68.7493 34.6875C70.6159 35.3908 72.1113 36.223 73.136 37.1359C74.161 38.0492 74.6962 39.0244 74.6962 40.0209V40.0207Z" stroke="url(#paint3_linear_708_224)" stroke-width="0.441234"/>
<g style="mix-blend-mode:soft-light">
<path fill-rule="evenodd" clip-rule="evenodd" d="M57.3401 35.806C57.2591 35.7579 57.2042 35.7515 57.1949 35.7506C57.1856 35.7498 57.1296 35.7447 56.9957 35.7712C56.8582 35.7985 56.6797 35.8512 56.4653 35.9388C56.0375 36.114 55.548 36.3946 55.0324 36.7684C54.0056 37.5129 52.9312 38.5867 52.0624 39.812C51.1939 41.0375 50.7046 42.1706 50.609 43.0094C50.5611 43.4305 50.6141 43.7661 50.7529 43.9986C50.8226 44.1151 50.9075 44.1945 50.9905 44.244C51.0714 44.2923 51.1264 44.2987 51.1356 44.2996C51.1449 44.3004 51.2009 44.3055 51.3346 44.279C51.4721 44.2517 51.6508 44.199 51.8652 44.1112C52.293 43.9362 52.7825 43.6556 53.2979 43.2819C54.3247 42.5373 55.3993 41.4635 56.2679 40.238C57.1364 39.0127 57.626 37.8796 57.7215 37.0408C57.7694 36.6194 57.7164 36.2841 57.5774 36.0516C57.5079 35.9351 57.423 35.8557 57.3401 35.806ZM56.7969 40.2916C58.5484 37.8207 58.7902 35.6979 57.3365 35.5505C55.8831 35.4034 53.2849 37.2872 51.5334 39.7586C49.7819 42.2295 49.5404 44.3523 50.9938 44.4997C52.4472 44.6468 55.0454 42.763 56.7969 40.2916Z" fill="white"/>
<path fill-rule="evenodd" clip-rule="evenodd" d="M65.4235 38.9554C65.4936 38.9047 65.4806 38.8837 65.4782 38.8804C65.4758 38.8769 65.459 38.8562 65.3313 38.8255C65.2002 38.7942 64.9897 38.7622 64.6813 38.7357C64.066 38.6832 63.1778 38.6633 62.0633 38.6814C59.8432 38.7174 56.8446 38.9025 53.601 39.2308C50.3578 39.5588 47.516 39.9648 45.5454 40.3528C44.5562 40.5476 43.8136 40.7325 43.3503 40.8942C43.1182 40.9752 42.9786 41.0427 42.9066 41.0945C42.8365 41.1453 42.8495 41.1662 42.8519 41.1695C42.8543 41.1731 42.8711 41.1938 42.9988 41.2243C43.1299 41.2558 43.3406 41.2878 43.6488 41.314C44.2643 41.3666 45.1523 41.3866 46.2669 41.3685C48.4869 41.3324 51.4856 41.1475 54.7291 40.8192C57.9724 40.4911 60.8141 40.085 62.7847 39.6971C63.7739 39.5023 64.5163 39.3175 64.9798 39.1558C65.2119 39.0748 65.3516 39.0073 65.4235 38.9554ZM54.8707 41.0193C61.4109 40.3575 66.3968 39.3757 66.0072 38.8266C65.6174 38.2775 59.9996 38.3688 53.4594 39.0307C46.9192 39.6925 41.9333 40.674 42.3229 41.2232C42.7127 41.7725 48.3305 41.6812 54.8707 41.0193Z" fill="white"/>
<path fill-rule="evenodd" clip-rule="evenodd" d="M62.2446 43.1764C62.3953 43.1739 62.437 43.1592 62.4436 43.1567C62.4502 43.1541 62.4895 43.1382 62.4957 43.0811C62.5021 43.0226 62.4703 42.9377 62.3763 42.8234C62.189 42.5957 61.7908 42.295 61.192 41.9391C59.9994 41.2303 58.0763 40.341 55.7029 39.4433C53.3292 38.5454 50.9783 37.818 49.1044 37.3669C48.1635 37.1405 47.3686 36.9898 46.7665 36.919C46.465 36.8835 46.2404 36.8713 46.0855 36.8738C45.9348 36.876 45.8931 36.891 45.8865 36.8936C45.8799 36.8958 45.8406 36.9117 45.8344 36.9689C45.828 37.0275 45.8598 37.1125 45.9538 37.2265C46.1411 37.4544 46.5393 37.7551 47.1381 38.111C48.3307 38.8198 50.2538 39.7091 52.6272 40.6068C55.0009 41.5048 57.3518 42.2321 59.2257 42.6831C60.1666 42.9096 60.9615 43.0603 61.5636 43.1311C61.8651 43.1667 62.0897 43.1788 62.2446 43.1764ZM52.2398 40.7533C57.0259 42.5637 61.7678 43.7052 62.831 43.303C63.8944 42.9008 60.8763 41.1072 56.0903 39.2968C51.3042 37.4864 46.5623 36.345 45.4991 36.7471C44.4357 37.1493 47.4538 38.9429 52.2398 40.7533Z" fill="white"/>
<path fill-rule="evenodd" clip-rule="evenodd" d="M47.4884 38.0058C47.9482 38.0521 48.2209 38.2308 48.0978 38.4049C47.9744 38.5788 47.5019 38.6818 47.0423 38.6352C46.5826 38.5889 46.3099 38.4102 46.433 38.2361C46.5563 38.0623 47.0289 37.9593 47.4884 38.0058ZM61.4802 38.2677C61.9402 38.3142 62.2131 38.4929 62.0898 38.667C61.9667 38.8406 61.4939 38.9439 61.0341 38.8973C60.5741 38.8508 60.3012 38.6721 60.4245 38.498C60.5476 38.3242 61.0204 38.2211 61.4802 38.2677ZM50.6382 42.4651C51.0982 42.5117 51.3711 42.6904 51.248 42.8642C51.1249 43.0379 50.6521 43.1411 50.1923 43.0943C49.7323 43.0478 49.4594 42.8693 49.5825 42.6955C49.7056 42.5216 50.1784 42.4186 50.6382 42.4651ZM54.4981 39.485C55.2769 39.564 55.7388 39.8667 55.5301 40.1608C55.3217 40.4553 54.5213 40.6298 53.7427 40.5511C52.9641 40.4721 52.502 40.1696 52.7107 39.8753C52.9194 39.581 53.7195 39.4063 54.4981 39.485Z" fill="white"/>
</g>
</g>
<path fill-rule="evenodd" clip-rule="evenodd" d="M31.4959 31.6225C44.4724 31.6225 54.9918 27.6457 54.9918 22.74V16.8824H49.1594C44.8531 15.028 38.5361 13.8574 31.4959 13.8574C24.4557 13.8574 18.1388 15.028 13.8325 16.8824H8L8 22.74C8 27.6457 18.5195 31.6225 31.4959 31.6225Z" fill="url(#paint4_radial_708_224)"/>
<path d="M31.4959 25.7652C44.4723 25.7652 54.9918 21.7883 54.9918 16.8826C54.9918 11.9769 44.4723 8 31.4959 8C18.5195 8 8 11.9769 8 16.8826C8 21.7883 18.5195 25.7652 31.4959 25.7652Z" fill="url(#paint5_radial_708_224)"/>
<defs>
<filter id="filter0_ddd_708_224" x="22.1355" y="20.5311" width="63.9789" height="33.2436" filterUnits="userSpaceOnUse" color-interpolation-filters="sRGB">
<feFlood flood-opacity="0" result="BackgroundImageFix"/>
<feColorMatrix in="SourceAlpha" type="matrix" values="0 0 0 0 0 0 0 0 0 0 0 0 0 0 0 0 0 0 127 0" result="hardAlpha"/>
<feOffset dy="-2.86802"/>
<feGaussianBlur stdDeviation="3.64018"/>
<feColorMatrix type="matrix" values="0 0 0 0 0.404167 0 0 0 0 0.741154 0 0 0 0 1 0 0 0 0.4 0"/>
<feBlend mode="normal" in2="BackgroundImageFix" result="effect1_dropShadow_708_224"/>
<feColorMatrix in="SourceAlpha" type="matrix" values="0 0 0 0 0 0 0 0 0 0 0 0 0 0 0 0 0 0 127 0" result="hardAlpha"/>
<feOffset dy="0.409907"/>
<feGaussianBlur stdDeviation="0.409907"/>
<feColorMatrix type="matrix" values="0 0 0 0 1 0 0 0 0 1 0 0 0 0 1 0 0 0 0.25 0"/>
<feBlend mode="normal" in2="effect1_dropShadow_708_224" result="effect2_dropShadow_708_224"/>
<feColorMatrix in="SourceAlpha" type="matrix" values="0 0 0 0 0 0 0 0 0 0 0 0 0 0 0 0 0 0 127 0" result="hardAlpha"/>
<feOffset dy="-0.409907"/>
<feGaussianBlur stdDeviation="0.148696"/>
<feComposite in2="hardAlpha" operator="out"/>
<feColorMatrix type="matrix" values="0 0 0 0 0.925 0 0 0 0 0.936947 0 0 0 0 1 0 0 0 0.12 0"/>
<feBlend mode="normal" in2="effect2_dropShadow_708_224" result="effect3_dropShadow_708_224"/>
<feBlend mode="normal" in="SourceGraphic" in2="effect3_dropShadow_708_224" result="shape"/>
</filter>
<linearGradient id="paint0_linear_708_224" x1="9.73215" y1="31.2283" x2="10.366" y2="42.0835" gradientUnits="userSpaceOnUse">
<stop offset="0.254598" stop-color="white" stop-opacity="0"/>
<stop offset="0.901042" stop-color="white"/>
</linearGradient>
<radialGradient id="paint1_radial_708_224" cx="0" cy="0" r="1" gradientUnits="userSpaceOnUse" gradientTransform="translate(55.1957 47.3287) rotate(70.2405) scale(16.9196 28.254)">
<stop stop-color="#68E9F1"/>
<stop offset="0.604" stop-color="#86AFFF"/>
<stop offset="1" stop-color="#9492FF"/>
</radialGradient>
<linearGradient id="paint2_linear_708_224" x1="54.125" y1="30.6797" x2="54.125" y2="49.3622" gradientUnits="userSpaceOnUse">
<stop stop-color="#FD91FF"/>
<stop offset="0.344" stop-color="#A0A8FF"/>
<stop offset="0.947" stop-color="#C9F2FF"/>
</linearGradient>
<linearGradient id="paint3_linear_708_224" x1="33.3332" y1="32.1859" x2="76.2364" y2="42.2048" gradientUnits="userSpaceOnUse">
<stop stop-color="white"/>
<stop offset="1" stop-color="white" stop-opacity="0"/>
</linearGradient>
<radialGradient id="paint4_radial_708_224" cx="0" cy="0" r="1" gradientUnits="userSpaceOnUse" gradientTransform="translate(44.1879 23.5099) rotate(-170.032) scale(43.026 20.4191)">
<stop/>
<stop offset="0.473925"/>
<stop offset="0.88" stop-color="#1F1F1F"/>
</radialGradient>
<radialGradient id="paint5_radial_708_224" cx="0" cy="0" r="1" gradientUnits="userSpaceOnUse" gradientTransform="translate(54.9918 16.797) rotate(-174.806) scale(50.9773 24.1926)">
<stop stop-color="#0D0D0D"/>
<stop offset="0.86" stop-color="#232323"/>
</radialGradient>
<clipPath id="clip0_708_224">
<rect width="20.4688" height="16.9688" fill="white" transform="translate(0.375 31.4219)"/>
</clipPath>
<clipPath id="clip1_708_224">
<rect width="63.979" height="35.0781" fill="white" transform="translate(22.1355 20.5312)"/>
</clipPath>
</defs>
</svg>
