<svg width="94" height="73" viewBox="0 0 94 73" fill="none" xmlns="http://www.w3.org/2000/svg">
<rect x="13.6562" y="0.0625" width="64" height="64" rx="16" fill="white" fill-opacity="0.1"/>
<g clip-path="url(#clip0_473_212)">
<path d="M46.7074 51.6812C58.1651 51.6812 67.4534 42.3929 67.4534 30.9352C67.4534 19.4775 58.1651 10.1892 46.7074 10.1892C35.2497 10.1892 25.9614 19.4775 25.9614 30.9352C25.9614 42.3929 35.2497 51.6812 46.7074 51.6812Z" fill="white"/>
<path d="M46.7074 51.6812C58.1651 51.6812 67.4534 42.3929 67.4534 30.9352C67.4534 19.4775 58.1651 10.1892 46.7074 10.1892C35.2497 10.1892 25.9614 19.4775 25.9614 30.9352C25.9614 42.3929 35.2497 51.6812 46.7074 51.6812Z" fill="url(#paint0_linear_473_212)"/>
<path d="M41.776 54.8492C41.9201 64.164 34.4855 71.8321 25.1706 71.976C15.8557 72.12 8.18769 64.6855 8.04368 55.3706C7.89968 46.0557 15.3342 38.3877 24.6491 38.2438C33.964 38.0997 41.632 45.5342 41.776 54.8492Z" fill="url(#paint1_radial_473_212)"/>
<path d="M89.366 47.7266C89.2105 48.1806 88.8216 48.5979 88.115 48.9489C87.4065 49.3009 86.4223 49.5629 85.1697 49.7203C82.6665 50.0352 79.2059 49.9199 75.0194 49.3898C66.6546 48.3307 55.4986 45.6301 43.5408 41.5333C31.5831 37.4366 21.1147 32.7286 13.8579 28.4356C10.2259 26.287 7.42164 24.2559 5.63745 22.4723C4.74455 21.5797 4.12774 20.7693 3.78395 20.0568C3.44112 19.3462 3.38979 18.7781 3.54534 18.324C3.7009 17.87 4.08981 17.4528 4.79636 17.1017C5.50486 16.7497 6.48907 16.4878 7.74175 16.3303C10.2448 16.0155 13.7054 16.1308 17.892 16.6609C26.2568 17.72 37.4128 20.4206 49.3706 24.5173C61.3283 28.6141 71.7966 33.3221 79.0535 37.615C82.6855 39.7637 85.4897 41.7947 87.2739 43.5784C88.1668 44.471 88.7837 45.2814 89.1274 45.9939C89.4702 46.7045 89.5216 47.2726 89.366 47.7266Z" stroke="url(#paint2_linear_473_212)" stroke-width="0.999783"/>
<path d="M68.0264 15.5898C65.0702 12.5363 60.1983 12.4574 57.1448 15.4137C54.0912 18.3698 54.0124 23.2418 56.9686 26.2952C59.9248 29.3488 64.7967 29.4276 67.8503 26.4715C70.9038 23.5152 70.9827 18.6434 68.0264 15.5898Z" fill="url(#paint3_radial_473_212)"/>
</g>
<defs>
<linearGradient id="paint0_linear_473_212" x1="46.7074" y1="10.1892" x2="46.7074" y2="51.6812" gradientUnits="userSpaceOnUse">
<stop stop-color="#FD91FF"/>
<stop offset="0.34375" stop-color="#A0A8FF"/>
<stop offset="0.947005" stop-color="#C9F2FF"/>
</linearGradient>
<radialGradient id="paint1_radial_473_212" cx="0" cy="0" r="1" gradientUnits="userSpaceOnUse" gradientTransform="translate(18.5805 60.2544) rotate(-43.7151) scale(25.992 33.4952)">
<stop offset="0.581217" stop-color="#2B152F"/>
<stop offset="0.753744" stop-color="#413686"/>
<stop offset="0.963759" stop-color="#5CB1E0"/>
</radialGradient>
<linearGradient id="paint2_linear_473_212" x1="47.617" y1="41.0537" x2="52.116" y2="28.0565" gradientUnits="userSpaceOnUse">
<stop stop-color="#F3FCFF"/>
<stop offset="0.47974" stop-color="#654BAE"/>
<stop offset="1" stop-color="#303261" stop-opacity="0"/>
</linearGradient>
<radialGradient id="paint3_radial_473_212" cx="0" cy="0" r="1" gradientUnits="userSpaceOnUse" gradientTransform="translate(72.3635 16.5938) rotate(148.456) scale(18.244 18.244)">
<stop offset="0.357721" stop-color="#171717"/>
<stop offset="0.703125" stop-color="#261C33"/>
<stop offset="0.866261" stop-color="#582A60"/>
</radialGradient>
<clipPath id="clip0_473_212">
<rect width="92.7969" height="71.9844" fill="white" transform="translate(0.21875 0.0625)"/>
</clipPath>
</defs>
</svg>
