<svg width="440" height="420" viewBox="0 0 440 420" fill="none" xmlns="http://www.w3.org/2000/svg">
<g clip-path="url(#clip0_0_5)">
<path d="M144.202 116.969C121.196 115.248 103.239 118.958 92.8993 127.396C87.7444 131.603 84.6134 136.877 83.524 142.99C82.433 149.111 83.3834 156.115 86.4671 163.776C92.6395 179.109 106.985 196.14 127.425 212.303C147.856 228.458 173.235 242.841 199.768 253.299C226.302 263.756 252.54 269.716 274.557 270.302C296.601 270.89 313.1 266.057 321.751 256.706C330.349 247.412 330.879 233.972 322.967 218.229C315.051 202.48 299.155 185.398 277.605 169.555M171.42 105.62C130.193 91.6755 93.7553 86.6664 68.6855 91.4233C56.1572 93.8005 46.9391 98.5267 41.2235 105.22C35.5199 111.9 33.246 120.607 34.7323 131.083C37.7134 152.097 55.6138 178.717 85.3692 206.104C115.1 233.469 154.61 259.709 196.741 280.061C238.875 300.414 280.809 313.516 314.939 317.012C332.005 318.759 346.527 318.045 357.978 315.036C369.428 312.028 377.762 306.737 382.533 299.365C387.3 291.999 388.408 282.711 385.89 271.951C383.37 261.184 377.226 248.976 367.537 235.839C348.161 209.565 315.971 181.418 276.781 156.517" stroke="white" stroke-opacity="0.1" stroke-width="0.987043"/>
<path d="M169.371 328.067C287.417 381.753 405.607 366.226 433.358 293.388C461.108 220.549 387.909 117.981 269.863 64.2954C151.817 10.6097 33.6262 26.1363 5.87596 98.975C-21.8742 171.813 51.3249 274.382 169.371 328.067Z" fill="url(#paint0_radial_0_5)"/>
<path d="M90.4034 224.153C122.09 291.527 202.394 320.457 269.768 288.77C337.141 257.084 366.071 176.78 334.384 109.407C302.698 42.0328 222.394 13.1026 155.02 44.7892C87.6469 76.4756 58.7168 156.78 90.4034 224.153Z" fill="url(#paint1_radial_0_5)"/>
</g>
<defs>
<radialGradient id="paint0_radial_0_5" cx="0" cy="0" r="1" gradientUnits="userSpaceOnUse" gradientTransform="translate(219.712 196.315) rotate(-155.545) scale(234.943 140.936)">
<stop offset="0.0001" stop-color="#CD22F8"/>
<stop offset="0.539562" stop-color="#C809F9" stop-opacity="0.3"/>
<stop offset="1" stop-color="#420053" stop-opacity="0"/>
</radialGradient>
<radialGradient id="paint1_radial_0_5" cx="0" cy="0" r="1" gradientUnits="userSpaceOnUse" gradientTransform="translate(212.395 166.782) rotate(64.8119) scale(134.809 134.809)">
<stop offset="0.223958" stop-color="#A5FBFF"/>
<stop offset="0.338542" stop-color="#A4DEFF"/>
<stop offset="0.598958" stop-color="#CF36D2" stop-opacity="0.6"/>
<stop offset="1" stop-color="#0113AB" stop-opacity="0"/>
</radialGradient>
<clipPath id="clip0_0_5">
<rect width="439.234" height="420" fill="white"/>
</clipPath>
</defs>
</svg>
